%TF.GenerationSoftware,KiCad,Pcbnew,9.0.6*%
%TF.CreationDate,2025-11-21T12:23:08-05:00*%
%TF.ProjectId,ESP32C6-2,45535033-3243-4362-9d32-2e6b69636164,rev?*%
%TF.SameCoordinates,Original*%
%TF.FileFunction,Legend,Bot*%
%TF.FilePolarity,Positive*%
%FSLAX46Y46*%
G04 Gerber Fmt 4.6, Leading zero omitted, Abs format (unit mm)*
G04 Created by KiCad (PCBNEW 9.0.6) date 2025-11-21 12:23:08*
%MOMM*%
%LPD*%
G01*
G04 APERTURE LIST*
%ADD10C,0.150000*%
%ADD11C,0.120000*%
G04 APERTURE END LIST*
D10*
X133488333Y-45724819D02*
X133488333Y-46439104D01*
X133488333Y-46439104D02*
X133535952Y-46581961D01*
X133535952Y-46581961D02*
X133631190Y-46677200D01*
X133631190Y-46677200D02*
X133774047Y-46724819D01*
X133774047Y-46724819D02*
X133869285Y-46724819D01*
X132488333Y-46724819D02*
X133059761Y-46724819D01*
X132774047Y-46724819D02*
X132774047Y-45724819D01*
X132774047Y-45724819D02*
X132869285Y-45867676D01*
X132869285Y-45867676D02*
X132964523Y-45962914D01*
X132964523Y-45962914D02*
X133059761Y-46010533D01*
D11*
%TO.C,J1*%
X148640000Y-58830000D02*
X148640000Y-48330000D01*
X147580000Y-47270000D02*
X118730000Y-47270000D01*
X140192733Y-56218256D02*
X141021470Y-51518256D01*
X139386689Y-49570000D02*
X126923311Y-49570000D01*
X127865000Y-46375662D02*
X127365000Y-46375662D01*
X127752048Y-57590000D02*
X138557952Y-57590000D01*
X127615000Y-46808675D02*
X127865000Y-46375662D01*
X127365000Y-46375662D02*
X127615000Y-46808675D01*
X125288530Y-51518256D02*
X126117267Y-56218256D01*
X118730000Y-59890000D02*
X147580000Y-59890000D01*
X117670000Y-48330000D02*
X117670000Y-58830000D01*
X147580000Y-47270000D02*
G75*
G02*
X148640000Y-48330000I-1J-1060001D01*
G01*
X148640000Y-58830000D02*
G75*
G02*
X147580000Y-59890000I-1060001J1D01*
G01*
X139386689Y-49570000D02*
G75*
G02*
X141021470Y-51518256I0J-1660000D01*
G01*
X140192733Y-56218256D02*
G75*
G02*
X138557952Y-57590000I-1634780J288255D01*
G01*
X125288530Y-51518256D02*
G75*
G02*
X126923311Y-49570001I1634780J288256D01*
G01*
X127752048Y-57590000D02*
G75*
G02*
X126117267Y-56218256I-1J1659999D01*
G01*
X117670000Y-48330000D02*
G75*
G02*
X118730000Y-47270000I1060000J0D01*
G01*
X118730000Y-59890000D02*
G75*
G02*
X117670000Y-58830000I0J1060000D01*
G01*
%TD*%
M02*
