%TF.GenerationSoftware,KiCad,Pcbnew,9.0.6*%
%TF.CreationDate,2025-11-21T12:23:08-05:00*%
%TF.ProjectId,ESP32C6-2,45535033-3243-4362-9d32-2e6b69636164,rev?*%
%TF.SameCoordinates,Original*%
%TF.FileFunction,Copper,L2,Bot*%
%TF.FilePolarity,Positive*%
%FSLAX46Y46*%
G04 Gerber Fmt 4.6, Leading zero omitted, Abs format (unit mm)*
G04 Created by KiCad (PCBNEW 9.0.6) date 2025-11-21 12:23:08*
%MOMM*%
%LPD*%
G01*
G04 APERTURE LIST*
G04 Aperture macros list*
%AMRoundRect*
0 Rectangle with rounded corners*
0 $1 Rounding radius*
0 $2 $3 $4 $5 $6 $7 $8 $9 X,Y pos of 4 corners*
0 Add a 4 corners polygon primitive as box body*
4,1,4,$2,$3,$4,$5,$6,$7,$8,$9,$2,$3,0*
0 Add four circle primitives for the rounded corners*
1,1,$1+$1,$2,$3*
1,1,$1+$1,$4,$5*
1,1,$1+$1,$6,$7*
1,1,$1+$1,$8,$9*
0 Add four rect primitives between the rounded corners*
20,1,$1+$1,$2,$3,$4,$5,0*
20,1,$1+$1,$4,$5,$6,$7,0*
20,1,$1+$1,$6,$7,$8,$9,0*
20,1,$1+$1,$8,$9,$2,$3,0*%
G04 Aperture macros list end*
%TA.AperFunction,ComponentPad*%
%ADD10RoundRect,0.190500X0.444500X-1.079500X0.444500X1.079500X-0.444500X1.079500X-0.444500X-1.079500X0*%
%TD*%
%TA.AperFunction,ComponentPad*%
%ADD11C,4.000000*%
%TD*%
%TA.AperFunction,ComponentPad*%
%ADD12R,1.600000X1.600000*%
%TD*%
%TA.AperFunction,ComponentPad*%
%ADD13C,1.600000*%
%TD*%
%TA.AperFunction,ViaPad*%
%ADD14C,0.800000*%
%TD*%
%TA.AperFunction,Conductor*%
%ADD15C,0.250000*%
%TD*%
G04 APERTURE END LIST*
D10*
%TO.P,U1,1,GPIO0/A0/D0*%
%TO.N,unconnected-(U1-GPIO0{slash}A0{slash}D0-Pad1)*%
X118960000Y-78500000D03*
%TO.P,U1,2,GPIO1/A1/D1*%
%TO.N,unconnected-(U1-GPIO1{slash}A1{slash}D1-Pad2)*%
X121500000Y-78500000D03*
%TO.P,U1,3,GPIO2/A2/D2*%
%TO.N,Net-(U1-GPIO2{slash}A2{slash}D2)*%
X124040000Y-78500000D03*
%TO.P,U1,4,GPIO21/D3*%
%TO.N,Net-(U1-GPIO21{slash}D3)*%
X126580000Y-78500000D03*
%TO.P,U1,5,GPIO22/D4/SDA*%
%TO.N,Net-(U1-GPIO22{slash}D4{slash}SDA)*%
X129120000Y-78500000D03*
%TO.P,U1,6,GPIO23/D5/SCL*%
%TO.N,unconnected-(U1-GPIO23{slash}D5{slash}SCL-Pad6)*%
X131660000Y-78500000D03*
%TO.P,U1,7,GPIO16/D6/TX*%
%TO.N,unconnected-(U1-GPIO16{slash}D6{slash}TX-Pad7)*%
X134200000Y-78500000D03*
%TO.P,U1,8,GPIO17/D7/RX*%
%TO.N,unconnected-(U1-GPIO17{slash}D7{slash}RX-Pad8)*%
X136740000Y-78500000D03*
%TO.P,U1,9,GPIO19/D8/SCK*%
%TO.N,unconnected-(U1-GPIO19{slash}D8{slash}SCK-Pad9)*%
X139280000Y-78500000D03*
%TO.P,U1,10,GPIO20/D9/MISO*%
%TO.N,unconnected-(U1-GPIO20{slash}D9{slash}MISO-Pad10)*%
X118780000Y-62500000D03*
%TO.P,U1,11,GPIO18/D10/MOSI*%
%TO.N,Net-(U1-GPIO18{slash}D10{slash}MOSI)*%
X121320000Y-62500000D03*
%TO.P,U1,12,3V3*%
%TO.N,Net-(U1-3V3)*%
X123860000Y-62500000D03*
%TO.P,U1,13,GND*%
%TO.N,Net-(U1-GND)*%
X126400000Y-62500000D03*
%TO.P,U1,14,VBUS*%
%TO.N,unconnected-(U1-VBUS-Pad14)*%
X128940000Y-62500000D03*
%TO.P,U1,15*%
%TO.N,N/C*%
X131480000Y-62500000D03*
%TO.P,U1,16*%
X134020000Y-62500000D03*
%TO.P,U1,17*%
X136560000Y-62500000D03*
%TO.P,U1,18*%
X139100000Y-62500000D03*
%TD*%
D11*
%TO.P,J1,0*%
%TO.N,N/C*%
X145655000Y-53580000D03*
X120655000Y-53580000D03*
D12*
%TO.P,J1,1,1*%
%TO.N,unconnected-(J1-Pad1)*%
X127615000Y-52160000D03*
D13*
%TO.P,J1,2,2*%
%TO.N,Net-(U2-CANL)*%
X130385000Y-52160000D03*
%TO.P,J1,3,3*%
%TO.N,unconnected-(J1-Pad3)*%
X133155000Y-52160000D03*
%TO.P,J1,4,4*%
%TO.N,Net-(U1-GPIO2{slash}A2{slash}D2)*%
X135925000Y-52160000D03*
%TO.P,J1,5,5*%
%TO.N,unconnected-(J1-Pad5)*%
X138695000Y-52160000D03*
%TO.P,J1,6,6*%
%TO.N,unconnected-(J1-Pad6)*%
X129000000Y-55000000D03*
%TO.P,J1,7,7*%
%TO.N,Net-(U2-CANH)*%
X131770000Y-55000000D03*
%TO.P,J1,8,8*%
%TO.N,unconnected-(J1-Pad8)*%
X134540000Y-55000000D03*
%TO.P,J1,9,9*%
%TO.N,unconnected-(J1-Pad9)*%
X137310000Y-55000000D03*
%TD*%
D14*
%TO.N,Net-(U1-GPIO18{slash}D10{slash}MOSI)*%
X139756000Y-65611100D03*
%TO.N,Net-(U2-CANL)*%
X148981700Y-65444700D03*
%TO.N,Net-(U1-GND)*%
X147428300Y-75374900D03*
X127067300Y-67301200D03*
%TO.N,Net-(U1-3V3)*%
X144314900Y-64504600D03*
%TD*%
D15*
%TO.N,Net-(U1-GPIO18{slash}D10{slash}MOSI)*%
X123931100Y-65611100D02*
X121320000Y-63000000D01*
X139756000Y-65611100D02*
X123931100Y-65611100D01*
X139756000Y-65611100D02*
X140533400Y-65611100D01*
X140533400Y-65611100D02*
X139756000Y-65611100D01*
%TO.N,Net-(U2-CANL)*%
X140368100Y-56831100D02*
X148981700Y-65444700D01*
X134739300Y-56831100D02*
X140368100Y-56831100D01*
X133155000Y-55246800D02*
X134739300Y-56831100D01*
X133155000Y-54719800D02*
X133155000Y-55246800D01*
X130595200Y-52160000D02*
X133155000Y-54719800D01*
X130385000Y-52160000D02*
X130595200Y-52160000D01*
X148981700Y-65444700D02*
X148710700Y-65173700D01*
X148710700Y-65173700D02*
X148981700Y-65444700D01*
%TO.N,Net-(U1-GND)*%
X135141000Y-75374900D02*
X147428300Y-75374900D01*
X127067300Y-67301200D02*
X135141000Y-75374900D01*
X127067300Y-67301200D02*
X126400000Y-66633900D01*
X126400000Y-66633900D02*
X127067300Y-67301200D01*
X147428300Y-75374900D02*
X147051400Y-75751800D01*
X147051400Y-75751800D02*
X147428300Y-75374900D01*
%TO.N,Net-(U1-3V3)*%
X128615800Y-64504600D02*
X144314900Y-64504600D01*
X127510800Y-63399600D02*
X128615800Y-64504600D01*
X127510800Y-61348400D02*
X127510800Y-63399600D01*
X127052500Y-60890100D02*
X127510800Y-61348400D01*
X125735200Y-60890100D02*
X127052500Y-60890100D01*
X123860000Y-62765300D02*
X125735200Y-60890100D01*
X123860000Y-63000000D02*
X123860000Y-62765300D01*
X144314900Y-64504600D02*
X144315000Y-64504600D01*
X144315000Y-64504600D02*
X144314900Y-64504600D01*
%TD*%
M02*
