%TF.GenerationSoftware,KiCad,Pcbnew,9.0.6*%
%TF.CreationDate,2025-11-21T12:23:08-05:00*%
%TF.ProjectId,ESP32C6-2,45535033-3243-4362-9d32-2e6b69636164,rev?*%
%TF.SameCoordinates,Original*%
%TF.FileFunction,Copper,L1,Top*%
%TF.FilePolarity,Positive*%
%FSLAX46Y46*%
G04 Gerber Fmt 4.6, Leading zero omitted, Abs format (unit mm)*
G04 Created by KiCad (PCBNEW 9.0.6) date 2025-11-21 12:23:08*
%MOMM*%
%LPD*%
G01*
G04 APERTURE LIST*
G04 Aperture macros list*
%AMRoundRect*
0 Rectangle with rounded corners*
0 $1 Rounding radius*
0 $2 $3 $4 $5 $6 $7 $8 $9 X,Y pos of 4 corners*
0 Add a 4 corners polygon primitive as box body*
4,1,4,$2,$3,$4,$5,$6,$7,$8,$9,$2,$3,0*
0 Add four circle primitives for the rounded corners*
1,1,$1+$1,$2,$3*
1,1,$1+$1,$4,$5*
1,1,$1+$1,$6,$7*
1,1,$1+$1,$8,$9*
0 Add four rect primitives between the rounded corners*
20,1,$1+$1,$2,$3,$4,$5,0*
20,1,$1+$1,$4,$5,$6,$7,0*
20,1,$1+$1,$6,$7,$8,$9,0*
20,1,$1+$1,$8,$9,$2,$3,0*%
G04 Aperture macros list end*
%TA.AperFunction,ComponentPad*%
%ADD10RoundRect,0.190500X0.444500X-1.079500X0.444500X1.079500X-0.444500X1.079500X-0.444500X-1.079500X0*%
%TD*%
%TA.AperFunction,SMDPad,CuDef*%
%ADD11RoundRect,0.250000X0.350000X-0.850000X0.350000X0.850000X-0.350000X0.850000X-0.350000X-0.850000X0*%
%TD*%
%TA.AperFunction,SMDPad,CuDef*%
%ADD12RoundRect,0.249997X2.650003X-2.950003X2.650003X2.950003X-2.650003X2.950003X-2.650003X-2.950003X0*%
%TD*%
%TA.AperFunction,ComponentPad*%
%ADD13C,4.000000*%
%TD*%
%TA.AperFunction,ComponentPad*%
%ADD14R,1.600000X1.600000*%
%TD*%
%TA.AperFunction,ComponentPad*%
%ADD15C,1.600000*%
%TD*%
%TA.AperFunction,SMDPad,CuDef*%
%ADD16RoundRect,0.150000X-0.825000X-0.150000X0.825000X-0.150000X0.825000X0.150000X-0.825000X0.150000X0*%
%TD*%
%TA.AperFunction,ViaPad*%
%ADD17C,0.800000*%
%TD*%
%TA.AperFunction,Conductor*%
%ADD18C,0.250000*%
%TD*%
G04 APERTURE END LIST*
D10*
%TO.P,U1,1,GPIO0/A0/D0*%
%TO.N,unconnected-(U1-GPIO0{slash}A0{slash}D0-Pad1)*%
X118960000Y-78500000D03*
%TO.P,U1,2,GPIO1/A1/D1*%
%TO.N,unconnected-(U1-GPIO1{slash}A1{slash}D1-Pad2)*%
X121500000Y-78500000D03*
%TO.P,U1,3,GPIO2/A2/D2*%
%TO.N,Net-(U1-GPIO2{slash}A2{slash}D2)*%
X124040000Y-78500000D03*
%TO.P,U1,4,GPIO21/D3*%
%TO.N,Net-(U1-GPIO21{slash}D3)*%
X126580000Y-78500000D03*
%TO.P,U1,5,GPIO22/D4/SDA*%
%TO.N,Net-(U1-GPIO22{slash}D4{slash}SDA)*%
X129120000Y-78500000D03*
%TO.P,U1,6,GPIO23/D5/SCL*%
%TO.N,unconnected-(U1-GPIO23{slash}D5{slash}SCL-Pad6)*%
X131660000Y-78500000D03*
%TO.P,U1,7,GPIO16/D6/TX*%
%TO.N,unconnected-(U1-GPIO16{slash}D6{slash}TX-Pad7)*%
X134200000Y-78500000D03*
%TO.P,U1,8,GPIO17/D7/RX*%
%TO.N,unconnected-(U1-GPIO17{slash}D7{slash}RX-Pad8)*%
X136740000Y-78500000D03*
%TO.P,U1,9,GPIO19/D8/SCK*%
%TO.N,unconnected-(U1-GPIO19{slash}D8{slash}SCK-Pad9)*%
X139280000Y-78500000D03*
%TO.P,U1,10,GPIO20/D9/MISO*%
%TO.N,unconnected-(U1-GPIO20{slash}D9{slash}MISO-Pad10)*%
X118780000Y-62500000D03*
%TO.P,U1,11,GPIO18/D10/MOSI*%
%TO.N,Net-(U1-GPIO18{slash}D10{slash}MOSI)*%
X121320000Y-62500000D03*
%TO.P,U1,12,3V3*%
%TO.N,Net-(U1-3V3)*%
X123860000Y-62500000D03*
%TO.P,U1,13,GND*%
%TO.N,Net-(U1-GND)*%
X126400000Y-62500000D03*
%TO.P,U1,14,VBUS*%
%TO.N,unconnected-(U1-VBUS-Pad14)*%
X128940000Y-62500000D03*
%TO.P,U1,15*%
%TO.N,N/C*%
X131480000Y-62500000D03*
%TO.P,U1,16*%
X134020000Y-62500000D03*
%TO.P,U1,17*%
X136560000Y-62500000D03*
%TO.P,U1,18*%
X139100000Y-62500000D03*
%TD*%
D11*
%TO.P,U4,1,IN*%
%TO.N,unconnected-(U4-IN-Pad1)*%
X142365700Y-77475000D03*
%TO.P,U4,2,GND*%
%TO.N,Net-(U1-3V3)*%
X144645700Y-77475000D03*
D12*
X144645700Y-71175000D03*
D11*
%TO.P,U4,3,OUT*%
%TO.N,Net-(U1-GND)*%
X146925700Y-77475000D03*
%TD*%
D13*
%TO.P,J1,0*%
%TO.N,N/C*%
X145655000Y-53580000D03*
X120655000Y-53580000D03*
D14*
%TO.P,J1,1,1*%
%TO.N,unconnected-(J1-Pad1)*%
X127615000Y-52160000D03*
D15*
%TO.P,J1,2,2*%
%TO.N,Net-(U2-CANL)*%
X130385000Y-52160000D03*
%TO.P,J1,3,3*%
%TO.N,unconnected-(J1-Pad3)*%
X133155000Y-52160000D03*
%TO.P,J1,4,4*%
%TO.N,Net-(U1-GPIO2{slash}A2{slash}D2)*%
X135925000Y-52160000D03*
%TO.P,J1,5,5*%
%TO.N,unconnected-(J1-Pad5)*%
X138695000Y-52160000D03*
%TO.P,J1,6,6*%
%TO.N,unconnected-(J1-Pad6)*%
X129000000Y-55000000D03*
%TO.P,J1,7,7*%
%TO.N,Net-(U2-CANH)*%
X131770000Y-55000000D03*
%TO.P,J1,8,8*%
%TO.N,unconnected-(J1-Pad8)*%
X134540000Y-55000000D03*
%TO.P,J1,9,9*%
%TO.N,unconnected-(J1-Pad9)*%
X137310000Y-55000000D03*
%TD*%
D16*
%TO.P,U2,1,D*%
%TO.N,Net-(U1-GPIO22{slash}D4{slash}SDA)*%
X142145700Y-62595000D03*
%TO.P,U2,2,GND*%
%TO.N,Net-(U1-3V3)*%
X142145700Y-63865000D03*
%TO.P,U2,3,VCC*%
%TO.N,Net-(U1-GPIO18{slash}D10{slash}MOSI)*%
X142145700Y-65135000D03*
%TO.P,U2,4,R*%
%TO.N,Net-(U1-GPIO21{slash}D3)*%
X142145700Y-66405000D03*
%TO.P,U2,5,Vref*%
%TO.N,unconnected-(U2-Vref-Pad5)*%
X147095700Y-66405000D03*
%TO.P,U2,6,CANL*%
%TO.N,Net-(U2-CANL)*%
X147095700Y-65135000D03*
%TO.P,U2,7,CANH*%
%TO.N,Net-(U2-CANH)*%
X147095700Y-63865000D03*
%TO.P,U2,8,Rs*%
%TO.N,unconnected-(U2-Rs-Pad8)*%
X147095700Y-62595000D03*
%TD*%
D17*
%TO.N,Net-(U1-GPIO18{slash}D10{slash}MOSI)*%
X139756000Y-65611100D03*
%TO.N,Net-(U2-CANL)*%
X148981700Y-65444700D03*
%TO.N,Net-(U1-GND)*%
X147428300Y-75374900D03*
X127067300Y-67301200D03*
%TO.N,Net-(U1-3V3)*%
X144314900Y-64504600D03*
%TD*%
D18*
%TO.N,Net-(U1-GPIO22{slash}D4{slash}SDA)*%
X148154000Y-65762300D02*
X149570000Y-67178100D01*
X146022000Y-65762300D02*
X148154000Y-65762300D01*
X145500000Y-65240700D02*
X146022000Y-65762300D01*
X145500000Y-64202600D02*
X145500000Y-65240700D01*
X143892000Y-62595000D02*
X145500000Y-64202600D01*
X142146000Y-62595000D02*
X143892000Y-62595000D01*
X142145700Y-62595000D02*
X142146000Y-62595000D01*
X138137600Y-68982400D02*
X129120000Y-78000000D01*
X138137600Y-61205900D02*
X138137600Y-68982400D01*
X138440900Y-60902600D02*
X138137600Y-61205900D01*
X140453300Y-60902600D02*
X138440900Y-60902600D01*
X142145700Y-62595000D02*
X140453300Y-60902600D01*
%TO.N,Net-(U1-GPIO18{slash}D10{slash}MOSI)*%
X141669600Y-65611100D02*
X142145700Y-65135000D01*
X139756000Y-65611100D02*
X141669600Y-65611100D01*
X139756000Y-65611100D02*
X140533400Y-65611100D01*
X140533400Y-65611100D02*
X139756000Y-65611100D01*
%TO.N,Net-(U1-GPIO2{slash}A2{slash}D2)*%
X134798300Y-53286700D02*
X135925000Y-52160000D01*
X131864800Y-53286700D02*
X134798300Y-53286700D01*
X130519100Y-54632400D02*
X131864800Y-53286700D01*
X130519100Y-57832200D02*
X130519100Y-54632400D01*
X127794000Y-60557300D02*
X130519100Y-57832200D01*
X127794000Y-74246000D02*
X127794000Y-60557300D01*
X124040000Y-78000000D02*
X127794000Y-74246000D01*
%TO.N,Net-(U2-CANL)*%
X148672000Y-65135000D02*
X148981700Y-65444700D01*
X147095700Y-65135000D02*
X148672000Y-65135000D01*
X148981700Y-65444700D02*
X148710700Y-65173700D01*
X148710700Y-65173700D02*
X148981700Y-65444700D01*
%TO.N,Net-(U1-GND)*%
X146925700Y-75877500D02*
X146925700Y-77475000D01*
X147428300Y-75374900D02*
X146925700Y-75877500D01*
X126400000Y-66633900D02*
X127067300Y-67301200D01*
X126400000Y-63000000D02*
X126400000Y-66633900D01*
X127067300Y-67301200D02*
X126400000Y-66633900D01*
X126400000Y-66633900D02*
X127067300Y-67301200D01*
X147428300Y-75374900D02*
X147051400Y-75751800D01*
X147051400Y-75751800D02*
X147428300Y-75374900D01*
%TO.N,Net-(U1-3V3)*%
X144646000Y-67945800D02*
X144646000Y-64379200D01*
X142146000Y-63865000D02*
X144132000Y-63865000D01*
X144646000Y-67945800D02*
X144646000Y-71175000D01*
X144645700Y-77475000D02*
X144645800Y-77475100D01*
X144646000Y-77475000D02*
X144645800Y-77475100D01*
X147329000Y-67945800D02*
X144646000Y-67945800D01*
X147329000Y-68484200D02*
X147329000Y-67945800D01*
X148271000Y-68484200D02*
X147329000Y-68484200D01*
X148805000Y-69018800D02*
X148271000Y-68484200D01*
X148805000Y-78115900D02*
X148805000Y-69018800D01*
X148153000Y-78768500D02*
X148805000Y-78115900D01*
X144629000Y-78768500D02*
X148153000Y-78768500D01*
X143990000Y-78130400D02*
X144629000Y-78768500D01*
X143990000Y-78130200D02*
X143990000Y-78130400D01*
X144645800Y-77475100D02*
X143990000Y-78130200D01*
X144645700Y-71175000D02*
X144646000Y-71175000D01*
X142145700Y-63865000D02*
X142146000Y-63865000D01*
X144315000Y-64504600D02*
X144543200Y-64276400D01*
X144314900Y-64504600D02*
X144315000Y-64504600D01*
X144132000Y-63865000D02*
X144543200Y-64276400D01*
X144543200Y-64276400D02*
X144646000Y-64379200D01*
X144314900Y-64504600D02*
X144315000Y-64504600D01*
X144315000Y-64504600D02*
X144314900Y-64504600D01*
%TO.N,Net-(U1-GPIO21{slash}D3)*%
X141426300Y-66405000D02*
X142145700Y-66405000D01*
X130230800Y-77600500D02*
X141426300Y-66405000D01*
X130230800Y-79720800D02*
X130230800Y-77600500D01*
X129854200Y-80097400D02*
X130230800Y-79720800D01*
X128415400Y-80097400D02*
X129854200Y-80097400D01*
X126580000Y-78262000D02*
X128415400Y-80097400D01*
X126580000Y-78000000D02*
X126580000Y-78262000D01*
%TO.N,Net-(U2-CANH)*%
X146706900Y-63865000D02*
X147095700Y-63865000D01*
X142018400Y-59176500D02*
X146706900Y-63865000D01*
X142018400Y-58095100D02*
X142018400Y-59176500D01*
X137752800Y-53829500D02*
X142018400Y-58095100D01*
X132940500Y-53829500D02*
X137752800Y-53829500D01*
X131770000Y-55000000D02*
X132940500Y-53829500D01*
%TD*%
M02*
