%TF.GenerationSoftware,KiCad,Pcbnew,9.0.6*%
%TF.CreationDate,2025-11-21T12:23:08-05:00*%
%TF.ProjectId,ESP32C6-2,45535033-3243-4362-9d32-2e6b69636164,rev?*%
%TF.SameCoordinates,Original*%
%TF.FileFunction,Legend,Top*%
%TF.FilePolarity,Positive*%
%FSLAX46Y46*%
G04 Gerber Fmt 4.6, Leading zero omitted, Abs format (unit mm)*
G04 Created by KiCad (PCBNEW 9.0.6) date 2025-11-21 12:23:08*
%MOMM*%
%LPD*%
G01*
G04 APERTURE LIST*
%ADD10C,0.150000*%
%ADD11C,0.100000*%
%ADD12C,0.120000*%
G04 APERTURE END LIST*
D10*
X139600519Y-73196904D02*
X140410042Y-73196904D01*
X140410042Y-73196904D02*
X140505280Y-73149285D01*
X140505280Y-73149285D02*
X140552900Y-73101666D01*
X140552900Y-73101666D02*
X140600519Y-73006428D01*
X140600519Y-73006428D02*
X140600519Y-72815952D01*
X140600519Y-72815952D02*
X140552900Y-72720714D01*
X140552900Y-72720714D02*
X140505280Y-72673095D01*
X140505280Y-72673095D02*
X140410042Y-72625476D01*
X140410042Y-72625476D02*
X139600519Y-72625476D01*
X139933852Y-71720714D02*
X140600519Y-71720714D01*
X139552900Y-71958809D02*
X140267185Y-72196904D01*
X140267185Y-72196904D02*
X140267185Y-71577857D01*
X143858795Y-60554819D02*
X143858795Y-61364342D01*
X143858795Y-61364342D02*
X143906414Y-61459580D01*
X143906414Y-61459580D02*
X143954033Y-61507200D01*
X143954033Y-61507200D02*
X144049271Y-61554819D01*
X144049271Y-61554819D02*
X144239747Y-61554819D01*
X144239747Y-61554819D02*
X144334985Y-61507200D01*
X144334985Y-61507200D02*
X144382604Y-61459580D01*
X144382604Y-61459580D02*
X144430223Y-61364342D01*
X144430223Y-61364342D02*
X144430223Y-60554819D01*
X144858795Y-60650057D02*
X144906414Y-60602438D01*
X144906414Y-60602438D02*
X145001652Y-60554819D01*
X145001652Y-60554819D02*
X145239747Y-60554819D01*
X145239747Y-60554819D02*
X145334985Y-60602438D01*
X145334985Y-60602438D02*
X145382604Y-60650057D01*
X145382604Y-60650057D02*
X145430223Y-60745295D01*
X145430223Y-60745295D02*
X145430223Y-60840533D01*
X145430223Y-60840533D02*
X145382604Y-60983390D01*
X145382604Y-60983390D02*
X144811176Y-61554819D01*
X144811176Y-61554819D02*
X145430223Y-61554819D01*
%TO.C,U1*%
D11*
X117280000Y-79500000D02*
X140780000Y-79500000D01*
X140780000Y-61500000D01*
X117280000Y-61500000D01*
X117280000Y-79500000D01*
D12*
%TO.C,U4*%
X141195700Y-75745000D02*
X141465700Y-75745000D01*
X148095700Y-75745000D02*
X147825700Y-75745000D01*
X141195700Y-69325000D02*
X141195700Y-75745000D01*
X148095700Y-69325000D02*
X148095700Y-75745000D01*
X141505700Y-77475000D02*
X141035700Y-77815000D01*
X141035700Y-77135000D01*
X141505700Y-77475000D01*
G36*
X141505700Y-77475000D02*
G01*
X141035700Y-77815000D01*
X141035700Y-77135000D01*
X141505700Y-77475000D01*
G37*
%TO.C,U2*%
X142560700Y-61940000D02*
X146680700Y-61940000D01*
X142560700Y-62035000D02*
X142560700Y-61940000D01*
X142560700Y-67060000D02*
X142560700Y-66965000D01*
X146680700Y-61940000D02*
X146680700Y-62035000D01*
X146680700Y-66965000D02*
X146680700Y-67060000D01*
X146680700Y-67060000D02*
X142560700Y-67060000D01*
X142020700Y-62030000D02*
X141780700Y-61700000D01*
X142260700Y-61700000D01*
X142020700Y-62030000D01*
G36*
X142020700Y-62030000D02*
G01*
X141780700Y-61700000D01*
X142260700Y-61700000D01*
X142020700Y-62030000D01*
G37*
%TD*%
M02*
