M48
; DRILL file {KiCad 9.0.6} date 2025-12-01T23:04:47-0500
; FORMAT={-:-/ absolute / metric / decimal}
; #@! TF.CreationDate,2025-12-01T23:04:47-05:00
; #@! TF.GenerationSoftware,Kicad,Pcbnew,9.0.6
; #@! TF.FileFunction,Plated,1,2,PTH
FMAT,2
METRIC
; #@! TA.AperFunction,Plated,PTH,ViaDrill
T1C0.400
; #@! TA.AperFunction,Plated,PTH,ComponentDrill
T2C0.890
; #@! TA.AperFunction,Plated,PTH,ComponentDrill
T3C1.100
; #@! TA.AperFunction,Plated,PTH,ComponentDrill
T4C1.800
; #@! TA.AperFunction,Plated,PTH,ComponentDrill
T5C3.200
%
G90
G05
T1
X115.982Y-57.888
X116.66Y-47.49
X117.0Y-71.0
X122.053Y-56.907
X127.0Y-71.0
X139.924Y-55.49
X140.0Y-70.0
X140.0Y-72.0
X140.288Y-62.263
X142.0Y-67.0
X142.0Y-73.55
X145.0Y-56.05
X145.437Y-73.222
X147.0Y-65.0
X147.0Y-77.1
X147.974Y-74.875
X148.485Y-62.666
X150.0Y-62.0
X150.249Y-68.176
X151.5Y-70.941
T2
X113.5Y-60.5
X113.68Y-75.5
X116.04Y-60.5
X116.22Y-75.5
X118.58Y-60.5
X118.76Y-75.5
X121.12Y-60.5
X121.3Y-75.5
X123.66Y-60.5
X123.84Y-75.5
X126.2Y-60.5
X126.38Y-75.5
X128.74Y-60.5
X128.92Y-75.5
X131.28Y-60.5
X131.5Y-75.5
X133.82Y-60.5
X134.0Y-75.5
X136.5Y-60.5
X136.5Y-75.5
T3
X149.368Y-48.0
X149.368Y-50.54
X149.368Y-53.08
X149.368Y-55.62
T4
X122.96Y-53.42
X124.345Y-50.58
X125.73Y-53.42
X127.115Y-50.58
X128.5Y-53.42
X129.885Y-50.58
X131.27Y-53.42
X132.655Y-50.58
X134.04Y-53.42
T5
X116.0Y-52.0
X141.0Y-52.0
M30
