%TF.GenerationSoftware,KiCad,Pcbnew,9.0.6*%
%TF.CreationDate,2025-11-22T18:42:50-05:00*%
%TF.ProjectId,ESP32C6-2,45535033-3243-4362-9d32-2e6b69636164,rev?*%
%TF.SameCoordinates,Original*%
%TF.FileFunction,Copper,L2,Bot*%
%TF.FilePolarity,Positive*%
%FSLAX46Y46*%
G04 Gerber Fmt 4.6, Leading zero omitted, Abs format (unit mm)*
G04 Created by KiCad (PCBNEW 9.0.6) date 2025-11-22 18:42:50*
%MOMM*%
%LPD*%
G01*
G04 APERTURE LIST*
G04 Aperture macros list*
%AMRoundRect*
0 Rectangle with rounded corners*
0 $1 Rounding radius*
0 $2 $3 $4 $5 $6 $7 $8 $9 X,Y pos of 4 corners*
0 Add a 4 corners polygon primitive as box body*
4,1,4,$2,$3,$4,$5,$6,$7,$8,$9,$2,$3,0*
0 Add four circle primitives for the rounded corners*
1,1,$1+$1,$2,$3*
1,1,$1+$1,$4,$5*
1,1,$1+$1,$6,$7*
1,1,$1+$1,$8,$9*
0 Add four rect primitives between the rounded corners*
20,1,$1+$1,$2,$3,$4,$5,0*
20,1,$1+$1,$4,$5,$6,$7,0*
20,1,$1+$1,$6,$7,$8,$9,0*
20,1,$1+$1,$8,$9,$2,$3,0*%
G04 Aperture macros list end*
%TA.AperFunction,ComponentPad*%
%ADD10C,4.000000*%
%TD*%
%TA.AperFunction,ComponentPad*%
%ADD11R,2.000000X2.000000*%
%TD*%
%TA.AperFunction,ComponentPad*%
%ADD12C,2.000000*%
%TD*%
%TA.AperFunction,ComponentPad*%
%ADD13RoundRect,0.225000X0.525000X-1.045000X0.525000X1.045000X-0.525000X1.045000X-0.525000X-1.045000X0*%
%TD*%
%TA.AperFunction,ComponentPad*%
%ADD14RoundRect,0.150000X0.600000X-1.120000X0.600000X1.120000X-0.600000X1.120000X-0.600000X-1.120000X0*%
%TD*%
%TA.AperFunction,ComponentPad*%
%ADD15RoundRect,0.750000X0.000010X-0.520000X0.000010X0.520000X-0.000010X0.520000X-0.000010X-0.520000X0*%
%TD*%
%TA.AperFunction,ComponentPad*%
%ADD16RoundRect,0.249999X-0.850001X0.850001X-0.850001X-0.850001X0.850001X-0.850001X0.850001X0.850001X0*%
%TD*%
%TA.AperFunction,ComponentPad*%
%ADD17C,2.200000*%
%TD*%
%TA.AperFunction,ViaPad*%
%ADD18C,0.800000*%
%TD*%
%TA.AperFunction,Conductor*%
%ADD19C,0.750000*%
%TD*%
%TA.AperFunction,Conductor*%
%ADD20C,0.250000*%
%TD*%
%TA.AperFunction,Conductor*%
%ADD21C,0.200000*%
%TD*%
%TA.AperFunction,Conductor*%
%ADD22C,0.500000*%
%TD*%
G04 APERTURE END LIST*
D10*
%TO.P,J1,0*%
%TO.N,N/C*%
X141000000Y-52000000D03*
X116000000Y-52000000D03*
D11*
%TO.P,J1,1,1*%
%TO.N,unconnected-(J1-Pad1)*%
X134040000Y-53420000D03*
D12*
%TO.P,J1,2,2*%
%TO.N,/CAN -*%
X131270000Y-53420000D03*
%TO.P,J1,3,3*%
%TO.N,unconnected-(J1-Pad3)*%
X128500000Y-53420000D03*
%TO.P,J1,4,4*%
%TO.N,Net-(J1-Pad4)*%
X125730000Y-53420000D03*
%TO.P,J1,5,5*%
%TO.N,unconnected-(J1-Pad5)*%
X122960000Y-53420000D03*
%TO.P,J1,6,6*%
%TO.N,unconnected-(J1-Pad6)*%
X132655000Y-50580000D03*
%TO.P,J1,7,7*%
%TO.N,/CAN +*%
X129885000Y-50580000D03*
%TO.P,J1,8,8*%
%TO.N,unconnected-(J1-Pad8)*%
X127115000Y-50580000D03*
%TO.P,J1,9,9*%
%TO.N,unconnected-(J1-Pad9)*%
X124345000Y-50580000D03*
%TD*%
D13*
%TO.P,U1,1,5v*%
%TO.N,Net-(J2-Pin_3)*%
X113500000Y-60000000D03*
%TO.P,U1,4,GPIO20*%
%TO.N,Net-(U1-GPIO20)*%
X121120000Y-60000000D03*
%TO.P,U1,3,3v3*%
%TO.N,Net-(U1-3v3)*%
X118580000Y-60000000D03*
%TO.P,U1,5,GPIO19*%
%TO.N,Net-(U1-GPIO19)*%
X123660000Y-60000000D03*
%TO.P,U1,2,GND*%
%TO.N,GND*%
X116040000Y-60000000D03*
%TO.P,U1,6,GPIO18*%
%TO.N,Net-(U1-GPIO18)*%
X126200000Y-60000000D03*
%TO.P,U1,8,GPIO14*%
%TO.N,unconnected-(U1-GPIO14-Pad8)*%
X131280000Y-60000000D03*
%TO.P,U1,7,GPIO15*%
%TO.N,unconnected-(U1-GPIO15-Pad7)*%
X128740000Y-60000000D03*
%TO.P,U1,10,GPIO8*%
%TO.N,unconnected-(U1-GPIO8-Pad10)*%
X136500000Y-60000000D03*
D14*
%TO.P,U1,9,GPIO9*%
%TO.N,unconnected-(U1-GPIO9-Pad9)*%
X133820000Y-60000000D03*
D13*
%TO.P,U1,14,GPIO1*%
%TO.N,unconnected-(U1-GPIO1-Pad14)*%
X121300000Y-76000000D03*
%TO.P,U1,20,GPIO7*%
%TO.N,unconnected-(U1-GPIO7-Pad20)*%
X136500000Y-76000000D03*
%TO.P,U1,19,GPIO6*%
%TO.N,unconnected-(U1-GPIO6-Pad19)*%
X134000000Y-76000000D03*
D15*
%TO.P,U1,18,GPIO5*%
%TO.N,unconnected-(U1-GPIO5-Pad18)*%
X131500000Y-76000000D03*
D13*
%TO.P,U1,17,GPIO4*%
%TO.N,unconnected-(U1-GPIO4-Pad17)*%
X128920000Y-76000000D03*
%TO.P,U1,16,GPIO3*%
%TO.N,Net-(U1-GPIO3)*%
X126380000Y-76000000D03*
%TO.P,U1,15,GPIO2*%
%TO.N,unconnected-(U1-GPIO2-Pad15)*%
X123840000Y-76000000D03*
%TO.P,U1,13,GPIO0*%
%TO.N,unconnected-(U1-GPIO0-Pad13)*%
X118760000Y-76000000D03*
%TO.P,U1,12,RX*%
%TO.N,unconnected-(U1-RX-Pad12)*%
X116220000Y-76000000D03*
%TO.P,U1,11,TX*%
%TO.N,unconnected-(U1-TX-Pad11)*%
X113680000Y-76000000D03*
%TD*%
D16*
%TO.P,J2,1,Pin_1*%
%TO.N,Net-(J2-Pin_1)*%
X149367500Y-48000000D03*
D17*
%TO.P,J2,2,Pin_2*%
%TO.N,GND*%
X149367500Y-50540000D03*
%TO.P,J2,3,Pin_3*%
%TO.N,Net-(J2-Pin_3)*%
X149367500Y-53080000D03*
%TO.P,J2,4,Pin_4*%
%TO.N,GND*%
X149367500Y-55620000D03*
%TD*%
D18*
%TO.N,GND*%
X116000000Y-68000000D03*
X138000000Y-69000000D03*
X150000000Y-62000000D03*
%TO.N,/CAN +*%
X142050000Y-62635000D03*
X138850650Y-55049999D03*
%TO.N,Net-(U1-GPIO20)*%
X147000000Y-60095000D03*
%TO.N,Net-(J2-Pin_1)*%
X146050000Y-73862500D03*
X147000000Y-76137500D03*
%TO.N,Net-(J2-Pin_3)*%
X150000000Y-67000000D03*
%TO.N,Net-(U1-GPIO3)*%
X117521050Y-49478950D03*
%TD*%
D19*
%TO.N,GND*%
X139000000Y-66000000D02*
X148000000Y-66000000D01*
X148000000Y-66000000D02*
X150000000Y-64000000D01*
X150000000Y-64000000D02*
X150000000Y-62000000D01*
X138000000Y-67000000D02*
X139000000Y-66000000D01*
X138000000Y-69000000D02*
X138000000Y-67000000D01*
D20*
%TO.N,Net-(J2-Pin_1)*%
X146050000Y-75187500D02*
X147000000Y-76137500D01*
X146050000Y-73862500D02*
X146050000Y-75187500D01*
X152000000Y-50632500D02*
X149367500Y-48000000D01*
X147862500Y-77000000D02*
X152000000Y-77000000D01*
X152000000Y-77000000D02*
X152000000Y-50632500D01*
X147000000Y-76137500D02*
X147862500Y-77000000D01*
%TO.N,Net-(U1-GPIO3)*%
X120000000Y-69120000D02*
X126380000Y-75500000D01*
X120000000Y-51957900D02*
X120000000Y-69120000D01*
X117521050Y-49478950D02*
X120000000Y-51957900D01*
D21*
%TO.N,/CAN +*%
X140000000Y-62000000D02*
X140000000Y-59991096D01*
X142050000Y-62635000D02*
X140635000Y-62635000D01*
X140635000Y-62635000D02*
X140000000Y-62000000D01*
D22*
%TO.N,Net-(J2-Pin_3)*%
X151165900Y-54000000D02*
X150245900Y-53080000D01*
X150000000Y-67000000D02*
X151165900Y-65834100D01*
X151165900Y-65834100D02*
X151165900Y-54000000D01*
D20*
X149367500Y-53080000D02*
X150245900Y-53080000D01*
D22*
%TO.N,GND*%
X148493750Y-55620000D02*
X149367500Y-55620000D01*
X148413750Y-50540000D02*
X147000000Y-51953750D01*
X149367500Y-50540000D02*
X148413750Y-50540000D01*
X147000000Y-51953750D02*
X147000000Y-54126250D01*
X147000000Y-54126250D02*
X148493750Y-55620000D01*
X116040000Y-67960000D02*
X116000000Y-68000000D01*
D19*
X116040000Y-60500000D02*
X116040000Y-67960000D01*
D21*
%TO.N,/CAN +*%
X140000000Y-59991096D02*
X140000000Y-59216802D01*
X140000000Y-56000000D02*
X139049999Y-55049999D01*
X140000000Y-59216802D02*
X140000000Y-56000000D01*
X139049999Y-55049999D02*
X138850650Y-55049999D01*
D20*
%TO.N,Net-(U1-GPIO20)*%
X125620000Y-65000000D02*
X121120000Y-60500000D01*
X145000000Y-65000000D02*
X125620000Y-65000000D01*
X146950800Y-63049200D02*
X145000000Y-65000000D01*
X146950800Y-60144200D02*
X146950800Y-63049200D01*
X147000000Y-60095000D02*
X146950800Y-60144200D01*
%TO.N,Net-(U1-GPIO18)*%
X126200000Y-59200000D02*
X126000000Y-59000000D01*
%TD*%
M02*
