%TF.GenerationSoftware,KiCad,Pcbnew,9.0.6*%
%TF.CreationDate,2025-12-01T23:04:51-05:00*%
%TF.ProjectId,ESP32C6-2,45535033-3243-4362-9d32-2e6b69636164,rev?*%
%TF.SameCoordinates,Original*%
%TF.FileFunction,Copper,L2,Bot*%
%TF.FilePolarity,Positive*%
%FSLAX46Y46*%
G04 Gerber Fmt 4.6, Leading zero omitted, Abs format (unit mm)*
G04 Created by KiCad (PCBNEW 9.0.6) date 2025-12-01 23:04:51*
%MOMM*%
%LPD*%
G01*
G04 APERTURE LIST*
G04 Aperture macros list*
%AMRoundRect*
0 Rectangle with rounded corners*
0 $1 Rounding radius*
0 $2 $3 $4 $5 $6 $7 $8 $9 X,Y pos of 4 corners*
0 Add a 4 corners polygon primitive as box body*
4,1,4,$2,$3,$4,$5,$6,$7,$8,$9,$2,$3,0*
0 Add four circle primitives for the rounded corners*
1,1,$1+$1,$2,$3*
1,1,$1+$1,$4,$5*
1,1,$1+$1,$6,$7*
1,1,$1+$1,$8,$9*
0 Add four rect primitives between the rounded corners*
20,1,$1+$1,$2,$3,$4,$5,0*
20,1,$1+$1,$4,$5,$6,$7,0*
20,1,$1+$1,$6,$7,$8,$9,0*
20,1,$1+$1,$8,$9,$2,$3,0*%
G04 Aperture macros list end*
%TA.AperFunction,ComponentPad*%
%ADD10RoundRect,0.225000X0.525000X-1.045000X0.525000X1.045000X-0.525000X1.045000X-0.525000X-1.045000X0*%
%TD*%
%TA.AperFunction,ComponentPad*%
%ADD11RoundRect,0.750000X0.000010X-0.520000X0.000010X0.520000X-0.000010X0.520000X-0.000010X-0.520000X0*%
%TD*%
%TA.AperFunction,ComponentPad*%
%ADD12RoundRect,0.150000X0.600000X-1.120000X0.600000X1.120000X-0.600000X1.120000X-0.600000X-1.120000X0*%
%TD*%
%TA.AperFunction,ComponentPad*%
%ADD13C,2.500000*%
%TD*%
%TA.AperFunction,ComponentPad*%
%ADD14R,2.500000X2.500000*%
%TD*%
%TA.AperFunction,ComponentPad*%
%ADD15C,4.000000*%
%TD*%
%TA.AperFunction,ComponentPad*%
%ADD16RoundRect,0.249999X-0.850001X0.850001X-0.850001X-0.850001X0.850001X-0.850001X0.850001X0.850001X0*%
%TD*%
%TA.AperFunction,ComponentPad*%
%ADD17C,2.200000*%
%TD*%
%TA.AperFunction,ViaPad*%
%ADD18C,0.800000*%
%TD*%
%TA.AperFunction,Conductor*%
%ADD19C,0.200000*%
%TD*%
%TA.AperFunction,Conductor*%
%ADD20C,0.250000*%
%TD*%
%TA.AperFunction,Conductor*%
%ADD21C,0.500000*%
%TD*%
%TA.AperFunction,Conductor*%
%ADD22C,1.000000*%
%TD*%
G04 APERTURE END LIST*
D10*
%TO.P,U1,20,GPIO7*%
%TO.N,unconnected-(U1-GPIO7-Pad20)*%
X136500000Y-76000000D03*
%TO.P,U1,19,GPIO6*%
%TO.N,unconnected-(U1-GPIO6-Pad19)*%
X134000000Y-76000000D03*
D11*
%TO.P,U1,18,GPIO5*%
%TO.N,unconnected-(U1-GPIO5-Pad18)*%
X131500000Y-76000000D03*
D10*
%TO.P,U1,17,GPIO4*%
%TO.N,unconnected-(U1-GPIO4-Pad17)*%
X128920000Y-76000000D03*
%TO.P,U1,16,GPIO3*%
%TO.N,Net-(U1-GPIO3)*%
X126380000Y-76000000D03*
%TO.P,U1,15,GPIO2*%
%TO.N,unconnected-(U1-GPIO2-Pad15)*%
X123840000Y-76000000D03*
%TO.P,U1,14,GPIO1*%
%TO.N,unconnected-(U1-GPIO1-Pad14)*%
X121300000Y-76000000D03*
%TO.P,U1,13,GPIO0*%
%TO.N,unconnected-(U1-GPIO0-Pad13)*%
X118760000Y-76000000D03*
%TO.P,U1,12,RX*%
%TO.N,unconnected-(U1-RX-Pad12)*%
X116220000Y-76000000D03*
%TO.P,U1,11,TX*%
%TO.N,unconnected-(U1-TX-Pad11)*%
X113680000Y-76000000D03*
%TO.P,U1,10,GPIO8*%
%TO.N,unconnected-(U1-GPIO8-Pad10)*%
X136500000Y-60000000D03*
D12*
%TO.P,U1,9,GPIO9*%
%TO.N,unconnected-(U1-GPIO9-Pad9)*%
X133820000Y-60000000D03*
D10*
%TO.P,U1,8,GPIO14*%
%TO.N,unconnected-(U1-GPIO14-Pad8)*%
X131280000Y-60000000D03*
%TO.P,U1,7,GPIO15*%
%TO.N,unconnected-(U1-GPIO15-Pad7)*%
X128740000Y-60000000D03*
%TO.P,U1,6,GPIO18*%
%TO.N,Net-(U1-GPIO18)*%
X126200000Y-60000000D03*
%TO.P,U1,5,GPIO19*%
%TO.N,Net-(U1-GPIO19)*%
X123660000Y-60000000D03*
%TO.P,U1,4,GPIO20*%
%TO.N,Net-(U1-GPIO20)*%
X121120000Y-60000000D03*
%TO.P,U1,3,3v3*%
%TO.N,Net-(U1-3v3)*%
X118580000Y-60000000D03*
%TO.P,U1,2,GND*%
%TO.N,GND*%
X116040000Y-60000000D03*
%TO.P,U1,1,5v*%
%TO.N,Net-(J2-Pin_3)*%
X113500000Y-60000000D03*
%TD*%
D13*
%TO.P,J1,9,9*%
%TO.N,unconnected-(J1-Pad9)*%
X124345000Y-50580000D03*
%TO.P,J1,8,8*%
%TO.N,unconnected-(J1-Pad8)*%
X127115000Y-50580000D03*
%TO.P,J1,7,7*%
%TO.N,/CAN +*%
X129885000Y-50580000D03*
%TO.P,J1,6,6*%
%TO.N,unconnected-(J1-Pad6)*%
X132655000Y-50580000D03*
%TO.P,J1,5,5*%
%TO.N,unconnected-(J1-Pad5)*%
X122960000Y-53420000D03*
%TO.P,J1,4,4*%
%TO.N,Net-(J1-Pad4)*%
X125730000Y-53420000D03*
%TO.P,J1,3,3*%
%TO.N,unconnected-(J1-Pad3)*%
X128500000Y-53420000D03*
%TO.P,J1,2,2*%
%TO.N,/CAN -*%
X131270000Y-53420000D03*
D14*
%TO.P,J1,1,1*%
%TO.N,unconnected-(J1-Pad1)*%
X134040000Y-53420000D03*
D15*
%TO.P,J1,0*%
%TO.N,N/C*%
X116000000Y-52000000D03*
X141000000Y-52000000D03*
%TD*%
D16*
%TO.P,J2,1,Pin_1*%
%TO.N,Net-(J2-Pin_1)*%
X149367500Y-48000000D03*
D17*
%TO.P,J2,2,Pin_2*%
%TO.N,GND*%
X149367500Y-50540000D03*
%TO.P,J2,3,Pin_3*%
%TO.N,Net-(J2-Pin_3)*%
X149367500Y-53080000D03*
%TO.P,J2,4,Pin_4*%
%TO.N,GND*%
X149367500Y-55620000D03*
%TD*%
D18*
%TO.N,GND*%
X122052734Y-56907291D03*
X115981864Y-57888236D03*
X140000000Y-70000000D03*
X142000000Y-73549833D03*
X140000000Y-72000000D03*
X127000000Y-71000000D03*
X145000000Y-56049999D03*
X148484867Y-62666187D03*
%TO.N,Net-(J2-Pin_3)*%
X142000000Y-67000000D03*
%TO.N,Net-(J2-Pin_1)*%
X150249337Y-68175654D03*
%TO.N,Net-(U1-GPIO20)*%
X147000000Y-65000000D03*
%TO.N,Net-(U1-GPIO3)*%
X116660000Y-47490000D03*
%TO.N,GND*%
X151500000Y-70941215D03*
X147973852Y-74875000D03*
X117000000Y-71000000D03*
%TO.N,Net-(J2-Pin_1)*%
X147000000Y-77100000D03*
X145437349Y-73221863D03*
%TO.N,/CAN +*%
X139923587Y-55490000D03*
X140287937Y-62262632D03*
%TO.N,GND*%
X150000000Y-62000000D03*
%TD*%
D19*
%TO.N,/CAN +*%
X140322368Y-62262632D02*
X140287937Y-62262632D01*
X141000000Y-61585000D02*
X140322368Y-62262632D01*
X141000000Y-56566413D02*
X141000000Y-61585000D01*
X139923587Y-55490000D02*
X141000000Y-56566413D01*
D20*
%TO.N,Net-(U1-GPIO20)*%
X124525000Y-63905000D02*
X121120000Y-60500000D01*
X147000000Y-65000000D02*
X145905000Y-63905000D01*
X145905000Y-63905000D02*
X124525000Y-63905000D01*
D21*
%TO.N,Net-(J2-Pin_1)*%
X151424991Y-67000000D02*
X150249337Y-68175654D01*
X152384921Y-67000000D02*
X151424991Y-67000000D01*
X146050000Y-73834514D02*
X146050000Y-75187500D01*
X147198770Y-76901230D02*
X147000000Y-77100000D01*
X145437349Y-73221863D02*
X146050000Y-73834514D01*
X146050000Y-75187500D02*
X147198770Y-76336270D01*
X147198770Y-76336270D02*
X147198770Y-76901230D01*
X152384921Y-77000000D02*
X152384921Y-67000000D01*
X147862500Y-77000000D02*
X152384921Y-77000000D01*
X147000000Y-77100000D02*
X147762500Y-77100000D01*
X147762500Y-77100000D02*
X147862500Y-77000000D01*
D22*
%TO.N,GND*%
X117000000Y-70920000D02*
X117000000Y-71000000D01*
D21*
%TO.N,Net-(J2-Pin_3)*%
X148178355Y-67000000D02*
X142000000Y-67000000D01*
X151165900Y-64012455D02*
X148178355Y-67000000D01*
X151165900Y-54000000D02*
X151165900Y-64012455D01*
%TO.N,Net-(J2-Pin_1)*%
X152384921Y-67000000D02*
X152384921Y-51017421D01*
D20*
%TO.N,Net-(U1-GPIO3)*%
X117042100Y-47872100D02*
X117042100Y-49000000D01*
X117042100Y-49000000D02*
X119824154Y-51782054D01*
X119824154Y-68944154D02*
X126380000Y-75500000D01*
X116660000Y-47490000D02*
X117042100Y-47872100D01*
X119824154Y-51782054D02*
X119824154Y-68944154D01*
%TO.N,Net-(U1-GPIO18)*%
X126200000Y-59200000D02*
X126000000Y-59000000D01*
D21*
%TO.N,Net-(J2-Pin_3)*%
X149367500Y-53080000D02*
X150245900Y-53080000D01*
X151165900Y-54000000D02*
X150245900Y-53080000D01*
%TO.N,Net-(J2-Pin_1)*%
X152384921Y-51017421D02*
X149367500Y-48000000D01*
%TD*%
%TA.AperFunction,Conductor*%
%TO.N,GND*%
G36*
X152942539Y-45520185D02*
G01*
X152988294Y-45572989D01*
X152999500Y-45624500D01*
X152999500Y-50259956D01*
X152979815Y-50326995D01*
X152927011Y-50372750D01*
X152857853Y-50382694D01*
X152794297Y-50353669D01*
X152787819Y-50347637D01*
X151012319Y-48572137D01*
X150978834Y-48510814D01*
X150976000Y-48484456D01*
X150976000Y-47099459D01*
X150975999Y-47099446D01*
X150971935Y-47059667D01*
X150965387Y-46995573D01*
X150909615Y-46827261D01*
X150909611Y-46827255D01*
X150909610Y-46827252D01*
X150816532Y-46676351D01*
X150816529Y-46676347D01*
X150691152Y-46550970D01*
X150691148Y-46550967D01*
X150540247Y-46457889D01*
X150540241Y-46457886D01*
X150540239Y-46457885D01*
X150540236Y-46457884D01*
X150371928Y-46402113D01*
X150268053Y-46391500D01*
X150268046Y-46391500D01*
X148466954Y-46391500D01*
X148466946Y-46391500D01*
X148363071Y-46402113D01*
X148194763Y-46457884D01*
X148194752Y-46457889D01*
X148043851Y-46550967D01*
X148043847Y-46550970D01*
X147918470Y-46676347D01*
X147918467Y-46676351D01*
X147825389Y-46827252D01*
X147825384Y-46827263D01*
X147769613Y-46995571D01*
X147759000Y-47099446D01*
X147759000Y-48900553D01*
X147769613Y-49004428D01*
X147825384Y-49172736D01*
X147825389Y-49172747D01*
X147918467Y-49323648D01*
X147918470Y-49323652D01*
X148043847Y-49449029D01*
X148043851Y-49449032D01*
X148194752Y-49542110D01*
X148194754Y-49542110D01*
X148194761Y-49542115D01*
X148218349Y-49549931D01*
X148275792Y-49589701D01*
X148302616Y-49654217D01*
X148290302Y-49722993D01*
X148279663Y-49740520D01*
X148212878Y-49832443D01*
X148116404Y-50021782D01*
X148050742Y-50223869D01*
X148050742Y-50223872D01*
X148017500Y-50433753D01*
X148017500Y-50646246D01*
X148050742Y-50856127D01*
X148050742Y-50856130D01*
X148116404Y-51058217D01*
X148116406Y-51058220D01*
X148184771Y-51192396D01*
X148817500Y-50559667D01*
X148817500Y-50612409D01*
X148854982Y-50752292D01*
X148927390Y-50877708D01*
X149029792Y-50980110D01*
X149155208Y-51052518D01*
X149295091Y-51090000D01*
X149347830Y-51090000D01*
X148916913Y-51520915D01*
X148867551Y-51551165D01*
X148750045Y-51589345D01*
X148524461Y-51704287D01*
X148407598Y-51789193D01*
X148319632Y-51853105D01*
X148319630Y-51853107D01*
X148319629Y-51853107D01*
X148140607Y-52032129D01*
X148140607Y-52032130D01*
X148140605Y-52032132D01*
X148113483Y-52069462D01*
X147991787Y-52236961D01*
X147876845Y-52462547D01*
X147798606Y-52703341D01*
X147759000Y-52953402D01*
X147759000Y-53206597D01*
X147774545Y-53304742D01*
X147798606Y-53456658D01*
X147876844Y-53697450D01*
X147991787Y-53923038D01*
X148140605Y-54127868D01*
X148319632Y-54306895D01*
X148524462Y-54455713D01*
X148566150Y-54476954D01*
X148750049Y-54570656D01*
X148750055Y-54570658D01*
X148867550Y-54608834D01*
X148916914Y-54639084D01*
X149347830Y-55070000D01*
X149295091Y-55070000D01*
X149155208Y-55107482D01*
X149029792Y-55179890D01*
X148927390Y-55282292D01*
X148854982Y-55407708D01*
X148817500Y-55547591D01*
X148817500Y-55600330D01*
X148184771Y-54967601D01*
X148116405Y-55101780D01*
X148116405Y-55101781D01*
X148050742Y-55303869D01*
X148050742Y-55303872D01*
X148017500Y-55513753D01*
X148017500Y-55726246D01*
X148050742Y-55936127D01*
X148050742Y-55936130D01*
X148116404Y-56138217D01*
X148116406Y-56138220D01*
X148184772Y-56272397D01*
X148817500Y-55639669D01*
X148817500Y-55692409D01*
X148854982Y-55832292D01*
X148927390Y-55957708D01*
X149029792Y-56060110D01*
X149155208Y-56132518D01*
X149295091Y-56170000D01*
X149347828Y-56170000D01*
X148715102Y-56802726D01*
X148849279Y-56871094D01*
X148849282Y-56871095D01*
X149051371Y-56936757D01*
X149261254Y-56970000D01*
X149473746Y-56970000D01*
X149683627Y-56936757D01*
X149683630Y-56936757D01*
X149885717Y-56871095D01*
X150075057Y-56774620D01*
X150210515Y-56676206D01*
X150276321Y-56652726D01*
X150344375Y-56668552D01*
X150393070Y-56718657D01*
X150407400Y-56776524D01*
X150407400Y-63646912D01*
X150387715Y-63713951D01*
X150371081Y-63734593D01*
X147900493Y-66205181D01*
X147839170Y-66238666D01*
X147812812Y-66241500D01*
X142537696Y-66241500D01*
X142470657Y-66221815D01*
X142468846Y-66220629D01*
X142430336Y-66194898D01*
X142430332Y-66194896D01*
X142265000Y-66126413D01*
X142264992Y-66126411D01*
X142089483Y-66091500D01*
X142089479Y-66091500D01*
X141910521Y-66091500D01*
X141910516Y-66091500D01*
X141735007Y-66126411D01*
X141734999Y-66126413D01*
X141569667Y-66194896D01*
X141569657Y-66194901D01*
X141420865Y-66294321D01*
X141420861Y-66294324D01*
X141294324Y-66420861D01*
X141294321Y-66420865D01*
X141194901Y-66569657D01*
X141194896Y-66569667D01*
X141126413Y-66734999D01*
X141126411Y-66735007D01*
X141091500Y-66910516D01*
X141091500Y-67089483D01*
X141126411Y-67264992D01*
X141126413Y-67265000D01*
X141194896Y-67430332D01*
X141194901Y-67430342D01*
X141294321Y-67579134D01*
X141294324Y-67579138D01*
X141420861Y-67705675D01*
X141420865Y-67705678D01*
X141569657Y-67805098D01*
X141569661Y-67805100D01*
X141569664Y-67805102D01*
X141735000Y-67873587D01*
X141910516Y-67908499D01*
X141910520Y-67908500D01*
X141910521Y-67908500D01*
X142089480Y-67908500D01*
X142089481Y-67908499D01*
X142265000Y-67873587D01*
X142430336Y-67805102D01*
X142468805Y-67779397D01*
X142535482Y-67758520D01*
X142537696Y-67758500D01*
X148253061Y-67758500D01*
X148326331Y-67743925D01*
X148326332Y-67743925D01*
X148344774Y-67740256D01*
X148399602Y-67729351D01*
X148537639Y-67672174D01*
X148661870Y-67589166D01*
X151414740Y-64836296D01*
X151476063Y-64802811D01*
X151545755Y-64807795D01*
X151601688Y-64849667D01*
X151626105Y-64915131D01*
X151626421Y-64923977D01*
X151626421Y-66117500D01*
X151606736Y-66184539D01*
X151553932Y-66230294D01*
X151502421Y-66241500D01*
X151350281Y-66241500D01*
X151277015Y-66256074D01*
X151203751Y-66270647D01*
X151203743Y-66270649D01*
X151065708Y-66327825D01*
X150941473Y-66410835D01*
X150093204Y-67259104D01*
X150031881Y-67292589D01*
X150029715Y-67293040D01*
X149984342Y-67302065D01*
X149984336Y-67302067D01*
X149819004Y-67370550D01*
X149818994Y-67370555D01*
X149670202Y-67469975D01*
X149670198Y-67469978D01*
X149543661Y-67596515D01*
X149543658Y-67596519D01*
X149444238Y-67745311D01*
X149444233Y-67745321D01*
X149375750Y-67910653D01*
X149375748Y-67910661D01*
X149340837Y-68086170D01*
X149340837Y-68265137D01*
X149375748Y-68440646D01*
X149375750Y-68440654D01*
X149444233Y-68605986D01*
X149444238Y-68605996D01*
X149543658Y-68754788D01*
X149543661Y-68754792D01*
X149670198Y-68881329D01*
X149670202Y-68881332D01*
X149818994Y-68980752D01*
X149818998Y-68980754D01*
X149819001Y-68980756D01*
X149984337Y-69049241D01*
X150159853Y-69084153D01*
X150159857Y-69084154D01*
X150159858Y-69084154D01*
X150338817Y-69084154D01*
X150338818Y-69084153D01*
X150514337Y-69049241D01*
X150679673Y-68980756D01*
X150828472Y-68881332D01*
X150955015Y-68754789D01*
X151054439Y-68605990D01*
X151122924Y-68440654D01*
X151131950Y-68395273D01*
X151164333Y-68333364D01*
X151165825Y-68331845D01*
X151414741Y-68082930D01*
X151476063Y-68049446D01*
X151545755Y-68054430D01*
X151601688Y-68096302D01*
X151626105Y-68161766D01*
X151626421Y-68170612D01*
X151626421Y-76117500D01*
X151606736Y-76184539D01*
X151553932Y-76230294D01*
X151502421Y-76241500D01*
X148055043Y-76241500D01*
X147988004Y-76221815D01*
X147942249Y-76169011D01*
X147933426Y-76141693D01*
X147931326Y-76131138D01*
X147928121Y-76115024D01*
X147925138Y-76107821D01*
X147925135Y-76107813D01*
X147925135Y-76107812D01*
X147870945Y-75976988D01*
X147870944Y-75976985D01*
X147870942Y-75976982D01*
X147870940Y-75976978D01*
X147787936Y-75852755D01*
X147787933Y-75852751D01*
X146844819Y-74909637D01*
X146811334Y-74848314D01*
X146808500Y-74821956D01*
X146808500Y-73759805D01*
X146779352Y-73613273D01*
X146779351Y-73613272D01*
X146779351Y-73613268D01*
X146726993Y-73486863D01*
X146722177Y-73475236D01*
X146722170Y-73475223D01*
X146639166Y-73350999D01*
X146599509Y-73311342D01*
X146533516Y-73245349D01*
X146353898Y-73065731D01*
X146320413Y-73004408D01*
X146319977Y-73002319D01*
X146310936Y-72956863D01*
X146242451Y-72791527D01*
X146242449Y-72791524D01*
X146242447Y-72791520D01*
X146143027Y-72642728D01*
X146143024Y-72642724D01*
X146016487Y-72516187D01*
X146016483Y-72516184D01*
X145867691Y-72416764D01*
X145867681Y-72416759D01*
X145702349Y-72348276D01*
X145702341Y-72348274D01*
X145526832Y-72313363D01*
X145526828Y-72313363D01*
X145347870Y-72313363D01*
X145347865Y-72313363D01*
X145172356Y-72348274D01*
X145172348Y-72348276D01*
X145007016Y-72416759D01*
X145007006Y-72416764D01*
X144858214Y-72516184D01*
X144858210Y-72516187D01*
X144731673Y-72642724D01*
X144731670Y-72642728D01*
X144632250Y-72791520D01*
X144632245Y-72791530D01*
X144563762Y-72956862D01*
X144563760Y-72956870D01*
X144528849Y-73132379D01*
X144528849Y-73311346D01*
X144563760Y-73486855D01*
X144563762Y-73486863D01*
X144632245Y-73652195D01*
X144632250Y-73652205D01*
X144731670Y-73800997D01*
X144731673Y-73801001D01*
X144858210Y-73927538D01*
X144858214Y-73927541D01*
X145007006Y-74026961D01*
X145007010Y-74026963D01*
X145007013Y-74026965D01*
X145172349Y-74095450D01*
X145191689Y-74099297D01*
X145253600Y-74131680D01*
X145288176Y-74192394D01*
X145291500Y-74220914D01*
X145291500Y-75262209D01*
X145320647Y-75408739D01*
X145320649Y-75408747D01*
X145377825Y-75546782D01*
X145460835Y-75671017D01*
X145460836Y-75671018D01*
X146228917Y-76439098D01*
X146262402Y-76500421D01*
X146257418Y-76570112D01*
X146244339Y-76595669D01*
X146194900Y-76669659D01*
X146194896Y-76669667D01*
X146126413Y-76834999D01*
X146126411Y-76835007D01*
X146091500Y-77010516D01*
X146091500Y-77189483D01*
X146123689Y-77351309D01*
X146117462Y-77420901D01*
X146074598Y-77476078D01*
X146008709Y-77499322D01*
X146002072Y-77499500D01*
X137818835Y-77499500D01*
X137751796Y-77479815D01*
X137706041Y-77427011D01*
X137696097Y-77357853D01*
X137701127Y-77336503D01*
X137748236Y-77194336D01*
X137758500Y-77093872D01*
X137758500Y-74906128D01*
X137748236Y-74805664D01*
X137694302Y-74642899D01*
X137694298Y-74642893D01*
X137694297Y-74642890D01*
X137604287Y-74496963D01*
X137604284Y-74496959D01*
X137483040Y-74375715D01*
X137483036Y-74375712D01*
X137337109Y-74285702D01*
X137337103Y-74285699D01*
X137337101Y-74285698D01*
X137174336Y-74231764D01*
X137073879Y-74221500D01*
X137073872Y-74221500D01*
X135926128Y-74221500D01*
X135926120Y-74221500D01*
X135825663Y-74231764D01*
X135662901Y-74285697D01*
X135662890Y-74285702D01*
X135516963Y-74375712D01*
X135516959Y-74375715D01*
X135395714Y-74496960D01*
X135355538Y-74562096D01*
X135303590Y-74608820D01*
X135234627Y-74620041D01*
X135170545Y-74592197D01*
X135144462Y-74562096D01*
X135104285Y-74496960D01*
X134983040Y-74375715D01*
X134983036Y-74375712D01*
X134837109Y-74285702D01*
X134837103Y-74285699D01*
X134837101Y-74285698D01*
X134674336Y-74231764D01*
X134573879Y-74221500D01*
X134573872Y-74221500D01*
X133426128Y-74221500D01*
X133426120Y-74221500D01*
X133325663Y-74231764D01*
X133162901Y-74285697D01*
X133162890Y-74285702D01*
X133016963Y-74375712D01*
X133016959Y-74375715D01*
X132895715Y-74496959D01*
X132895712Y-74496963D01*
X132805702Y-74642890D01*
X132805698Y-74642899D01*
X132769108Y-74753320D01*
X132729335Y-74810764D01*
X132664819Y-74837587D01*
X132596043Y-74825272D01*
X132549474Y-74784931D01*
X132469985Y-74670196D01*
X132309803Y-74510014D01*
X132123595Y-74381008D01*
X131917338Y-74287321D01*
X131770891Y-74250420D01*
X131697669Y-74231970D01*
X131675496Y-74230225D01*
X131564641Y-74221500D01*
X131564636Y-74221500D01*
X131435364Y-74221500D01*
X131435358Y-74221500D01*
X131302331Y-74231970D01*
X131082661Y-74287321D01*
X130876404Y-74381008D01*
X130690196Y-74510014D01*
X130530014Y-74670196D01*
X130401009Y-74856401D01*
X130399870Y-74858411D01*
X130399104Y-74859151D01*
X130397834Y-74860986D01*
X130397470Y-74860733D01*
X130349667Y-74907006D01*
X130281161Y-74920745D01*
X130216103Y-74895265D01*
X130175147Y-74838658D01*
X130168661Y-74809823D01*
X130168236Y-74805663D01*
X130150258Y-74751409D01*
X130114302Y-74642899D01*
X130114298Y-74642893D01*
X130114297Y-74642890D01*
X130024287Y-74496963D01*
X130024284Y-74496959D01*
X129903040Y-74375715D01*
X129903036Y-74375712D01*
X129757109Y-74285702D01*
X129757103Y-74285699D01*
X129757101Y-74285698D01*
X129594336Y-74231764D01*
X129493879Y-74221500D01*
X129493872Y-74221500D01*
X128346128Y-74221500D01*
X128346120Y-74221500D01*
X128245663Y-74231764D01*
X128082901Y-74285697D01*
X128082890Y-74285702D01*
X127936963Y-74375712D01*
X127936959Y-74375715D01*
X127815714Y-74496960D01*
X127755538Y-74594521D01*
X127703590Y-74641245D01*
X127634627Y-74652466D01*
X127570545Y-74624623D01*
X127544462Y-74594521D01*
X127484285Y-74496960D01*
X127363040Y-74375715D01*
X127363036Y-74375712D01*
X127217109Y-74285702D01*
X127217103Y-74285699D01*
X127217101Y-74285698D01*
X127054336Y-74231764D01*
X126953879Y-74221500D01*
X126953872Y-74221500D01*
X126048766Y-74221500D01*
X125981727Y-74201815D01*
X125961085Y-74185181D01*
X120493973Y-68718069D01*
X120460488Y-68656746D01*
X120457654Y-68630388D01*
X120457654Y-61902500D01*
X120477339Y-61835461D01*
X120530143Y-61789706D01*
X120581654Y-61778500D01*
X121451234Y-61778500D01*
X121518273Y-61798185D01*
X121538915Y-61814819D01*
X124032929Y-64308833D01*
X124121167Y-64397071D01*
X124121168Y-64397072D01*
X124224918Y-64466396D01*
X124224924Y-64466399D01*
X124224925Y-64466400D01*
X124340215Y-64514155D01*
X124462601Y-64538499D01*
X124462605Y-64538500D01*
X124462606Y-64538500D01*
X145591234Y-64538500D01*
X145658273Y-64558185D01*
X145678915Y-64574819D01*
X146055181Y-64951085D01*
X146088666Y-65012408D01*
X146091500Y-65038766D01*
X146091500Y-65089483D01*
X146126411Y-65264992D01*
X146126413Y-65265000D01*
X146194896Y-65430332D01*
X146194901Y-65430342D01*
X146294321Y-65579134D01*
X146294324Y-65579138D01*
X146420861Y-65705675D01*
X146420865Y-65705678D01*
X146569657Y-65805098D01*
X146569661Y-65805100D01*
X146569664Y-65805102D01*
X146735000Y-65873587D01*
X146910516Y-65908499D01*
X146910520Y-65908500D01*
X146910521Y-65908500D01*
X147089480Y-65908500D01*
X147089481Y-65908499D01*
X147265000Y-65873587D01*
X147430336Y-65805102D01*
X147579135Y-65705678D01*
X147705678Y-65579135D01*
X147805102Y-65430336D01*
X147873587Y-65265000D01*
X147908500Y-65089479D01*
X147908500Y-64910521D01*
X147873587Y-64735000D01*
X147805102Y-64569664D01*
X147805100Y-64569661D01*
X147805098Y-64569657D01*
X147705678Y-64420865D01*
X147705675Y-64420861D01*
X147579138Y-64294324D01*
X147579134Y-64294321D01*
X147430342Y-64194901D01*
X147430332Y-64194896D01*
X147265000Y-64126413D01*
X147264992Y-64126411D01*
X147089483Y-64091500D01*
X147089479Y-64091500D01*
X147038766Y-64091500D01*
X146971727Y-64071815D01*
X146951085Y-64055181D01*
X146308836Y-63412931D01*
X146308832Y-63412928D01*
X146205081Y-63343603D01*
X146205072Y-63343598D01*
X146089785Y-63295845D01*
X146089777Y-63295843D01*
X145967398Y-63271500D01*
X145967394Y-63271500D01*
X140822090Y-63271500D01*
X140755051Y-63251815D01*
X140709296Y-63199011D01*
X140699352Y-63129853D01*
X140728377Y-63066297D01*
X140753199Y-63044398D01*
X140812792Y-63004578D01*
X140867072Y-62968310D01*
X140993615Y-62841767D01*
X141093039Y-62692968D01*
X141161524Y-62527632D01*
X141196437Y-62352111D01*
X141196437Y-62300474D01*
X141216122Y-62233435D01*
X141232756Y-62212793D01*
X141272401Y-62173148D01*
X141486921Y-61958628D01*
X141567032Y-61819872D01*
X141608500Y-61665111D01*
X141608500Y-56486302D01*
X141567032Y-56331541D01*
X141490221Y-56198500D01*
X141486922Y-56192786D01*
X140868406Y-55574270D01*
X140834921Y-55512947D01*
X140832087Y-55486589D01*
X140832087Y-55400520D01*
X140832086Y-55400516D01*
X140797175Y-55225007D01*
X140797174Y-55225000D01*
X140728689Y-55059664D01*
X140728687Y-55059661D01*
X140728685Y-55059657D01*
X140629265Y-54910865D01*
X140629262Y-54910861D01*
X140502725Y-54784324D01*
X140502721Y-54784321D01*
X140353929Y-54684901D01*
X140353917Y-54684895D01*
X140317527Y-54669821D01*
X140263125Y-54625979D01*
X140241061Y-54559685D01*
X140258341Y-54491986D01*
X140309480Y-54444376D01*
X140378239Y-54431972D01*
X140392561Y-54434367D01*
X140579148Y-54476955D01*
X140579156Y-54476955D01*
X140579161Y-54476957D01*
X140779882Y-54499571D01*
X140859120Y-54508499D01*
X140859123Y-54508500D01*
X140859126Y-54508500D01*
X141140877Y-54508500D01*
X141140878Y-54508499D01*
X141262364Y-54494811D01*
X141420838Y-54476957D01*
X141420841Y-54476956D01*
X141420852Y-54476955D01*
X141695536Y-54414260D01*
X141961474Y-54321204D01*
X141976058Y-54314181D01*
X142215315Y-54198961D01*
X142215315Y-54198960D01*
X142215321Y-54198958D01*
X142453884Y-54049058D01*
X142674164Y-53873391D01*
X142873391Y-53674164D01*
X143049058Y-53453884D01*
X143198958Y-53215321D01*
X143214913Y-53182191D01*
X143321197Y-52961489D01*
X143321198Y-52961485D01*
X143321204Y-52961474D01*
X143414260Y-52695536D01*
X143476955Y-52420852D01*
X143508500Y-52140874D01*
X143508500Y-51859126D01*
X143508499Y-51859121D01*
X143508499Y-51859119D01*
X143507821Y-51853105D01*
X143496346Y-51751251D01*
X143476957Y-51579161D01*
X143476955Y-51579156D01*
X143476955Y-51579148D01*
X143414260Y-51304464D01*
X143411047Y-51295283D01*
X143321206Y-51038532D01*
X143321197Y-51038510D01*
X143198961Y-50784684D01*
X143142775Y-50695265D01*
X143049058Y-50546116D01*
X142873391Y-50325836D01*
X142674164Y-50126609D01*
X142453884Y-49950942D01*
X142215321Y-49801042D01*
X142215322Y-49801042D01*
X142215315Y-49801038D01*
X141961489Y-49678802D01*
X141961467Y-49678793D01*
X141695547Y-49585743D01*
X141695535Y-49585739D01*
X141483546Y-49537354D01*
X141420852Y-49523045D01*
X141420850Y-49523044D01*
X141420838Y-49523042D01*
X141140880Y-49491500D01*
X141140874Y-49491500D01*
X140859126Y-49491500D01*
X140859119Y-49491500D01*
X140579161Y-49523042D01*
X140579148Y-49523045D01*
X140304464Y-49585739D01*
X140304452Y-49585743D01*
X140038532Y-49678793D01*
X140038510Y-49678802D01*
X139784684Y-49801038D01*
X139546117Y-49950941D01*
X139325836Y-50126608D01*
X139126608Y-50325836D01*
X138950941Y-50546117D01*
X138801038Y-50784684D01*
X138678802Y-51038510D01*
X138678793Y-51038532D01*
X138585743Y-51304452D01*
X138585739Y-51304464D01*
X138523045Y-51579148D01*
X138523042Y-51579161D01*
X138491500Y-51859119D01*
X138491500Y-52140880D01*
X138523042Y-52420838D01*
X138523044Y-52420850D01*
X138523045Y-52420852D01*
X138537354Y-52483546D01*
X138585739Y-52695535D01*
X138585743Y-52695547D01*
X138678793Y-52961467D01*
X138678802Y-52961489D01*
X138801038Y-53215315D01*
X138801042Y-53215321D01*
X138950942Y-53453884D01*
X139126609Y-53674164D01*
X139325836Y-53873391D01*
X139546116Y-54049058D01*
X139671544Y-54127870D01*
X139784684Y-54198961D01*
X140038510Y-54321197D01*
X140038519Y-54321200D01*
X140038526Y-54321204D01*
X140038532Y-54321206D01*
X140129536Y-54353050D01*
X140186312Y-54393771D01*
X140212059Y-54458724D01*
X140198603Y-54527286D01*
X140150215Y-54577688D01*
X140082260Y-54593930D01*
X140064391Y-54591709D01*
X140048374Y-54588523D01*
X140013066Y-54581500D01*
X139834108Y-54581500D01*
X139834103Y-54581500D01*
X139658594Y-54616411D01*
X139658586Y-54616413D01*
X139493254Y-54684896D01*
X139493244Y-54684901D01*
X139344452Y-54784321D01*
X139344448Y-54784324D01*
X139217911Y-54910861D01*
X139217908Y-54910865D01*
X139118488Y-55059657D01*
X139118483Y-55059667D01*
X139050000Y-55224999D01*
X139049998Y-55225007D01*
X139015087Y-55400516D01*
X139015087Y-55579483D01*
X139049998Y-55754992D01*
X139050000Y-55755000D01*
X139118483Y-55920332D01*
X139118488Y-55920342D01*
X139217908Y-56069134D01*
X139217911Y-56069138D01*
X139344448Y-56195675D01*
X139344452Y-56195678D01*
X139493244Y-56295098D01*
X139493248Y-56295100D01*
X139493251Y-56295102D01*
X139658587Y-56363587D01*
X139834103Y-56398499D01*
X139834107Y-56398500D01*
X139834108Y-56398500D01*
X139920176Y-56398500D01*
X139987215Y-56418185D01*
X140007857Y-56434819D01*
X140355181Y-56782143D01*
X140388666Y-56843466D01*
X140391500Y-56869824D01*
X140391500Y-61230132D01*
X140371815Y-61297171D01*
X140319011Y-61342926D01*
X140267500Y-61354132D01*
X140198453Y-61354132D01*
X140022944Y-61389043D01*
X140022936Y-61389045D01*
X139857604Y-61457528D01*
X139857594Y-61457533D01*
X139708802Y-61556953D01*
X139708798Y-61556956D01*
X139582261Y-61683493D01*
X139582258Y-61683497D01*
X139482838Y-61832289D01*
X139482833Y-61832299D01*
X139414350Y-61997631D01*
X139414348Y-61997639D01*
X139379437Y-62173148D01*
X139379437Y-62352115D01*
X139414348Y-62527624D01*
X139414350Y-62527632D01*
X139482833Y-62692964D01*
X139482838Y-62692974D01*
X139582258Y-62841766D01*
X139582261Y-62841770D01*
X139708798Y-62968307D01*
X139708802Y-62968310D01*
X139822675Y-63044398D01*
X139867480Y-63098010D01*
X139876187Y-63167335D01*
X139846033Y-63230363D01*
X139786590Y-63267082D01*
X139753784Y-63271500D01*
X124838766Y-63271500D01*
X124771727Y-63251815D01*
X124751085Y-63235181D01*
X123506085Y-61990181D01*
X123472600Y-61928858D01*
X123477584Y-61859166D01*
X123519456Y-61803233D01*
X123584920Y-61778816D01*
X123593766Y-61778500D01*
X124233867Y-61778500D01*
X124233872Y-61778500D01*
X124334336Y-61768236D01*
X124497101Y-61714302D01*
X124643040Y-61624285D01*
X124764285Y-61503040D01*
X124824462Y-61405479D01*
X124876410Y-61358754D01*
X124945372Y-61347533D01*
X125009454Y-61375376D01*
X125035538Y-61405479D01*
X125095712Y-61503036D01*
X125095715Y-61503040D01*
X125216959Y-61624284D01*
X125216963Y-61624287D01*
X125362890Y-61714297D01*
X125362893Y-61714298D01*
X125362899Y-61714302D01*
X125525664Y-61768236D01*
X125626128Y-61778500D01*
X125626133Y-61778500D01*
X126773867Y-61778500D01*
X126773872Y-61778500D01*
X126874336Y-61768236D01*
X127037101Y-61714302D01*
X127183040Y-61624285D01*
X127304285Y-61503040D01*
X127364462Y-61405479D01*
X127416410Y-61358754D01*
X127485372Y-61347533D01*
X127549454Y-61375376D01*
X127575538Y-61405479D01*
X127635712Y-61503036D01*
X127635715Y-61503040D01*
X127756959Y-61624284D01*
X127756963Y-61624287D01*
X127902890Y-61714297D01*
X127902893Y-61714298D01*
X127902899Y-61714302D01*
X128065664Y-61768236D01*
X128166128Y-61778500D01*
X128166133Y-61778500D01*
X129313867Y-61778500D01*
X129313872Y-61778500D01*
X129414336Y-61768236D01*
X129577101Y-61714302D01*
X129723040Y-61624285D01*
X129844285Y-61503040D01*
X129904462Y-61405479D01*
X129956410Y-61358754D01*
X130025372Y-61347533D01*
X130089454Y-61375376D01*
X130115538Y-61405479D01*
X130175712Y-61503036D01*
X130175715Y-61503040D01*
X130296959Y-61624284D01*
X130296963Y-61624287D01*
X130442890Y-61714297D01*
X130442893Y-61714298D01*
X130442899Y-61714302D01*
X130605664Y-61768236D01*
X130706128Y-61778500D01*
X130706133Y-61778500D01*
X131853867Y-61778500D01*
X131853872Y-61778500D01*
X131954336Y-61768236D01*
X132117101Y-61714302D01*
X132263040Y-61624285D01*
X132384285Y-61503040D01*
X132428243Y-61431774D01*
X132480190Y-61385049D01*
X132549153Y-61373828D01*
X132613235Y-61401671D01*
X132640513Y-61433750D01*
X132695544Y-61526803D01*
X132695551Y-61526812D01*
X132813187Y-61644448D01*
X132813191Y-61644451D01*
X132813193Y-61644453D01*
X132956399Y-61729145D01*
X132998530Y-61741385D01*
X133116164Y-61775561D01*
X133116167Y-61775561D01*
X133116169Y-61775562D01*
X133153498Y-61778500D01*
X133153504Y-61778500D01*
X134486496Y-61778500D01*
X134486502Y-61778500D01*
X134523831Y-61775562D01*
X134523833Y-61775561D01*
X134523835Y-61775561D01*
X134565962Y-61763321D01*
X134683601Y-61729145D01*
X134826807Y-61644453D01*
X134944453Y-61526807D01*
X135029145Y-61383601D01*
X135051144Y-61307875D01*
X135088749Y-61248993D01*
X135152221Y-61219786D01*
X135221408Y-61229531D01*
X135274343Y-61275135D01*
X135287926Y-61303468D01*
X135305698Y-61357100D01*
X135305702Y-61357109D01*
X135395712Y-61503036D01*
X135395715Y-61503040D01*
X135516959Y-61624284D01*
X135516963Y-61624287D01*
X135662890Y-61714297D01*
X135662893Y-61714298D01*
X135662899Y-61714302D01*
X135825664Y-61768236D01*
X135926128Y-61778500D01*
X135926133Y-61778500D01*
X137073867Y-61778500D01*
X137073872Y-61778500D01*
X137174336Y-61768236D01*
X137337101Y-61714302D01*
X137483040Y-61624285D01*
X137604285Y-61503040D01*
X137694302Y-61357101D01*
X137748236Y-61194336D01*
X137758500Y-61093872D01*
X137758500Y-58906128D01*
X137748236Y-58805664D01*
X137694302Y-58642899D01*
X137694298Y-58642893D01*
X137694297Y-58642890D01*
X137604287Y-58496963D01*
X137604284Y-58496959D01*
X137483040Y-58375715D01*
X137483036Y-58375712D01*
X137337109Y-58285702D01*
X137337103Y-58285699D01*
X137337101Y-58285698D01*
X137174336Y-58231764D01*
X137073879Y-58221500D01*
X137073872Y-58221500D01*
X135926128Y-58221500D01*
X135926120Y-58221500D01*
X135825663Y-58231764D01*
X135662901Y-58285697D01*
X135662890Y-58285702D01*
X135516963Y-58375712D01*
X135516959Y-58375715D01*
X135395715Y-58496959D01*
X135395712Y-58496963D01*
X135305702Y-58642890D01*
X135305696Y-58642904D01*
X135287925Y-58696532D01*
X135248152Y-58753976D01*
X135183636Y-58780798D01*
X135114860Y-58768482D01*
X135063661Y-58720939D01*
X135051145Y-58692125D01*
X135029145Y-58616399D01*
X134944453Y-58473193D01*
X134944451Y-58473191D01*
X134944448Y-58473187D01*
X134826812Y-58355551D01*
X134826803Y-58355544D01*
X134683601Y-58270855D01*
X134683596Y-58270853D01*
X134523835Y-58224438D01*
X134523829Y-58224437D01*
X134486507Y-58221500D01*
X134486502Y-58221500D01*
X133153498Y-58221500D01*
X133153492Y-58221500D01*
X133116170Y-58224437D01*
X133116164Y-58224438D01*
X132956403Y-58270853D01*
X132956398Y-58270855D01*
X132813196Y-58355544D01*
X132813187Y-58355551D01*
X132695551Y-58473187D01*
X132695547Y-58473193D01*
X132640513Y-58566250D01*
X132589443Y-58613933D01*
X132520702Y-58626436D01*
X132456112Y-58599790D01*
X132428243Y-58568226D01*
X132384285Y-58496960D01*
X132263040Y-58375715D01*
X132263036Y-58375712D01*
X132117109Y-58285702D01*
X132117103Y-58285699D01*
X132117101Y-58285698D01*
X131954336Y-58231764D01*
X131853879Y-58221500D01*
X131853872Y-58221500D01*
X130706128Y-58221500D01*
X130706120Y-58221500D01*
X130605663Y-58231764D01*
X130442901Y-58285697D01*
X130442890Y-58285702D01*
X130296963Y-58375712D01*
X130296959Y-58375715D01*
X130175714Y-58496960D01*
X130115538Y-58594521D01*
X130063590Y-58641245D01*
X129994627Y-58652466D01*
X129930545Y-58624623D01*
X129904462Y-58594521D01*
X129844285Y-58496960D01*
X129723040Y-58375715D01*
X129723036Y-58375712D01*
X129577109Y-58285702D01*
X129577103Y-58285699D01*
X129577101Y-58285698D01*
X129414336Y-58231764D01*
X129313879Y-58221500D01*
X129313872Y-58221500D01*
X128166128Y-58221500D01*
X128166120Y-58221500D01*
X128065663Y-58231764D01*
X127902901Y-58285697D01*
X127902890Y-58285702D01*
X127756963Y-58375712D01*
X127756959Y-58375715D01*
X127635714Y-58496960D01*
X127575538Y-58594521D01*
X127523590Y-58641245D01*
X127454627Y-58652466D01*
X127390545Y-58624623D01*
X127364462Y-58594521D01*
X127304285Y-58496960D01*
X127183040Y-58375715D01*
X127183036Y-58375712D01*
X127037109Y-58285702D01*
X127037103Y-58285699D01*
X127037101Y-58285698D01*
X126874336Y-58231764D01*
X126773879Y-58221500D01*
X126773872Y-58221500D01*
X125626128Y-58221500D01*
X125626120Y-58221500D01*
X125525663Y-58231764D01*
X125362901Y-58285697D01*
X125362890Y-58285702D01*
X125216963Y-58375712D01*
X125216959Y-58375715D01*
X125095714Y-58496960D01*
X125035538Y-58594521D01*
X124983590Y-58641245D01*
X124914627Y-58652466D01*
X124850545Y-58624623D01*
X124824462Y-58594521D01*
X124764285Y-58496960D01*
X124643040Y-58375715D01*
X124643036Y-58375712D01*
X124497109Y-58285702D01*
X124497103Y-58285699D01*
X124497101Y-58285698D01*
X124334336Y-58231764D01*
X124233879Y-58221500D01*
X124233872Y-58221500D01*
X123086128Y-58221500D01*
X123086120Y-58221500D01*
X122985663Y-58231764D01*
X122822901Y-58285697D01*
X122822890Y-58285702D01*
X122676963Y-58375712D01*
X122676959Y-58375715D01*
X122555714Y-58496960D01*
X122495538Y-58594521D01*
X122443590Y-58641245D01*
X122374627Y-58652466D01*
X122310545Y-58624623D01*
X122284462Y-58594521D01*
X122224285Y-58496960D01*
X122103040Y-58375715D01*
X122103036Y-58375712D01*
X121957109Y-58285702D01*
X121957103Y-58285699D01*
X121957101Y-58285698D01*
X121794336Y-58231764D01*
X121693879Y-58221500D01*
X121693872Y-58221500D01*
X120581654Y-58221500D01*
X120514615Y-58201815D01*
X120468860Y-58149011D01*
X120457654Y-58097500D01*
X120457654Y-53304734D01*
X121201500Y-53304734D01*
X121201500Y-53535265D01*
X121231588Y-53763798D01*
X121291252Y-53986466D01*
X121291256Y-53986479D01*
X121379460Y-54199423D01*
X121379465Y-54199433D01*
X121494724Y-54399066D01*
X121494729Y-54399072D01*
X121494730Y-54399074D01*
X121635051Y-54581945D01*
X121635057Y-54581952D01*
X121798047Y-54744942D01*
X121798053Y-54744947D01*
X121980934Y-54885276D01*
X122180567Y-55000535D01*
X122180572Y-55000537D01*
X122180576Y-55000539D01*
X122393520Y-55088743D01*
X122393525Y-55088744D01*
X122393536Y-55088749D01*
X122616198Y-55148411D01*
X122844742Y-55178500D01*
X122844749Y-55178500D01*
X123075251Y-55178500D01*
X123075258Y-55178500D01*
X123303802Y-55148411D01*
X123526464Y-55088749D01*
X123526476Y-55088743D01*
X123526479Y-55088743D01*
X123739423Y-55000539D01*
X123739421Y-55000539D01*
X123739433Y-55000535D01*
X123939066Y-54885276D01*
X124121947Y-54744947D01*
X124181999Y-54684895D01*
X124257319Y-54609576D01*
X124318642Y-54576091D01*
X124388334Y-54581075D01*
X124432681Y-54609576D01*
X124568047Y-54744942D01*
X124568053Y-54744947D01*
X124750934Y-54885276D01*
X124950567Y-55000535D01*
X124950572Y-55000537D01*
X124950576Y-55000539D01*
X125163520Y-55088743D01*
X125163525Y-55088744D01*
X125163536Y-55088749D01*
X125386198Y-55148411D01*
X125614742Y-55178500D01*
X125614749Y-55178500D01*
X125845251Y-55178500D01*
X125845258Y-55178500D01*
X126073802Y-55148411D01*
X126296464Y-55088749D01*
X126296476Y-55088743D01*
X126296479Y-55088743D01*
X126509423Y-55000539D01*
X126509421Y-55000539D01*
X126509433Y-55000535D01*
X126709066Y-54885276D01*
X126891947Y-54744947D01*
X126951999Y-54684895D01*
X127027319Y-54609576D01*
X127088642Y-54576091D01*
X127158334Y-54581075D01*
X127202681Y-54609576D01*
X127338047Y-54744942D01*
X127338053Y-54744947D01*
X127520934Y-54885276D01*
X127720567Y-55000535D01*
X127720572Y-55000537D01*
X127720576Y-55000539D01*
X127933520Y-55088743D01*
X127933525Y-55088744D01*
X127933536Y-55088749D01*
X128156198Y-55148411D01*
X128384742Y-55178500D01*
X128384749Y-55178500D01*
X128615251Y-55178500D01*
X128615258Y-55178500D01*
X128843802Y-55148411D01*
X129066464Y-55088749D01*
X129066476Y-55088743D01*
X129066479Y-55088743D01*
X129279423Y-55000539D01*
X129279421Y-55000539D01*
X129279433Y-55000535D01*
X129479066Y-54885276D01*
X129661947Y-54744947D01*
X129721999Y-54684895D01*
X129797319Y-54609576D01*
X129858642Y-54576091D01*
X129928334Y-54581075D01*
X129972681Y-54609576D01*
X130108047Y-54744942D01*
X130108053Y-54744947D01*
X130290934Y-54885276D01*
X130490567Y-55000535D01*
X130490572Y-55000537D01*
X130490576Y-55000539D01*
X130703520Y-55088743D01*
X130703525Y-55088744D01*
X130703536Y-55088749D01*
X130926198Y-55148411D01*
X131154742Y-55178500D01*
X131154749Y-55178500D01*
X131385251Y-55178500D01*
X131385258Y-55178500D01*
X131613802Y-55148411D01*
X131836464Y-55088749D01*
X131836476Y-55088743D01*
X131836479Y-55088743D01*
X132049423Y-55000539D01*
X132049421Y-55000539D01*
X132049433Y-55000535D01*
X132200461Y-54913338D01*
X132268358Y-54896866D01*
X132334385Y-54919718D01*
X132361725Y-54946414D01*
X132426738Y-55033260D01*
X132426739Y-55033261D01*
X132543796Y-55120889D01*
X132680799Y-55171989D01*
X132708050Y-55174918D01*
X132741345Y-55178499D01*
X132741362Y-55178500D01*
X135338638Y-55178500D01*
X135338654Y-55178499D01*
X135365692Y-55175591D01*
X135399201Y-55171989D01*
X135536204Y-55120889D01*
X135653261Y-55033261D01*
X135740889Y-54916204D01*
X135791989Y-54779201D01*
X135795672Y-54744942D01*
X135798499Y-54718654D01*
X135798500Y-54718637D01*
X135798500Y-52121362D01*
X135798499Y-52121345D01*
X135792920Y-52069462D01*
X135791989Y-52060799D01*
X135740889Y-51923796D01*
X135653261Y-51806739D01*
X135536204Y-51719111D01*
X135496460Y-51704287D01*
X135399203Y-51668011D01*
X135338654Y-51661500D01*
X135338638Y-51661500D01*
X134275910Y-51661500D01*
X134208871Y-51641815D01*
X134163116Y-51589011D01*
X134153172Y-51519853D01*
X134168521Y-51475502D01*
X134235535Y-51359433D01*
X134281497Y-51248471D01*
X134323743Y-51146479D01*
X134323743Y-51146476D01*
X134323749Y-51146464D01*
X134383411Y-50923802D01*
X134413500Y-50695258D01*
X134413500Y-50464742D01*
X134383411Y-50236198D01*
X134323749Y-50013536D01*
X134323744Y-50013525D01*
X134323743Y-50013520D01*
X134235539Y-49800576D01*
X134235534Y-49800566D01*
X134120276Y-49600934D01*
X134003718Y-49449032D01*
X133979948Y-49418054D01*
X133979942Y-49418047D01*
X133816952Y-49255057D01*
X133816945Y-49255051D01*
X133634074Y-49114730D01*
X133634072Y-49114729D01*
X133634066Y-49114724D01*
X133434433Y-48999465D01*
X133434423Y-48999460D01*
X133221479Y-48911256D01*
X133221466Y-48911252D01*
X133221467Y-48911252D01*
X133221464Y-48911251D01*
X132998802Y-48851589D01*
X132998801Y-48851588D01*
X132998798Y-48851588D01*
X132770265Y-48821500D01*
X132770258Y-48821500D01*
X132539742Y-48821500D01*
X132539734Y-48821500D01*
X132311201Y-48851588D01*
X132199867Y-48881420D01*
X132088536Y-48911251D01*
X132088534Y-48911251D01*
X132088533Y-48911252D01*
X132088520Y-48911256D01*
X131875576Y-48999460D01*
X131875566Y-48999465D01*
X131675934Y-49114724D01*
X131675925Y-49114730D01*
X131493054Y-49255051D01*
X131493047Y-49255057D01*
X131357681Y-49390424D01*
X131296358Y-49423909D01*
X131226666Y-49418925D01*
X131182319Y-49390424D01*
X131046952Y-49255057D01*
X131046945Y-49255051D01*
X130864074Y-49114730D01*
X130864072Y-49114729D01*
X130864066Y-49114724D01*
X130664433Y-48999465D01*
X130664423Y-48999460D01*
X130451479Y-48911256D01*
X130451466Y-48911252D01*
X130451467Y-48911252D01*
X130451464Y-48911251D01*
X130228802Y-48851589D01*
X130228801Y-48851588D01*
X130228798Y-48851588D01*
X130000265Y-48821500D01*
X130000258Y-48821500D01*
X129769742Y-48821500D01*
X129769734Y-48821500D01*
X129541201Y-48851588D01*
X129429867Y-48881420D01*
X129318536Y-48911251D01*
X129318534Y-48911251D01*
X129318533Y-48911252D01*
X129318520Y-48911256D01*
X129105576Y-48999460D01*
X129105566Y-48999465D01*
X128905934Y-49114724D01*
X128905925Y-49114730D01*
X128723054Y-49255051D01*
X128723047Y-49255057D01*
X128587681Y-49390424D01*
X128526358Y-49423909D01*
X128456666Y-49418925D01*
X128412319Y-49390424D01*
X128276952Y-49255057D01*
X128276945Y-49255051D01*
X128094074Y-49114730D01*
X128094072Y-49114729D01*
X128094066Y-49114724D01*
X127894433Y-48999465D01*
X127894423Y-48999460D01*
X127681479Y-48911256D01*
X127681466Y-48911252D01*
X127681467Y-48911252D01*
X127681464Y-48911251D01*
X127458802Y-48851589D01*
X127458801Y-48851588D01*
X127458798Y-48851588D01*
X127230265Y-48821500D01*
X127230258Y-48821500D01*
X126999742Y-48821500D01*
X126999734Y-48821500D01*
X126771201Y-48851588D01*
X126659867Y-48881420D01*
X126548536Y-48911251D01*
X126548534Y-48911251D01*
X126548533Y-48911252D01*
X126548520Y-48911256D01*
X126335576Y-48999460D01*
X126335566Y-48999465D01*
X126135934Y-49114724D01*
X126135925Y-49114730D01*
X125953054Y-49255051D01*
X125953047Y-49255057D01*
X125817681Y-49390424D01*
X125756358Y-49423909D01*
X125686666Y-49418925D01*
X125642319Y-49390424D01*
X125506952Y-49255057D01*
X125506945Y-49255051D01*
X125324074Y-49114730D01*
X125324072Y-49114729D01*
X125324066Y-49114724D01*
X125124433Y-48999465D01*
X125124423Y-48999460D01*
X124911479Y-48911256D01*
X124911466Y-48911252D01*
X124911467Y-48911252D01*
X124911464Y-48911251D01*
X124688802Y-48851589D01*
X124688801Y-48851588D01*
X124688798Y-48851588D01*
X124460265Y-48821500D01*
X124460258Y-48821500D01*
X124229742Y-48821500D01*
X124229734Y-48821500D01*
X124001201Y-48851588D01*
X123889867Y-48881420D01*
X123778536Y-48911251D01*
X123778534Y-48911251D01*
X123778533Y-48911252D01*
X123778520Y-48911256D01*
X123565576Y-48999460D01*
X123565566Y-48999465D01*
X123365934Y-49114724D01*
X123365925Y-49114730D01*
X123183054Y-49255051D01*
X123183047Y-49255057D01*
X123020057Y-49418047D01*
X123020051Y-49418054D01*
X122879730Y-49600925D01*
X122879724Y-49600934D01*
X122764465Y-49800566D01*
X122764460Y-49800576D01*
X122676256Y-50013520D01*
X122676252Y-50013533D01*
X122676251Y-50013536D01*
X122672514Y-50027482D01*
X122616588Y-50236201D01*
X122586500Y-50464734D01*
X122586500Y-50695265D01*
X122610520Y-50877708D01*
X122616589Y-50923802D01*
X122652605Y-51058217D01*
X122676252Y-51146466D01*
X122676256Y-51146479D01*
X122764460Y-51359423D01*
X122764468Y-51359440D01*
X122839425Y-51489268D01*
X122855898Y-51557168D01*
X122833046Y-51623195D01*
X122778124Y-51666386D01*
X122748224Y-51674207D01*
X122616201Y-51691588D01*
X122568808Y-51704287D01*
X122393536Y-51751251D01*
X122393534Y-51751251D01*
X122393533Y-51751252D01*
X122393520Y-51751256D01*
X122180576Y-51839460D01*
X122180566Y-51839465D01*
X121980934Y-51954724D01*
X121980925Y-51954730D01*
X121798054Y-52095051D01*
X121798047Y-52095057D01*
X121635057Y-52258047D01*
X121635051Y-52258054D01*
X121494730Y-52440925D01*
X121494724Y-52440934D01*
X121379465Y-52640566D01*
X121379460Y-52640576D01*
X121291256Y-52853520D01*
X121291252Y-52853533D01*
X121231588Y-53076201D01*
X121201500Y-53304734D01*
X120457654Y-53304734D01*
X120457654Y-51719659D01*
X120457653Y-51719655D01*
X120446085Y-51661500D01*
X120433309Y-51597269D01*
X120385554Y-51481979D01*
X120385553Y-51481978D01*
X120385550Y-51481972D01*
X120316226Y-51378222D01*
X120294610Y-51356606D01*
X120227987Y-51289983D01*
X117711919Y-48773915D01*
X117678434Y-48712592D01*
X117675600Y-48686234D01*
X117675600Y-47809705D01*
X117675599Y-47809701D01*
X117651256Y-47687322D01*
X117651255Y-47687315D01*
X117603500Y-47572025D01*
X117603499Y-47572023D01*
X117589397Y-47550917D01*
X117568520Y-47484239D01*
X117568500Y-47482028D01*
X117568500Y-47400520D01*
X117568499Y-47400516D01*
X117533588Y-47225007D01*
X117533587Y-47225000D01*
X117465102Y-47059664D01*
X117465100Y-47059661D01*
X117465098Y-47059657D01*
X117365678Y-46910865D01*
X117365675Y-46910861D01*
X117239138Y-46784324D01*
X117239134Y-46784321D01*
X117090342Y-46684901D01*
X117090332Y-46684896D01*
X116925000Y-46616413D01*
X116924992Y-46616411D01*
X116749483Y-46581500D01*
X116749479Y-46581500D01*
X116570521Y-46581500D01*
X116570516Y-46581500D01*
X116395007Y-46616411D01*
X116394999Y-46616413D01*
X116229667Y-46684896D01*
X116229657Y-46684901D01*
X116080865Y-46784321D01*
X116080861Y-46784324D01*
X115954324Y-46910861D01*
X115954321Y-46910865D01*
X115854901Y-47059657D01*
X115854896Y-47059667D01*
X115786413Y-47224999D01*
X115786411Y-47225007D01*
X115751500Y-47400516D01*
X115751500Y-47579483D01*
X115786411Y-47754992D01*
X115786413Y-47755000D01*
X115854896Y-47920332D01*
X115854901Y-47920342D01*
X115954321Y-48069134D01*
X115954324Y-48069138D01*
X116080861Y-48195675D01*
X116080865Y-48195678D01*
X116229657Y-48295098D01*
X116229663Y-48295101D01*
X116229664Y-48295102D01*
X116332053Y-48337513D01*
X116386456Y-48381354D01*
X116408521Y-48447648D01*
X116408600Y-48452074D01*
X116408600Y-49062398D01*
X116432943Y-49184777D01*
X116432945Y-49184785D01*
X116480698Y-49300072D01*
X116480700Y-49300075D01*
X116498345Y-49326482D01*
X116519223Y-49393160D01*
X116500739Y-49460540D01*
X116448761Y-49507230D01*
X116381360Y-49518594D01*
X116140880Y-49491500D01*
X116140874Y-49491500D01*
X115859126Y-49491500D01*
X115859119Y-49491500D01*
X115579161Y-49523042D01*
X115579148Y-49523045D01*
X115304464Y-49585739D01*
X115304452Y-49585743D01*
X115038532Y-49678793D01*
X115038510Y-49678802D01*
X114784684Y-49801038D01*
X114546117Y-49950941D01*
X114325836Y-50126608D01*
X114126608Y-50325836D01*
X113950941Y-50546117D01*
X113801038Y-50784684D01*
X113678802Y-51038510D01*
X113678793Y-51038532D01*
X113585743Y-51304452D01*
X113585739Y-51304464D01*
X113523045Y-51579148D01*
X113523042Y-51579161D01*
X113491500Y-51859119D01*
X113491500Y-52140880D01*
X113523042Y-52420838D01*
X113523044Y-52420850D01*
X113523045Y-52420852D01*
X113537354Y-52483546D01*
X113585739Y-52695535D01*
X113585743Y-52695547D01*
X113678793Y-52961467D01*
X113678802Y-52961489D01*
X113801038Y-53215315D01*
X113801042Y-53215321D01*
X113950942Y-53453884D01*
X114126609Y-53674164D01*
X114325836Y-53873391D01*
X114546116Y-54049058D01*
X114671544Y-54127870D01*
X114784684Y-54198961D01*
X115038510Y-54321197D01*
X115038519Y-54321200D01*
X115038526Y-54321204D01*
X115038532Y-54321206D01*
X115304452Y-54414256D01*
X115304464Y-54414260D01*
X115579148Y-54476955D01*
X115579156Y-54476955D01*
X115579161Y-54476957D01*
X115779882Y-54499571D01*
X115859120Y-54508499D01*
X115859123Y-54508500D01*
X115859126Y-54508500D01*
X116140877Y-54508500D01*
X116140878Y-54508499D01*
X116262364Y-54494811D01*
X116420838Y-54476957D01*
X116420841Y-54476956D01*
X116420852Y-54476955D01*
X116695536Y-54414260D01*
X116961474Y-54321204D01*
X116976058Y-54314181D01*
X117215315Y-54198961D01*
X117215315Y-54198960D01*
X117215321Y-54198958D01*
X117453884Y-54049058D01*
X117674164Y-53873391D01*
X117873391Y-53674164D01*
X118049058Y-53453884D01*
X118198958Y-53215321D01*
X118214913Y-53182191D01*
X118321197Y-52961489D01*
X118321198Y-52961485D01*
X118321204Y-52961474D01*
X118414260Y-52695536D01*
X118476955Y-52420852D01*
X118508500Y-52140874D01*
X118508500Y-51859126D01*
X118485091Y-51651360D01*
X118497145Y-51582539D01*
X118544495Y-51531159D01*
X118612105Y-51513535D01*
X118678511Y-51535262D01*
X118695992Y-51549796D01*
X119154335Y-52008139D01*
X119187820Y-52069462D01*
X119190654Y-52095820D01*
X119190654Y-58097500D01*
X119170969Y-58164539D01*
X119118165Y-58210294D01*
X119066654Y-58221500D01*
X118006120Y-58221500D01*
X117905663Y-58231764D01*
X117742901Y-58285697D01*
X117742890Y-58285702D01*
X117596963Y-58375712D01*
X117596959Y-58375715D01*
X117475715Y-58496959D01*
X117475712Y-58496963D01*
X117385702Y-58642890D01*
X117385697Y-58642901D01*
X117331764Y-58805663D01*
X117321500Y-58906120D01*
X117321500Y-61093879D01*
X117331764Y-61194336D01*
X117385697Y-61357098D01*
X117385702Y-61357109D01*
X117475712Y-61503036D01*
X117475715Y-61503040D01*
X117596959Y-61624284D01*
X117596963Y-61624287D01*
X117742890Y-61714297D01*
X117742893Y-61714298D01*
X117742899Y-61714302D01*
X117905664Y-61768236D01*
X118006128Y-61778500D01*
X118006133Y-61778500D01*
X119066654Y-61778500D01*
X119133693Y-61798185D01*
X119179448Y-61850989D01*
X119190654Y-61902500D01*
X119190654Y-69006552D01*
X119214997Y-69128931D01*
X119214999Y-69128939D01*
X119262752Y-69244226D01*
X119262757Y-69244235D01*
X119332082Y-69347986D01*
X119332085Y-69347990D01*
X123993915Y-74009819D01*
X124027400Y-74071142D01*
X124022416Y-74140834D01*
X123980544Y-74196767D01*
X123915080Y-74221184D01*
X123906234Y-74221500D01*
X123266120Y-74221500D01*
X123165663Y-74231764D01*
X123002901Y-74285697D01*
X123002890Y-74285702D01*
X122856963Y-74375712D01*
X122856959Y-74375715D01*
X122735714Y-74496960D01*
X122675538Y-74594521D01*
X122623590Y-74641245D01*
X122554627Y-74652466D01*
X122490545Y-74624623D01*
X122464462Y-74594521D01*
X122404285Y-74496960D01*
X122283040Y-74375715D01*
X122283036Y-74375712D01*
X122137109Y-74285702D01*
X122137103Y-74285699D01*
X122137101Y-74285698D01*
X121974336Y-74231764D01*
X121873879Y-74221500D01*
X121873872Y-74221500D01*
X120726128Y-74221500D01*
X120726120Y-74221500D01*
X120625663Y-74231764D01*
X120462901Y-74285697D01*
X120462890Y-74285702D01*
X120316963Y-74375712D01*
X120316959Y-74375715D01*
X120195714Y-74496960D01*
X120135538Y-74594521D01*
X120083590Y-74641245D01*
X120014627Y-74652466D01*
X119950545Y-74624623D01*
X119924462Y-74594521D01*
X119864285Y-74496960D01*
X119743040Y-74375715D01*
X119743036Y-74375712D01*
X119597109Y-74285702D01*
X119597103Y-74285699D01*
X119597101Y-74285698D01*
X119434336Y-74231764D01*
X119333879Y-74221500D01*
X119333872Y-74221500D01*
X118186128Y-74221500D01*
X118186120Y-74221500D01*
X118085663Y-74231764D01*
X117922901Y-74285697D01*
X117922890Y-74285702D01*
X117776963Y-74375712D01*
X117776959Y-74375715D01*
X117655714Y-74496960D01*
X117595538Y-74594521D01*
X117543590Y-74641245D01*
X117474627Y-74652466D01*
X117410545Y-74624623D01*
X117384462Y-74594521D01*
X117324285Y-74496960D01*
X117203040Y-74375715D01*
X117203036Y-74375712D01*
X117057109Y-74285702D01*
X117057103Y-74285699D01*
X117057101Y-74285698D01*
X116894336Y-74231764D01*
X116793879Y-74221500D01*
X116793872Y-74221500D01*
X115646128Y-74221500D01*
X115646120Y-74221500D01*
X115545663Y-74231764D01*
X115382901Y-74285697D01*
X115382890Y-74285702D01*
X115236963Y-74375712D01*
X115236959Y-74375715D01*
X115115714Y-74496960D01*
X115055538Y-74594521D01*
X115003590Y-74641245D01*
X114934627Y-74652466D01*
X114870545Y-74624623D01*
X114844462Y-74594521D01*
X114784285Y-74496960D01*
X114663040Y-74375715D01*
X114663036Y-74375712D01*
X114517109Y-74285702D01*
X114517103Y-74285699D01*
X114517101Y-74285698D01*
X114354336Y-74231764D01*
X114253879Y-74221500D01*
X114253872Y-74221500D01*
X113106128Y-74221500D01*
X113106120Y-74221500D01*
X113005663Y-74231764D01*
X112842901Y-74285697D01*
X112842890Y-74285702D01*
X112696963Y-74375712D01*
X112696959Y-74375715D01*
X112575715Y-74496959D01*
X112575712Y-74496963D01*
X112485702Y-74642890D01*
X112485697Y-74642901D01*
X112431764Y-74805663D01*
X112421500Y-74906120D01*
X112421500Y-77093879D01*
X112430000Y-77177069D01*
X112431764Y-77194336D01*
X112478871Y-77336498D01*
X112481273Y-77406324D01*
X112445541Y-77466366D01*
X112383021Y-77497559D01*
X112361165Y-77499500D01*
X112003800Y-77499500D01*
X111936761Y-77479815D01*
X111891006Y-77427011D01*
X111879800Y-77375500D01*
X111879800Y-58906120D01*
X112241500Y-58906120D01*
X112241500Y-61093879D01*
X112251764Y-61194336D01*
X112305697Y-61357098D01*
X112305702Y-61357109D01*
X112395712Y-61503036D01*
X112395715Y-61503040D01*
X112516959Y-61624284D01*
X112516963Y-61624287D01*
X112662890Y-61714297D01*
X112662893Y-61714298D01*
X112662899Y-61714302D01*
X112825664Y-61768236D01*
X112926128Y-61778500D01*
X112926133Y-61778500D01*
X114073867Y-61778500D01*
X114073872Y-61778500D01*
X114174336Y-61768236D01*
X114337101Y-61714302D01*
X114483040Y-61624285D01*
X114604285Y-61503040D01*
X114694302Y-61357101D01*
X114748236Y-61194336D01*
X114758500Y-61093872D01*
X114758500Y-60375000D01*
X115040001Y-60375000D01*
X115040001Y-61090439D01*
X115046081Y-61147007D01*
X115093813Y-61274981D01*
X115093815Y-61274984D01*
X115175670Y-61384329D01*
X115285015Y-61466184D01*
X115285016Y-61466185D01*
X115412991Y-61513917D01*
X115412994Y-61513918D01*
X115469555Y-61519999D01*
X115664999Y-61519999D01*
X115665000Y-61519998D01*
X115665000Y-60740481D01*
X115683911Y-60773236D01*
X115766764Y-60856089D01*
X115868236Y-60914674D01*
X115981415Y-60945000D01*
X116098585Y-60945000D01*
X116211764Y-60914674D01*
X116313236Y-60856089D01*
X116396089Y-60773236D01*
X116415000Y-60740481D01*
X116415000Y-61519999D01*
X116610433Y-61519999D01*
X116610439Y-61519998D01*
X116667007Y-61513918D01*
X116794981Y-61466186D01*
X116794984Y-61466184D01*
X116904329Y-61384329D01*
X116986184Y-61274984D01*
X116986185Y-61274983D01*
X117033916Y-61147010D01*
X117039999Y-61090428D01*
X117040000Y-61090427D01*
X117040000Y-60375000D01*
X116467204Y-60375000D01*
X116454674Y-60328236D01*
X116396089Y-60226764D01*
X116313236Y-60143911D01*
X116211764Y-60085326D01*
X116098585Y-60055000D01*
X115981415Y-60055000D01*
X115868236Y-60085326D01*
X115766764Y-60143911D01*
X115683911Y-60226764D01*
X115625326Y-60328236D01*
X115612796Y-60375000D01*
X115040001Y-60375000D01*
X114758500Y-60375000D01*
X114758500Y-58909571D01*
X115040000Y-58909571D01*
X115040000Y-59625000D01*
X115665000Y-59625000D01*
X116415000Y-59625000D01*
X117039999Y-59625000D01*
X117039999Y-58909566D01*
X117039998Y-58909560D01*
X117033918Y-58852992D01*
X116986186Y-58725018D01*
X116986184Y-58725015D01*
X116904329Y-58615670D01*
X116794984Y-58533815D01*
X116794983Y-58533814D01*
X116667010Y-58486083D01*
X116610428Y-58480000D01*
X116415000Y-58480000D01*
X116415000Y-59625000D01*
X115665000Y-59625000D01*
X115665000Y-58480000D01*
X115469566Y-58480000D01*
X115469559Y-58480001D01*
X115412992Y-58486081D01*
X115285018Y-58533813D01*
X115285015Y-58533815D01*
X115175670Y-58615670D01*
X115093815Y-58725015D01*
X115093814Y-58725016D01*
X115046083Y-58852989D01*
X115040000Y-58909571D01*
X114758500Y-58909571D01*
X114758500Y-58906128D01*
X114748236Y-58805664D01*
X114694302Y-58642899D01*
X114694298Y-58642893D01*
X114694297Y-58642890D01*
X114604287Y-58496963D01*
X114604284Y-58496959D01*
X114483040Y-58375715D01*
X114483036Y-58375712D01*
X114337109Y-58285702D01*
X114337103Y-58285699D01*
X114337101Y-58285698D01*
X114174336Y-58231764D01*
X114073879Y-58221500D01*
X114073872Y-58221500D01*
X112926128Y-58221500D01*
X112926120Y-58221500D01*
X112825663Y-58231764D01*
X112662901Y-58285697D01*
X112662890Y-58285702D01*
X112516963Y-58375712D01*
X112516959Y-58375715D01*
X112395715Y-58496959D01*
X112395712Y-58496963D01*
X112305702Y-58642890D01*
X112305697Y-58642901D01*
X112251764Y-58805663D01*
X112241500Y-58906120D01*
X111879800Y-58906120D01*
X111879800Y-45624500D01*
X111899485Y-45557461D01*
X111952289Y-45511706D01*
X112003800Y-45500500D01*
X152875500Y-45500500D01*
X152942539Y-45520185D01*
G37*
%TD.AperFunction*%
%TA.AperFunction,Conductor*%
G36*
X150550226Y-51192396D02*
G01*
X150618595Y-51058217D01*
X150684257Y-50856130D01*
X150684257Y-50856127D01*
X150709997Y-50693615D01*
X150739926Y-50630481D01*
X150799237Y-50593549D01*
X150869100Y-50594547D01*
X150920151Y-50625332D01*
X151590102Y-51295283D01*
X151623587Y-51356606D01*
X151626421Y-51382964D01*
X151626421Y-53088478D01*
X151606736Y-53155517D01*
X151553932Y-53201272D01*
X151484774Y-53211216D01*
X151421218Y-53182191D01*
X151414740Y-53176159D01*
X150954782Y-52716201D01*
X150924532Y-52666837D01*
X150915999Y-52640576D01*
X150858156Y-52462550D01*
X150858156Y-52462549D01*
X150743212Y-52236961D01*
X150594395Y-52032132D01*
X150415368Y-51853105D01*
X150210538Y-51704287D01*
X150151503Y-51674207D01*
X149984954Y-51589345D01*
X149867447Y-51551165D01*
X149818085Y-51520915D01*
X149387171Y-51090000D01*
X149439909Y-51090000D01*
X149579792Y-51052518D01*
X149705208Y-50980110D01*
X149807610Y-50877708D01*
X149880018Y-50752292D01*
X149917500Y-50612409D01*
X149917500Y-50559670D01*
X150550226Y-51192396D01*
G37*
%TD.AperFunction*%
%TD*%
M02*
