%TF.GenerationSoftware,KiCad,Pcbnew,9.0.6*%
%TF.CreationDate,2025-12-01T23:04:52-05:00*%
%TF.ProjectId,ESP32C6-2,45535033-3243-4362-9d32-2e6b69636164,rev?*%
%TF.SameCoordinates,Original*%
%TF.FileFunction,Legend,Bot*%
%TF.FilePolarity,Positive*%
%FSLAX46Y46*%
G04 Gerber Fmt 4.6, Leading zero omitted, Abs format (unit mm)*
G04 Created by KiCad (PCBNEW 9.0.6) date 2025-12-01 23:04:52*
%MOMM*%
%LPD*%
G01*
G04 APERTURE LIST*
%ADD10C,0.150000*%
%ADD11C,0.120000*%
%ADD12C,0.000000*%
G04 APERTURE END LIST*
D10*
X144917438Y-50860588D02*
X144869819Y-50765350D01*
X144869819Y-50765350D02*
X144869819Y-50622493D01*
X144869819Y-50622493D02*
X144917438Y-50479636D01*
X144917438Y-50479636D02*
X145012676Y-50384398D01*
X145012676Y-50384398D02*
X145107914Y-50336779D01*
X145107914Y-50336779D02*
X145298390Y-50289160D01*
X145298390Y-50289160D02*
X145441247Y-50289160D01*
X145441247Y-50289160D02*
X145631723Y-50336779D01*
X145631723Y-50336779D02*
X145726961Y-50384398D01*
X145726961Y-50384398D02*
X145822200Y-50479636D01*
X145822200Y-50479636D02*
X145869819Y-50622493D01*
X145869819Y-50622493D02*
X145869819Y-50717731D01*
X145869819Y-50717731D02*
X145822200Y-50860588D01*
X145822200Y-50860588D02*
X145774580Y-50908207D01*
X145774580Y-50908207D02*
X145441247Y-50908207D01*
X145441247Y-50908207D02*
X145441247Y-50717731D01*
X144965057Y-47289160D02*
X144917438Y-47336779D01*
X144917438Y-47336779D02*
X144869819Y-47432017D01*
X144869819Y-47432017D02*
X144869819Y-47670112D01*
X144869819Y-47670112D02*
X144917438Y-47765350D01*
X144917438Y-47765350D02*
X144965057Y-47812969D01*
X144965057Y-47812969D02*
X145060295Y-47860588D01*
X145060295Y-47860588D02*
X145155533Y-47860588D01*
X145155533Y-47860588D02*
X145298390Y-47812969D01*
X145298390Y-47812969D02*
X145869819Y-47241541D01*
X145869819Y-47241541D02*
X145869819Y-47860588D01*
X145203152Y-48717731D02*
X145869819Y-48717731D01*
X144822200Y-48479636D02*
X145536485Y-48241541D01*
X145536485Y-48241541D02*
X145536485Y-48860588D01*
X145203152Y-49146303D02*
X145869819Y-49384398D01*
X145869819Y-49384398D02*
X145203152Y-49622493D01*
X144869819Y-52812969D02*
X144869819Y-52336779D01*
X144869819Y-52336779D02*
X145346009Y-52289160D01*
X145346009Y-52289160D02*
X145298390Y-52336779D01*
X145298390Y-52336779D02*
X145250771Y-52432017D01*
X145250771Y-52432017D02*
X145250771Y-52670112D01*
X145250771Y-52670112D02*
X145298390Y-52765350D01*
X145298390Y-52765350D02*
X145346009Y-52812969D01*
X145346009Y-52812969D02*
X145441247Y-52860588D01*
X145441247Y-52860588D02*
X145679342Y-52860588D01*
X145679342Y-52860588D02*
X145774580Y-52812969D01*
X145774580Y-52812969D02*
X145822200Y-52765350D01*
X145822200Y-52765350D02*
X145869819Y-52670112D01*
X145869819Y-52670112D02*
X145869819Y-52432017D01*
X145869819Y-52432017D02*
X145822200Y-52336779D01*
X145822200Y-52336779D02*
X145774580Y-52289160D01*
X145203152Y-53193922D02*
X145869819Y-53432017D01*
X145869819Y-53432017D02*
X145203152Y-53670112D01*
X131662583Y-49025373D02*
X131668453Y-49092460D01*
X131668453Y-49092460D02*
X131747279Y-49220765D01*
X131747279Y-49220765D02*
X131820235Y-49281983D01*
X131820235Y-49281983D02*
X131960279Y-49337332D01*
X131960279Y-49337332D02*
X132094454Y-49325593D01*
X132094454Y-49325593D02*
X132192150Y-49283245D01*
X132192150Y-49283245D02*
X132351064Y-49167941D01*
X132351064Y-49167941D02*
X132442891Y-49058506D01*
X132442891Y-49058506D02*
X132528848Y-48881984D01*
X132528848Y-48881984D02*
X132553588Y-48778418D01*
X132553588Y-48778418D02*
X132541849Y-48644244D01*
X132541849Y-48644244D02*
X132463023Y-48515939D01*
X132463023Y-48515939D02*
X132390066Y-48454721D01*
X132390066Y-48454721D02*
X132250023Y-48399372D01*
X132250023Y-48399372D02*
X132182935Y-48405242D01*
X131493193Y-48634588D02*
X131128410Y-48328499D01*
X131382496Y-48914676D02*
X131769935Y-47934369D01*
X131769935Y-47934369D02*
X130871799Y-48486151D01*
X130616451Y-48271888D02*
X131259239Y-47505844D01*
X131259239Y-47505844D02*
X130178712Y-47904581D01*
X130178712Y-47904581D02*
X130821499Y-47138537D01*
X129813928Y-47598492D02*
X130456716Y-46832447D01*
X130150627Y-47197230D02*
X129712887Y-46829923D01*
X129376189Y-47231185D02*
X130018976Y-46465140D01*
X144917438Y-55860588D02*
X144869819Y-55765350D01*
X144869819Y-55765350D02*
X144869819Y-55622493D01*
X144869819Y-55622493D02*
X144917438Y-55479636D01*
X144917438Y-55479636D02*
X145012676Y-55384398D01*
X145012676Y-55384398D02*
X145107914Y-55336779D01*
X145107914Y-55336779D02*
X145298390Y-55289160D01*
X145298390Y-55289160D02*
X145441247Y-55289160D01*
X145441247Y-55289160D02*
X145631723Y-55336779D01*
X145631723Y-55336779D02*
X145726961Y-55384398D01*
X145726961Y-55384398D02*
X145822200Y-55479636D01*
X145822200Y-55479636D02*
X145869819Y-55622493D01*
X145869819Y-55622493D02*
X145869819Y-55717731D01*
X145869819Y-55717731D02*
X145822200Y-55860588D01*
X145822200Y-55860588D02*
X145774580Y-55908207D01*
X145774580Y-55908207D02*
X145441247Y-55908207D01*
X145441247Y-55908207D02*
X145441247Y-55717731D01*
X136663220Y-65516177D02*
X136329887Y-65516177D01*
X136187030Y-66039987D02*
X136663220Y-66039987D01*
X136663220Y-66039987D02*
X136663220Y-65039987D01*
X136663220Y-65039987D02*
X136187030Y-65039987D01*
X135806077Y-65992368D02*
X135663220Y-66039987D01*
X135663220Y-66039987D02*
X135425125Y-66039987D01*
X135425125Y-66039987D02*
X135329887Y-65992368D01*
X135329887Y-65992368D02*
X135282268Y-65944748D01*
X135282268Y-65944748D02*
X135234649Y-65849510D01*
X135234649Y-65849510D02*
X135234649Y-65754272D01*
X135234649Y-65754272D02*
X135282268Y-65659034D01*
X135282268Y-65659034D02*
X135329887Y-65611415D01*
X135329887Y-65611415D02*
X135425125Y-65563796D01*
X135425125Y-65563796D02*
X135615601Y-65516177D01*
X135615601Y-65516177D02*
X135710839Y-65468558D01*
X135710839Y-65468558D02*
X135758458Y-65420939D01*
X135758458Y-65420939D02*
X135806077Y-65325701D01*
X135806077Y-65325701D02*
X135806077Y-65230463D01*
X135806077Y-65230463D02*
X135758458Y-65135225D01*
X135758458Y-65135225D02*
X135710839Y-65087606D01*
X135710839Y-65087606D02*
X135615601Y-65039987D01*
X135615601Y-65039987D02*
X135377506Y-65039987D01*
X135377506Y-65039987D02*
X135234649Y-65087606D01*
X134806077Y-66039987D02*
X134806077Y-65039987D01*
X134806077Y-65039987D02*
X134425125Y-65039987D01*
X134425125Y-65039987D02*
X134329887Y-65087606D01*
X134329887Y-65087606D02*
X134282268Y-65135225D01*
X134282268Y-65135225D02*
X134234649Y-65230463D01*
X134234649Y-65230463D02*
X134234649Y-65373320D01*
X134234649Y-65373320D02*
X134282268Y-65468558D01*
X134282268Y-65468558D02*
X134329887Y-65516177D01*
X134329887Y-65516177D02*
X134425125Y-65563796D01*
X134425125Y-65563796D02*
X134806077Y-65563796D01*
X133901315Y-65039987D02*
X133282268Y-65039987D01*
X133282268Y-65039987D02*
X133615601Y-65420939D01*
X133615601Y-65420939D02*
X133472744Y-65420939D01*
X133472744Y-65420939D02*
X133377506Y-65468558D01*
X133377506Y-65468558D02*
X133329887Y-65516177D01*
X133329887Y-65516177D02*
X133282268Y-65611415D01*
X133282268Y-65611415D02*
X133282268Y-65849510D01*
X133282268Y-65849510D02*
X133329887Y-65944748D01*
X133329887Y-65944748D02*
X133377506Y-65992368D01*
X133377506Y-65992368D02*
X133472744Y-66039987D01*
X133472744Y-66039987D02*
X133758458Y-66039987D01*
X133758458Y-66039987D02*
X133853696Y-65992368D01*
X133853696Y-65992368D02*
X133901315Y-65944748D01*
X132901315Y-65135225D02*
X132853696Y-65087606D01*
X132853696Y-65087606D02*
X132758458Y-65039987D01*
X132758458Y-65039987D02*
X132520363Y-65039987D01*
X132520363Y-65039987D02*
X132425125Y-65087606D01*
X132425125Y-65087606D02*
X132377506Y-65135225D01*
X132377506Y-65135225D02*
X132329887Y-65230463D01*
X132329887Y-65230463D02*
X132329887Y-65325701D01*
X132329887Y-65325701D02*
X132377506Y-65468558D01*
X132377506Y-65468558D02*
X132948934Y-66039987D01*
X132948934Y-66039987D02*
X132329887Y-66039987D01*
X130567982Y-65944748D02*
X130615601Y-65992368D01*
X130615601Y-65992368D02*
X130758458Y-66039987D01*
X130758458Y-66039987D02*
X130853696Y-66039987D01*
X130853696Y-66039987D02*
X130996553Y-65992368D01*
X130996553Y-65992368D02*
X131091791Y-65897129D01*
X131091791Y-65897129D02*
X131139410Y-65801891D01*
X131139410Y-65801891D02*
X131187029Y-65611415D01*
X131187029Y-65611415D02*
X131187029Y-65468558D01*
X131187029Y-65468558D02*
X131139410Y-65278082D01*
X131139410Y-65278082D02*
X131091791Y-65182844D01*
X131091791Y-65182844D02*
X130996553Y-65087606D01*
X130996553Y-65087606D02*
X130853696Y-65039987D01*
X130853696Y-65039987D02*
X130758458Y-65039987D01*
X130758458Y-65039987D02*
X130615601Y-65087606D01*
X130615601Y-65087606D02*
X130567982Y-65135225D01*
X130187029Y-65754272D02*
X129710839Y-65754272D01*
X130282267Y-66039987D02*
X129948934Y-65039987D01*
X129948934Y-65039987D02*
X129615601Y-66039987D01*
X129282267Y-66039987D02*
X129282267Y-65039987D01*
X129282267Y-65039987D02*
X128710839Y-66039987D01*
X128710839Y-66039987D02*
X128710839Y-65039987D01*
X127615600Y-65373320D02*
X127234648Y-65373320D01*
X127472743Y-66039987D02*
X127472743Y-65182844D01*
X127472743Y-65182844D02*
X127425124Y-65087606D01*
X127425124Y-65087606D02*
X127329886Y-65039987D01*
X127329886Y-65039987D02*
X127234648Y-65039987D01*
X126758457Y-66039987D02*
X126853695Y-65992368D01*
X126853695Y-65992368D02*
X126901314Y-65944748D01*
X126901314Y-65944748D02*
X126948933Y-65849510D01*
X126948933Y-65849510D02*
X126948933Y-65563796D01*
X126948933Y-65563796D02*
X126901314Y-65468558D01*
X126901314Y-65468558D02*
X126853695Y-65420939D01*
X126853695Y-65420939D02*
X126758457Y-65373320D01*
X126758457Y-65373320D02*
X126615600Y-65373320D01*
X126615600Y-65373320D02*
X126520362Y-65420939D01*
X126520362Y-65420939D02*
X126472743Y-65468558D01*
X126472743Y-65468558D02*
X126425124Y-65563796D01*
X126425124Y-65563796D02*
X126425124Y-65849510D01*
X126425124Y-65849510D02*
X126472743Y-65944748D01*
X126472743Y-65944748D02*
X126520362Y-65992368D01*
X126520362Y-65992368D02*
X126615600Y-66039987D01*
X126615600Y-66039987D02*
X126758457Y-66039987D01*
X125996552Y-66039987D02*
X125996552Y-65373320D01*
X125996552Y-65563796D02*
X125948933Y-65468558D01*
X125948933Y-65468558D02*
X125901314Y-65420939D01*
X125901314Y-65420939D02*
X125806076Y-65373320D01*
X125806076Y-65373320D02*
X125710838Y-65373320D01*
X124710837Y-65039987D02*
X124044171Y-65039987D01*
X124044171Y-65039987D02*
X124710837Y-66039987D01*
X124710837Y-66039987D02*
X124044171Y-66039987D01*
X123663218Y-65516177D02*
X123329885Y-65516177D01*
X123187028Y-66039987D02*
X123663218Y-66039987D01*
X123663218Y-66039987D02*
X123663218Y-65039987D01*
X123663218Y-65039987D02*
X123187028Y-65039987D01*
X122758456Y-65039987D02*
X122758456Y-65849510D01*
X122758456Y-65849510D02*
X122710837Y-65944748D01*
X122710837Y-65944748D02*
X122663218Y-65992368D01*
X122663218Y-65992368D02*
X122567980Y-66039987D01*
X122567980Y-66039987D02*
X122377504Y-66039987D01*
X122377504Y-66039987D02*
X122282266Y-65992368D01*
X122282266Y-65992368D02*
X122234647Y-65944748D01*
X122234647Y-65944748D02*
X122187028Y-65849510D01*
X122187028Y-65849510D02*
X122187028Y-65039987D01*
X121758456Y-65992368D02*
X121615599Y-66039987D01*
X121615599Y-66039987D02*
X121377504Y-66039987D01*
X121377504Y-66039987D02*
X121282266Y-65992368D01*
X121282266Y-65992368D02*
X121234647Y-65944748D01*
X121234647Y-65944748D02*
X121187028Y-65849510D01*
X121187028Y-65849510D02*
X121187028Y-65754272D01*
X121187028Y-65754272D02*
X121234647Y-65659034D01*
X121234647Y-65659034D02*
X121282266Y-65611415D01*
X121282266Y-65611415D02*
X121377504Y-65563796D01*
X121377504Y-65563796D02*
X121567980Y-65516177D01*
X121567980Y-65516177D02*
X121663218Y-65468558D01*
X121663218Y-65468558D02*
X121710837Y-65420939D01*
X121710837Y-65420939D02*
X121758456Y-65325701D01*
X121758456Y-65325701D02*
X121758456Y-65230463D01*
X121758456Y-65230463D02*
X121710837Y-65135225D01*
X121710837Y-65135225D02*
X121663218Y-65087606D01*
X121663218Y-65087606D02*
X121567980Y-65039987D01*
X121567980Y-65039987D02*
X121329885Y-65039987D01*
X121329885Y-65039987D02*
X121187028Y-65087606D01*
X119663218Y-65516177D02*
X119520361Y-65563796D01*
X119520361Y-65563796D02*
X119472742Y-65611415D01*
X119472742Y-65611415D02*
X119425123Y-65706653D01*
X119425123Y-65706653D02*
X119425123Y-65849510D01*
X119425123Y-65849510D02*
X119472742Y-65944748D01*
X119472742Y-65944748D02*
X119520361Y-65992368D01*
X119520361Y-65992368D02*
X119615599Y-66039987D01*
X119615599Y-66039987D02*
X119996551Y-66039987D01*
X119996551Y-66039987D02*
X119996551Y-65039987D01*
X119996551Y-65039987D02*
X119663218Y-65039987D01*
X119663218Y-65039987D02*
X119567980Y-65087606D01*
X119567980Y-65087606D02*
X119520361Y-65135225D01*
X119520361Y-65135225D02*
X119472742Y-65230463D01*
X119472742Y-65230463D02*
X119472742Y-65325701D01*
X119472742Y-65325701D02*
X119520361Y-65420939D01*
X119520361Y-65420939D02*
X119567980Y-65468558D01*
X119567980Y-65468558D02*
X119663218Y-65516177D01*
X119663218Y-65516177D02*
X119996551Y-65516177D01*
X118567980Y-66039987D02*
X118567980Y-65516177D01*
X118567980Y-65516177D02*
X118615599Y-65420939D01*
X118615599Y-65420939D02*
X118710837Y-65373320D01*
X118710837Y-65373320D02*
X118901313Y-65373320D01*
X118901313Y-65373320D02*
X118996551Y-65420939D01*
X118567980Y-65992368D02*
X118663218Y-66039987D01*
X118663218Y-66039987D02*
X118901313Y-66039987D01*
X118901313Y-66039987D02*
X118996551Y-65992368D01*
X118996551Y-65992368D02*
X119044170Y-65897129D01*
X119044170Y-65897129D02*
X119044170Y-65801891D01*
X119044170Y-65801891D02*
X118996551Y-65706653D01*
X118996551Y-65706653D02*
X118901313Y-65659034D01*
X118901313Y-65659034D02*
X118663218Y-65659034D01*
X118663218Y-65659034D02*
X118567980Y-65611415D01*
X118234646Y-65373320D02*
X117853694Y-65373320D01*
X118091789Y-65039987D02*
X118091789Y-65897129D01*
X118091789Y-65897129D02*
X118044170Y-65992368D01*
X118044170Y-65992368D02*
X117948932Y-66039987D01*
X117948932Y-66039987D02*
X117853694Y-66039987D01*
X117663217Y-65373320D02*
X117282265Y-65373320D01*
X117520360Y-65039987D02*
X117520360Y-65897129D01*
X117520360Y-65897129D02*
X117472741Y-65992368D01*
X117472741Y-65992368D02*
X117377503Y-66039987D01*
X117377503Y-66039987D02*
X117282265Y-66039987D01*
X116567979Y-65992368D02*
X116663217Y-66039987D01*
X116663217Y-66039987D02*
X116853693Y-66039987D01*
X116853693Y-66039987D02*
X116948931Y-65992368D01*
X116948931Y-65992368D02*
X116996550Y-65897129D01*
X116996550Y-65897129D02*
X116996550Y-65516177D01*
X116996550Y-65516177D02*
X116948931Y-65420939D01*
X116948931Y-65420939D02*
X116853693Y-65373320D01*
X116853693Y-65373320D02*
X116663217Y-65373320D01*
X116663217Y-65373320D02*
X116567979Y-65420939D01*
X116567979Y-65420939D02*
X116520360Y-65516177D01*
X116520360Y-65516177D02*
X116520360Y-65611415D01*
X116520360Y-65611415D02*
X116996550Y-65706653D01*
X116091788Y-66039987D02*
X116091788Y-65373320D01*
X116091788Y-65563796D02*
X116044169Y-65468558D01*
X116044169Y-65468558D02*
X115996550Y-65420939D01*
X115996550Y-65420939D02*
X115901312Y-65373320D01*
X115901312Y-65373320D02*
X115806074Y-65373320D01*
X115567978Y-65373320D02*
X115329883Y-66039987D01*
X115091788Y-65373320D02*
X115329883Y-66039987D01*
X115329883Y-66039987D02*
X115425121Y-66278082D01*
X115425121Y-66278082D02*
X115472740Y-66325701D01*
X115472740Y-66325701D02*
X115567978Y-66373320D01*
X114710835Y-65944748D02*
X114663216Y-65992368D01*
X114663216Y-65992368D02*
X114710835Y-66039987D01*
X114710835Y-66039987D02*
X114758454Y-65992368D01*
X114758454Y-65992368D02*
X114710835Y-65944748D01*
X114710835Y-65944748D02*
X114710835Y-66039987D01*
X136139411Y-67649931D02*
X136710839Y-67649931D01*
X136425125Y-67649931D02*
X136425125Y-66649931D01*
X136425125Y-66649931D02*
X136520363Y-66792788D01*
X136520363Y-66792788D02*
X136615601Y-66888026D01*
X136615601Y-66888026D02*
X136710839Y-66935645D01*
X135758458Y-66745169D02*
X135710839Y-66697550D01*
X135710839Y-66697550D02*
X135615601Y-66649931D01*
X135615601Y-66649931D02*
X135377506Y-66649931D01*
X135377506Y-66649931D02*
X135282268Y-66697550D01*
X135282268Y-66697550D02*
X135234649Y-66745169D01*
X135234649Y-66745169D02*
X135187030Y-66840407D01*
X135187030Y-66840407D02*
X135187030Y-66935645D01*
X135187030Y-66935645D02*
X135234649Y-67078502D01*
X135234649Y-67078502D02*
X135806077Y-67649931D01*
X135806077Y-67649931D02*
X135187030Y-67649931D01*
X134758458Y-67268978D02*
X133996554Y-67268978D01*
X133615601Y-66649931D02*
X132996554Y-66649931D01*
X132996554Y-66649931D02*
X133329887Y-67030883D01*
X133329887Y-67030883D02*
X133187030Y-67030883D01*
X133187030Y-67030883D02*
X133091792Y-67078502D01*
X133091792Y-67078502D02*
X133044173Y-67126121D01*
X133044173Y-67126121D02*
X132996554Y-67221359D01*
X132996554Y-67221359D02*
X132996554Y-67459454D01*
X132996554Y-67459454D02*
X133044173Y-67554692D01*
X133044173Y-67554692D02*
X133091792Y-67602312D01*
X133091792Y-67602312D02*
X133187030Y-67649931D01*
X133187030Y-67649931D02*
X133472744Y-67649931D01*
X133472744Y-67649931D02*
X133567982Y-67602312D01*
X133567982Y-67602312D02*
X133615601Y-67554692D01*
X132091792Y-66649931D02*
X132567982Y-66649931D01*
X132567982Y-66649931D02*
X132615601Y-67126121D01*
X132615601Y-67126121D02*
X132567982Y-67078502D01*
X132567982Y-67078502D02*
X132472744Y-67030883D01*
X132472744Y-67030883D02*
X132234649Y-67030883D01*
X132234649Y-67030883D02*
X132139411Y-67078502D01*
X132139411Y-67078502D02*
X132091792Y-67126121D01*
X132091792Y-67126121D02*
X132044173Y-67221359D01*
X132044173Y-67221359D02*
X132044173Y-67459454D01*
X132044173Y-67459454D02*
X132091792Y-67554692D01*
X132091792Y-67554692D02*
X132139411Y-67602312D01*
X132139411Y-67602312D02*
X132234649Y-67649931D01*
X132234649Y-67649931D02*
X132472744Y-67649931D01*
X132472744Y-67649931D02*
X132567982Y-67602312D01*
X132567982Y-67602312D02*
X132615601Y-67554692D01*
X131758458Y-66649931D02*
X131425125Y-67649931D01*
X131425125Y-67649931D02*
X131091792Y-66649931D01*
X130758458Y-67649931D02*
X130758458Y-66649931D01*
X130758458Y-66649931D02*
X130520363Y-66649931D01*
X130520363Y-66649931D02*
X130377506Y-66697550D01*
X130377506Y-66697550D02*
X130282268Y-66792788D01*
X130282268Y-66792788D02*
X130234649Y-66888026D01*
X130234649Y-66888026D02*
X130187030Y-67078502D01*
X130187030Y-67078502D02*
X130187030Y-67221359D01*
X130187030Y-67221359D02*
X130234649Y-67411835D01*
X130234649Y-67411835D02*
X130282268Y-67507073D01*
X130282268Y-67507073D02*
X130377506Y-67602312D01*
X130377506Y-67602312D02*
X130520363Y-67649931D01*
X130520363Y-67649931D02*
X130758458Y-67649931D01*
X129187030Y-67554692D02*
X129234649Y-67602312D01*
X129234649Y-67602312D02*
X129377506Y-67649931D01*
X129377506Y-67649931D02*
X129472744Y-67649931D01*
X129472744Y-67649931D02*
X129615601Y-67602312D01*
X129615601Y-67602312D02*
X129710839Y-67507073D01*
X129710839Y-67507073D02*
X129758458Y-67411835D01*
X129758458Y-67411835D02*
X129806077Y-67221359D01*
X129806077Y-67221359D02*
X129806077Y-67078502D01*
X129806077Y-67078502D02*
X129758458Y-66888026D01*
X129758458Y-66888026D02*
X129710839Y-66792788D01*
X129710839Y-66792788D02*
X129615601Y-66697550D01*
X129615601Y-66697550D02*
X129472744Y-66649931D01*
X129472744Y-66649931D02*
X129377506Y-66649931D01*
X129377506Y-66649931D02*
X129234649Y-66697550D01*
X129234649Y-66697550D02*
X129187030Y-66745169D01*
X127996553Y-67649931D02*
X127996553Y-66983264D01*
X127996553Y-66649931D02*
X128044172Y-66697550D01*
X128044172Y-66697550D02*
X127996553Y-66745169D01*
X127996553Y-66745169D02*
X127948934Y-66697550D01*
X127948934Y-66697550D02*
X127996553Y-66649931D01*
X127996553Y-66649931D02*
X127996553Y-66745169D01*
X127520363Y-66983264D02*
X127520363Y-67649931D01*
X127520363Y-67078502D02*
X127472744Y-67030883D01*
X127472744Y-67030883D02*
X127377506Y-66983264D01*
X127377506Y-66983264D02*
X127234649Y-66983264D01*
X127234649Y-66983264D02*
X127139411Y-67030883D01*
X127139411Y-67030883D02*
X127091792Y-67126121D01*
X127091792Y-67126121D02*
X127091792Y-67649931D01*
X126615601Y-67554692D02*
X126567982Y-67602312D01*
X126567982Y-67602312D02*
X126615601Y-67649931D01*
X126615601Y-67649931D02*
X126663220Y-67602312D01*
X126663220Y-67602312D02*
X126615601Y-67554692D01*
X126615601Y-67554692D02*
X126615601Y-67649931D01*
X136187030Y-68259875D02*
X136663220Y-68259875D01*
X136663220Y-68259875D02*
X136710839Y-68736065D01*
X136710839Y-68736065D02*
X136663220Y-68688446D01*
X136663220Y-68688446D02*
X136567982Y-68640827D01*
X136567982Y-68640827D02*
X136329887Y-68640827D01*
X136329887Y-68640827D02*
X136234649Y-68688446D01*
X136234649Y-68688446D02*
X136187030Y-68736065D01*
X136187030Y-68736065D02*
X136139411Y-68831303D01*
X136139411Y-68831303D02*
X136139411Y-69069398D01*
X136139411Y-69069398D02*
X136187030Y-69164636D01*
X136187030Y-69164636D02*
X136234649Y-69212256D01*
X136234649Y-69212256D02*
X136329887Y-69259875D01*
X136329887Y-69259875D02*
X136567982Y-69259875D01*
X136567982Y-69259875D02*
X136663220Y-69212256D01*
X136663220Y-69212256D02*
X136710839Y-69164636D01*
X135853696Y-68259875D02*
X135520363Y-69259875D01*
X135520363Y-69259875D02*
X135187030Y-68259875D01*
X134853696Y-69259875D02*
X134853696Y-68259875D01*
X134853696Y-68259875D02*
X134615601Y-68259875D01*
X134615601Y-68259875D02*
X134472744Y-68307494D01*
X134472744Y-68307494D02*
X134377506Y-68402732D01*
X134377506Y-68402732D02*
X134329887Y-68497970D01*
X134329887Y-68497970D02*
X134282268Y-68688446D01*
X134282268Y-68688446D02*
X134282268Y-68831303D01*
X134282268Y-68831303D02*
X134329887Y-69021779D01*
X134329887Y-69021779D02*
X134377506Y-69117017D01*
X134377506Y-69117017D02*
X134472744Y-69212256D01*
X134472744Y-69212256D02*
X134615601Y-69259875D01*
X134615601Y-69259875D02*
X134853696Y-69259875D01*
X133282268Y-69164636D02*
X133329887Y-69212256D01*
X133329887Y-69212256D02*
X133472744Y-69259875D01*
X133472744Y-69259875D02*
X133567982Y-69259875D01*
X133567982Y-69259875D02*
X133710839Y-69212256D01*
X133710839Y-69212256D02*
X133806077Y-69117017D01*
X133806077Y-69117017D02*
X133853696Y-69021779D01*
X133853696Y-69021779D02*
X133901315Y-68831303D01*
X133901315Y-68831303D02*
X133901315Y-68688446D01*
X133901315Y-68688446D02*
X133853696Y-68497970D01*
X133853696Y-68497970D02*
X133806077Y-68402732D01*
X133806077Y-68402732D02*
X133710839Y-68307494D01*
X133710839Y-68307494D02*
X133567982Y-68259875D01*
X133567982Y-68259875D02*
X133472744Y-68259875D01*
X133472744Y-68259875D02*
X133329887Y-68307494D01*
X133329887Y-68307494D02*
X133282268Y-68355113D01*
X131948934Y-69259875D02*
X132044172Y-69212256D01*
X132044172Y-69212256D02*
X132091791Y-69164636D01*
X132091791Y-69164636D02*
X132139410Y-69069398D01*
X132139410Y-69069398D02*
X132139410Y-68783684D01*
X132139410Y-68783684D02*
X132091791Y-68688446D01*
X132091791Y-68688446D02*
X132044172Y-68640827D01*
X132044172Y-68640827D02*
X131948934Y-68593208D01*
X131948934Y-68593208D02*
X131806077Y-68593208D01*
X131806077Y-68593208D02*
X131710839Y-68640827D01*
X131710839Y-68640827D02*
X131663220Y-68688446D01*
X131663220Y-68688446D02*
X131615601Y-68783684D01*
X131615601Y-68783684D02*
X131615601Y-69069398D01*
X131615601Y-69069398D02*
X131663220Y-69164636D01*
X131663220Y-69164636D02*
X131710839Y-69212256D01*
X131710839Y-69212256D02*
X131806077Y-69259875D01*
X131806077Y-69259875D02*
X131948934Y-69259875D01*
X130758458Y-68593208D02*
X130758458Y-69259875D01*
X131187029Y-68593208D02*
X131187029Y-69117017D01*
X131187029Y-69117017D02*
X131139410Y-69212256D01*
X131139410Y-69212256D02*
X131044172Y-69259875D01*
X131044172Y-69259875D02*
X130901315Y-69259875D01*
X130901315Y-69259875D02*
X130806077Y-69212256D01*
X130806077Y-69212256D02*
X130758458Y-69164636D01*
X130425124Y-68593208D02*
X130044172Y-68593208D01*
X130282267Y-68259875D02*
X130282267Y-69117017D01*
X130282267Y-69117017D02*
X130234648Y-69212256D01*
X130234648Y-69212256D02*
X130139410Y-69259875D01*
X130139410Y-69259875D02*
X130044172Y-69259875D01*
X128663219Y-69640827D02*
X128710838Y-69593208D01*
X128710838Y-69593208D02*
X128806076Y-69450351D01*
X128806076Y-69450351D02*
X128853695Y-69355113D01*
X128853695Y-69355113D02*
X128901314Y-69212256D01*
X128901314Y-69212256D02*
X128948933Y-68974160D01*
X128948933Y-68974160D02*
X128948933Y-68783684D01*
X128948933Y-68783684D02*
X128901314Y-68545589D01*
X128901314Y-68545589D02*
X128853695Y-68402732D01*
X128853695Y-68402732D02*
X128806076Y-68307494D01*
X128806076Y-68307494D02*
X128710838Y-68164636D01*
X128710838Y-68164636D02*
X128663219Y-68117017D01*
X128282266Y-69259875D02*
X128282266Y-68259875D01*
X128282266Y-68259875D02*
X127948933Y-68974160D01*
X127948933Y-68974160D02*
X127615600Y-68259875D01*
X127615600Y-68259875D02*
X127615600Y-69259875D01*
X127187028Y-68974160D02*
X126710838Y-68974160D01*
X127282266Y-69259875D02*
X126948933Y-68259875D01*
X126948933Y-68259875D02*
X126615600Y-69259875D01*
X126377504Y-68259875D02*
X125710838Y-69259875D01*
X125710838Y-68259875D02*
X126377504Y-69259875D01*
X124567980Y-69164636D02*
X124520361Y-69212256D01*
X124520361Y-69212256D02*
X124567980Y-69259875D01*
X124567980Y-69259875D02*
X124615599Y-69212256D01*
X124615599Y-69212256D02*
X124567980Y-69164636D01*
X124567980Y-69164636D02*
X124567980Y-69259875D01*
X124187028Y-68259875D02*
X123520362Y-68259875D01*
X123520362Y-68259875D02*
X123948933Y-69259875D01*
X122663219Y-68259875D02*
X123139409Y-68259875D01*
X123139409Y-68259875D02*
X123187028Y-68736065D01*
X123187028Y-68736065D02*
X123139409Y-68688446D01*
X123139409Y-68688446D02*
X123044171Y-68640827D01*
X123044171Y-68640827D02*
X122806076Y-68640827D01*
X122806076Y-68640827D02*
X122710838Y-68688446D01*
X122710838Y-68688446D02*
X122663219Y-68736065D01*
X122663219Y-68736065D02*
X122615600Y-68831303D01*
X122615600Y-68831303D02*
X122615600Y-69069398D01*
X122615600Y-69069398D02*
X122663219Y-69164636D01*
X122663219Y-69164636D02*
X122710838Y-69212256D01*
X122710838Y-69212256D02*
X122806076Y-69259875D01*
X122806076Y-69259875D02*
X123044171Y-69259875D01*
X123044171Y-69259875D02*
X123139409Y-69212256D01*
X123139409Y-69212256D02*
X123187028Y-69164636D01*
X122234647Y-68974160D02*
X121758457Y-68974160D01*
X122329885Y-69259875D02*
X121996552Y-68259875D01*
X121996552Y-68259875D02*
X121663219Y-69259875D01*
X121425123Y-69640827D02*
X121377504Y-69593208D01*
X121377504Y-69593208D02*
X121282266Y-69450351D01*
X121282266Y-69450351D02*
X121234647Y-69355113D01*
X121234647Y-69355113D02*
X121187028Y-69212256D01*
X121187028Y-69212256D02*
X121139409Y-68974160D01*
X121139409Y-68974160D02*
X121139409Y-68783684D01*
X121139409Y-68783684D02*
X121187028Y-68545589D01*
X121187028Y-68545589D02*
X121234647Y-68402732D01*
X121234647Y-68402732D02*
X121282266Y-68307494D01*
X121282266Y-68307494D02*
X121377504Y-68164636D01*
X121377504Y-68164636D02*
X121425123Y-68117017D01*
X136663220Y-70346009D02*
X136329887Y-70346009D01*
X136187030Y-70869819D02*
X136663220Y-70869819D01*
X136663220Y-70869819D02*
X136663220Y-69869819D01*
X136663220Y-69869819D02*
X136187030Y-69869819D01*
X135806077Y-70822200D02*
X135663220Y-70869819D01*
X135663220Y-70869819D02*
X135425125Y-70869819D01*
X135425125Y-70869819D02*
X135329887Y-70822200D01*
X135329887Y-70822200D02*
X135282268Y-70774580D01*
X135282268Y-70774580D02*
X135234649Y-70679342D01*
X135234649Y-70679342D02*
X135234649Y-70584104D01*
X135234649Y-70584104D02*
X135282268Y-70488866D01*
X135282268Y-70488866D02*
X135329887Y-70441247D01*
X135329887Y-70441247D02*
X135425125Y-70393628D01*
X135425125Y-70393628D02*
X135615601Y-70346009D01*
X135615601Y-70346009D02*
X135710839Y-70298390D01*
X135710839Y-70298390D02*
X135758458Y-70250771D01*
X135758458Y-70250771D02*
X135806077Y-70155533D01*
X135806077Y-70155533D02*
X135806077Y-70060295D01*
X135806077Y-70060295D02*
X135758458Y-69965057D01*
X135758458Y-69965057D02*
X135710839Y-69917438D01*
X135710839Y-69917438D02*
X135615601Y-69869819D01*
X135615601Y-69869819D02*
X135377506Y-69869819D01*
X135377506Y-69869819D02*
X135234649Y-69917438D01*
X134806077Y-70869819D02*
X134806077Y-69869819D01*
X134806077Y-69869819D02*
X134425125Y-69869819D01*
X134425125Y-69869819D02*
X134329887Y-69917438D01*
X134329887Y-69917438D02*
X134282268Y-69965057D01*
X134282268Y-69965057D02*
X134234649Y-70060295D01*
X134234649Y-70060295D02*
X134234649Y-70203152D01*
X134234649Y-70203152D02*
X134282268Y-70298390D01*
X134282268Y-70298390D02*
X134329887Y-70346009D01*
X134329887Y-70346009D02*
X134425125Y-70393628D01*
X134425125Y-70393628D02*
X134806077Y-70393628D01*
X133901315Y-69869819D02*
X133282268Y-69869819D01*
X133282268Y-69869819D02*
X133615601Y-70250771D01*
X133615601Y-70250771D02*
X133472744Y-70250771D01*
X133472744Y-70250771D02*
X133377506Y-70298390D01*
X133377506Y-70298390D02*
X133329887Y-70346009D01*
X133329887Y-70346009D02*
X133282268Y-70441247D01*
X133282268Y-70441247D02*
X133282268Y-70679342D01*
X133282268Y-70679342D02*
X133329887Y-70774580D01*
X133329887Y-70774580D02*
X133377506Y-70822200D01*
X133377506Y-70822200D02*
X133472744Y-70869819D01*
X133472744Y-70869819D02*
X133758458Y-70869819D01*
X133758458Y-70869819D02*
X133853696Y-70822200D01*
X133853696Y-70822200D02*
X133901315Y-70774580D01*
X132901315Y-69965057D02*
X132853696Y-69917438D01*
X132853696Y-69917438D02*
X132758458Y-69869819D01*
X132758458Y-69869819D02*
X132520363Y-69869819D01*
X132520363Y-69869819D02*
X132425125Y-69917438D01*
X132425125Y-69917438D02*
X132377506Y-69965057D01*
X132377506Y-69965057D02*
X132329887Y-70060295D01*
X132329887Y-70060295D02*
X132329887Y-70155533D01*
X132329887Y-70155533D02*
X132377506Y-70298390D01*
X132377506Y-70298390D02*
X132948934Y-70869819D01*
X132948934Y-70869819D02*
X132329887Y-70869819D01*
X131187029Y-70822200D02*
X131044172Y-70869819D01*
X131044172Y-70869819D02*
X130806077Y-70869819D01*
X130806077Y-70869819D02*
X130710839Y-70822200D01*
X130710839Y-70822200D02*
X130663220Y-70774580D01*
X130663220Y-70774580D02*
X130615601Y-70679342D01*
X130615601Y-70679342D02*
X130615601Y-70584104D01*
X130615601Y-70584104D02*
X130663220Y-70488866D01*
X130663220Y-70488866D02*
X130710839Y-70441247D01*
X130710839Y-70441247D02*
X130806077Y-70393628D01*
X130806077Y-70393628D02*
X130996553Y-70346009D01*
X130996553Y-70346009D02*
X131091791Y-70298390D01*
X131091791Y-70298390D02*
X131139410Y-70250771D01*
X131139410Y-70250771D02*
X131187029Y-70155533D01*
X131187029Y-70155533D02*
X131187029Y-70060295D01*
X131187029Y-70060295D02*
X131139410Y-69965057D01*
X131139410Y-69965057D02*
X131091791Y-69917438D01*
X131091791Y-69917438D02*
X130996553Y-69869819D01*
X130996553Y-69869819D02*
X130758458Y-69869819D01*
X130758458Y-69869819D02*
X130615601Y-69917438D01*
X130187029Y-69869819D02*
X130187029Y-70679342D01*
X130187029Y-70679342D02*
X130139410Y-70774580D01*
X130139410Y-70774580D02*
X130091791Y-70822200D01*
X130091791Y-70822200D02*
X129996553Y-70869819D01*
X129996553Y-70869819D02*
X129806077Y-70869819D01*
X129806077Y-70869819D02*
X129710839Y-70822200D01*
X129710839Y-70822200D02*
X129663220Y-70774580D01*
X129663220Y-70774580D02*
X129615601Y-70679342D01*
X129615601Y-70679342D02*
X129615601Y-69869819D01*
X129139410Y-70869819D02*
X129139410Y-69869819D01*
X129139410Y-69869819D02*
X128758458Y-69869819D01*
X128758458Y-69869819D02*
X128663220Y-69917438D01*
X128663220Y-69917438D02*
X128615601Y-69965057D01*
X128615601Y-69965057D02*
X128567982Y-70060295D01*
X128567982Y-70060295D02*
X128567982Y-70203152D01*
X128567982Y-70203152D02*
X128615601Y-70298390D01*
X128615601Y-70298390D02*
X128663220Y-70346009D01*
X128663220Y-70346009D02*
X128758458Y-70393628D01*
X128758458Y-70393628D02*
X129139410Y-70393628D01*
X128139410Y-70346009D02*
X127806077Y-70346009D01*
X127663220Y-70869819D02*
X128139410Y-70869819D01*
X128139410Y-70869819D02*
X128139410Y-69869819D01*
X128139410Y-69869819D02*
X127663220Y-69869819D01*
X126663220Y-70869819D02*
X126996553Y-70393628D01*
X127234648Y-70869819D02*
X127234648Y-69869819D01*
X127234648Y-69869819D02*
X126853696Y-69869819D01*
X126853696Y-69869819D02*
X126758458Y-69917438D01*
X126758458Y-69917438D02*
X126710839Y-69965057D01*
X126710839Y-69965057D02*
X126663220Y-70060295D01*
X126663220Y-70060295D02*
X126663220Y-70203152D01*
X126663220Y-70203152D02*
X126710839Y-70298390D01*
X126710839Y-70298390D02*
X126758458Y-70346009D01*
X126758458Y-70346009D02*
X126853696Y-70393628D01*
X126853696Y-70393628D02*
X127234648Y-70393628D01*
X126234648Y-70869819D02*
X126234648Y-69869819D01*
X126234648Y-69869819D02*
X125901315Y-70584104D01*
X125901315Y-70584104D02*
X125567982Y-69869819D01*
X125567982Y-69869819D02*
X125567982Y-70869819D01*
X125091791Y-70869819D02*
X125091791Y-69869819D01*
X124615601Y-70869819D02*
X124615601Y-69869819D01*
X124615601Y-69869819D02*
X124044173Y-70869819D01*
X124044173Y-70869819D02*
X124044173Y-69869819D01*
X123567982Y-70869819D02*
X123567982Y-69869819D01*
X122187030Y-70869819D02*
X122282268Y-70822200D01*
X122282268Y-70822200D02*
X122329887Y-70774580D01*
X122329887Y-70774580D02*
X122377506Y-70679342D01*
X122377506Y-70679342D02*
X122377506Y-70393628D01*
X122377506Y-70393628D02*
X122329887Y-70298390D01*
X122329887Y-70298390D02*
X122282268Y-70250771D01*
X122282268Y-70250771D02*
X122187030Y-70203152D01*
X122187030Y-70203152D02*
X122044173Y-70203152D01*
X122044173Y-70203152D02*
X121948935Y-70250771D01*
X121948935Y-70250771D02*
X121901316Y-70298390D01*
X121901316Y-70298390D02*
X121853697Y-70393628D01*
X121853697Y-70393628D02*
X121853697Y-70679342D01*
X121853697Y-70679342D02*
X121901316Y-70774580D01*
X121901316Y-70774580D02*
X121948935Y-70822200D01*
X121948935Y-70822200D02*
X122044173Y-70869819D01*
X122044173Y-70869819D02*
X122187030Y-70869819D01*
X121425125Y-70869819D02*
X121425125Y-70203152D01*
X121425125Y-70393628D02*
X121377506Y-70298390D01*
X121377506Y-70298390D02*
X121329887Y-70250771D01*
X121329887Y-70250771D02*
X121234649Y-70203152D01*
X121234649Y-70203152D02*
X121139411Y-70203152D01*
X120139410Y-69869819D02*
X119472744Y-70869819D01*
X119472744Y-69869819D02*
X120139410Y-70869819D01*
X119091791Y-70869819D02*
X119091791Y-69869819D01*
X118663220Y-70584104D02*
X118187030Y-70584104D01*
X118758458Y-70869819D02*
X118425125Y-69869819D01*
X118425125Y-69869819D02*
X118091792Y-70869819D01*
X117567982Y-69869819D02*
X117377506Y-69869819D01*
X117377506Y-69869819D02*
X117282268Y-69917438D01*
X117282268Y-69917438D02*
X117187030Y-70012676D01*
X117187030Y-70012676D02*
X117139411Y-70203152D01*
X117139411Y-70203152D02*
X117139411Y-70536485D01*
X117139411Y-70536485D02*
X117187030Y-70726961D01*
X117187030Y-70726961D02*
X117282268Y-70822200D01*
X117282268Y-70822200D02*
X117377506Y-70869819D01*
X117377506Y-70869819D02*
X117567982Y-70869819D01*
X117567982Y-70869819D02*
X117663220Y-70822200D01*
X117663220Y-70822200D02*
X117758458Y-70726961D01*
X117758458Y-70726961D02*
X117806077Y-70536485D01*
X117806077Y-70536485D02*
X117806077Y-70203152D01*
X117806077Y-70203152D02*
X117758458Y-70012676D01*
X117758458Y-70012676D02*
X117663220Y-69917438D01*
X117663220Y-69917438D02*
X117567982Y-69869819D01*
X126240787Y-55552579D02*
X126190046Y-54973533D01*
X126678527Y-55185272D02*
X126035740Y-54419227D01*
X126035740Y-54419227D02*
X125743913Y-54664099D01*
X125743913Y-54664099D02*
X125701565Y-54761795D01*
X125701565Y-54761795D02*
X125695696Y-54828882D01*
X125695696Y-54828882D02*
X125720436Y-54932448D01*
X125720436Y-54932448D02*
X125812262Y-55041883D01*
X125812262Y-55041883D02*
X125909959Y-55084230D01*
X125909959Y-55084230D02*
X125977046Y-55090100D01*
X125977046Y-55090100D02*
X126080611Y-55065360D01*
X126080611Y-55065360D02*
X126372438Y-54820489D01*
X125590047Y-56036452D02*
X125693613Y-56011713D01*
X125693613Y-56011713D02*
X125839526Y-55889277D01*
X125839526Y-55889277D02*
X125881874Y-55791581D01*
X125881874Y-55791581D02*
X125857134Y-55688015D01*
X125857134Y-55688015D02*
X125612263Y-55396189D01*
X125612263Y-55396189D02*
X125514567Y-55353841D01*
X125514567Y-55353841D02*
X125411001Y-55378581D01*
X125411001Y-55378581D02*
X125265088Y-55501017D01*
X125265088Y-55501017D02*
X125222740Y-55598713D01*
X125222740Y-55598713D02*
X125247480Y-55702278D01*
X125247480Y-55702278D02*
X125308698Y-55775235D01*
X125308698Y-55775235D02*
X125734698Y-55542102D01*
X125261742Y-56311933D02*
X125219395Y-56409629D01*
X125219395Y-56409629D02*
X125073482Y-56532065D01*
X125073482Y-56532065D02*
X124969916Y-56556804D01*
X124969916Y-56556804D02*
X124872220Y-56514457D01*
X124872220Y-56514457D02*
X124841611Y-56477978D01*
X124841611Y-56477978D02*
X124816871Y-56374413D01*
X124816871Y-56374413D02*
X124859219Y-56276717D01*
X124859219Y-56276717D02*
X124968654Y-56184890D01*
X124968654Y-56184890D02*
X125011002Y-56087194D01*
X125011002Y-56087194D02*
X124986262Y-55983628D01*
X124986262Y-55983628D02*
X124955653Y-55947150D01*
X124955653Y-55947150D02*
X124857957Y-55904802D01*
X124857957Y-55904802D02*
X124754391Y-55929542D01*
X124754391Y-55929542D02*
X124644956Y-56021369D01*
X124644956Y-56021369D02*
X124602609Y-56119065D01*
X124313306Y-57107765D02*
X124416872Y-57083026D01*
X124416872Y-57083026D02*
X124562785Y-56960590D01*
X124562785Y-56960590D02*
X124605133Y-56862894D01*
X124605133Y-56862894D02*
X124580393Y-56759328D01*
X124580393Y-56759328D02*
X124335522Y-56467502D01*
X124335522Y-56467502D02*
X124237826Y-56425154D01*
X124237826Y-56425154D02*
X124134260Y-56449894D01*
X124134260Y-56449894D02*
X123988347Y-56572329D01*
X123988347Y-56572329D02*
X123945999Y-56670026D01*
X123945999Y-56670026D02*
X123970739Y-56773591D01*
X123970739Y-56773591D02*
X124031957Y-56846548D01*
X124031957Y-56846548D02*
X124457958Y-56613415D01*
X123660042Y-56847810D02*
X123368215Y-57092681D01*
X123336344Y-56684289D02*
X123887305Y-57340898D01*
X123887305Y-57340898D02*
X123912045Y-57444464D01*
X123912045Y-57444464D02*
X123869697Y-57542160D01*
X123869697Y-57542160D02*
X123796741Y-57603378D01*
X132033657Y-55602058D02*
X132100744Y-55607927D01*
X132100744Y-55607927D02*
X132240788Y-55552579D01*
X132240788Y-55552579D02*
X132313744Y-55491361D01*
X132313744Y-55491361D02*
X132392570Y-55363056D01*
X132392570Y-55363056D02*
X132404309Y-55228881D01*
X132404309Y-55228881D02*
X132379569Y-55125316D01*
X132379569Y-55125316D02*
X132293612Y-54948794D01*
X132293612Y-54948794D02*
X132201785Y-54839359D01*
X132201785Y-54839359D02*
X132042871Y-54724054D01*
X132042871Y-54724054D02*
X131945175Y-54681707D01*
X131945175Y-54681707D02*
X131811000Y-54669968D01*
X131811000Y-54669968D02*
X131670957Y-54725316D01*
X131670957Y-54725316D02*
X131598000Y-54786534D01*
X131598000Y-54786534D02*
X131519174Y-54914839D01*
X131519174Y-54914839D02*
X131513305Y-54981927D01*
X131619394Y-55701016D02*
X131254611Y-56007105D01*
X131876005Y-55858668D02*
X130977869Y-55306886D01*
X130977869Y-55306886D02*
X131365308Y-56287193D01*
X131109960Y-56501456D02*
X130467172Y-55735411D01*
X130467172Y-55735411D02*
X130672220Y-56868763D01*
X130672220Y-56868763D02*
X130029433Y-56102719D01*
X129942654Y-57480942D02*
X130307437Y-57174852D01*
X130307437Y-57174852D02*
X129664650Y-56408808D01*
D11*
%TO.C,J2*%
X146147500Y-46380000D02*
X146147500Y-57240000D01*
X146147500Y-57240000D02*
X152587500Y-57240000D01*
X146667500Y-46380000D02*
X146667500Y-57240000D01*
X151967500Y-46380000D02*
X151967500Y-57240000D01*
X152587500Y-46380000D02*
X146147500Y-46380000D01*
X152587500Y-47700000D02*
X152587500Y-46380000D01*
X152587500Y-57240000D02*
X152587500Y-48300000D01*
X153197500Y-48440000D02*
X152587500Y-48000000D01*
X153197500Y-47560000D01*
X153197500Y-48440000D01*
G36*
X153197500Y-48440000D02*
G01*
X152587500Y-48000000D01*
X153197500Y-47560000D01*
X153197500Y-48440000D01*
G37*
D12*
%TO.C,G\u002A\u002A\u002A*%
G36*
X148992859Y-66837461D02*
G01*
X148994454Y-67034256D01*
X148997679Y-67392648D01*
X149001092Y-67684340D01*
X149005114Y-67917085D01*
X149010166Y-68098634D01*
X149016669Y-68236741D01*
X149025043Y-68339159D01*
X149035711Y-68413640D01*
X149049091Y-68467937D01*
X149065607Y-68509802D01*
X149085678Y-68546989D01*
X149166283Y-68654944D01*
X149309290Y-68749946D01*
X149493846Y-68780386D01*
X149516614Y-68779945D01*
X149702887Y-68737432D01*
X149851958Y-68629440D01*
X149958471Y-68461512D01*
X150017070Y-68239186D01*
X150032172Y-68136777D01*
X150053635Y-68074222D01*
X150094039Y-68055830D01*
X150168922Y-68063639D01*
X150250262Y-68074937D01*
X150393411Y-68092715D01*
X150548923Y-68110410D01*
X150802923Y-68137856D01*
X150797910Y-68337603D01*
X150762344Y-68623755D01*
X150660852Y-68895559D01*
X150495767Y-69122615D01*
X150268961Y-69302406D01*
X149982308Y-69432420D01*
X149924790Y-69448016D01*
X149733379Y-69473299D01*
X149506064Y-69476956D01*
X149270791Y-69460497D01*
X149055506Y-69425432D01*
X148888154Y-69373272D01*
X148663270Y-69242225D01*
X148451246Y-69038567D01*
X148297633Y-68786063D01*
X148207323Y-68491054D01*
X148201639Y-68449284D01*
X148191267Y-68310833D01*
X148182376Y-68105371D01*
X148175146Y-67840324D01*
X148169758Y-67523114D01*
X148166393Y-67161164D01*
X148165231Y-66761900D01*
X148165231Y-65264615D01*
X148572782Y-65264615D01*
X148980332Y-65264615D01*
X148992859Y-66837461D01*
G37*
G36*
X147266462Y-67333080D02*
G01*
X147266462Y-69406769D01*
X146836616Y-69406769D01*
X146406769Y-69406769D01*
X146406769Y-68625231D01*
X146406769Y-67843692D01*
X145889000Y-67843397D01*
X145668755Y-67840107D01*
X145450469Y-67831337D01*
X145259909Y-67818424D01*
X145122281Y-67802707D01*
X144833751Y-67728804D01*
X144567981Y-67593224D01*
X144354071Y-67399728D01*
X144190721Y-67147404D01*
X144153602Y-67068403D01*
X144115643Y-66966184D01*
X144094023Y-66859507D01*
X144084405Y-66723832D01*
X144083004Y-66587925D01*
X144934716Y-66587925D01*
X144957462Y-66704421D01*
X145048523Y-66883544D01*
X145210358Y-67040201D01*
X145236230Y-67058108D01*
X145293121Y-67086015D01*
X145369534Y-67105471D01*
X145480127Y-67118592D01*
X145639557Y-67127492D01*
X145862482Y-67134286D01*
X146406769Y-67147802D01*
X146406769Y-66557901D01*
X146406769Y-65968000D01*
X145907049Y-65968000D01*
X145839805Y-65968095D01*
X145643825Y-65970624D01*
X145503216Y-65978343D01*
X145400202Y-65993580D01*
X145317009Y-66018664D01*
X145235864Y-66055923D01*
X145186421Y-66083655D01*
X145033200Y-66217335D01*
X144948561Y-66386727D01*
X144934716Y-66587925D01*
X144083004Y-66587925D01*
X144082454Y-66534615D01*
X144085838Y-66347009D01*
X144098493Y-66192977D01*
X144123695Y-66073563D01*
X144164737Y-65966014D01*
X144270560Y-65777963D01*
X144467426Y-65557907D01*
X144719365Y-65393182D01*
X144941385Y-65284154D01*
X146103923Y-65271772D01*
X147266462Y-65259391D01*
X147266462Y-66557901D01*
X147266462Y-67333080D01*
G37*
G36*
X141754694Y-65206318D02*
G01*
X142147890Y-65286287D01*
X142494449Y-65427890D01*
X142793255Y-65630500D01*
X143043188Y-65893491D01*
X143243131Y-66216235D01*
X143323214Y-66395166D01*
X143448914Y-66811019D01*
X143499809Y-67241652D01*
X143475418Y-67680121D01*
X143375259Y-68119483D01*
X143343884Y-68212401D01*
X143178631Y-68568175D01*
X142959231Y-68867698D01*
X142685223Y-69111401D01*
X142356145Y-69299715D01*
X141971539Y-69433073D01*
X141967425Y-69434112D01*
X141806036Y-69459102D01*
X141581446Y-69471293D01*
X141307231Y-69469933D01*
X141072437Y-69456544D01*
X140692646Y-69398176D01*
X140342580Y-69290226D01*
X139998154Y-69126372D01*
X139889844Y-69066893D01*
X139790956Y-69008975D01*
X139718240Y-68952769D01*
X139667691Y-68886868D01*
X139635308Y-68799866D01*
X139617088Y-68680358D01*
X139609029Y-68516936D01*
X139607129Y-68298194D01*
X139607385Y-68012727D01*
X139607385Y-67179384D01*
X140506154Y-67179384D01*
X141404923Y-67179384D01*
X141404923Y-67529874D01*
X141404923Y-67880363D01*
X140926231Y-67891335D01*
X140447539Y-67902307D01*
X140435335Y-68095102D01*
X140432806Y-68139888D01*
X140434455Y-68295955D01*
X140464573Y-68402646D01*
X140533543Y-68482096D01*
X140651750Y-68556440D01*
X140746337Y-68604483D01*
X141061020Y-68720507D01*
X141367880Y-68769820D01*
X141658883Y-68754458D01*
X141925996Y-68676457D01*
X142161187Y-68537854D01*
X142356421Y-68340685D01*
X142503666Y-68086987D01*
X142534811Y-68006126D01*
X142604224Y-67726183D01*
X142635794Y-67413985D01*
X142629525Y-67094694D01*
X142585420Y-66793469D01*
X142503482Y-66535472D01*
X142482838Y-66492627D01*
X142346457Y-66295506D01*
X142162400Y-66121025D01*
X141955493Y-65993729D01*
X141784206Y-65939866D01*
X141564346Y-65910618D01*
X141333569Y-65910471D01*
X141119731Y-65939329D01*
X140950685Y-65997100D01*
X140935211Y-66005473D01*
X140765980Y-66128120D01*
X140625027Y-66283613D01*
X140536153Y-66446166D01*
X140522459Y-66486188D01*
X140502727Y-66526106D01*
X140469387Y-66544982D01*
X140406600Y-66544675D01*
X140298529Y-66527048D01*
X140129334Y-66493959D01*
X139954155Y-66460195D01*
X139809443Y-66431363D01*
X139720711Y-66407891D01*
X139677089Y-66383037D01*
X139667705Y-66350059D01*
X139681690Y-66302216D01*
X139708173Y-66232765D01*
X139710869Y-66225173D01*
X139860746Y-65909221D01*
X140063979Y-65650326D01*
X140320421Y-65448579D01*
X140629924Y-65304071D01*
X140992338Y-65216894D01*
X141407516Y-65187140D01*
X141754694Y-65206318D01*
G37*
G36*
X151913112Y-68597005D02*
G01*
X151818252Y-69230161D01*
X151663252Y-69865997D01*
X151451258Y-70492145D01*
X151185417Y-71096236D01*
X150868877Y-71665902D01*
X150606414Y-72058029D01*
X150153189Y-72622653D01*
X149647356Y-73131697D01*
X149092409Y-73582976D01*
X148491847Y-73974303D01*
X147849167Y-74303490D01*
X147167865Y-74568350D01*
X146451438Y-74766697D01*
X145703385Y-74896343D01*
X145494045Y-74920492D01*
X145224241Y-74942970D01*
X144981759Y-74949299D01*
X144737197Y-74939929D01*
X144461152Y-74915309D01*
X144129236Y-74873579D01*
X143400950Y-74732805D01*
X142710164Y-74527394D01*
X142049693Y-74255381D01*
X142006697Y-74234901D01*
X141357520Y-73881320D01*
X140759743Y-73470239D01*
X140215467Y-73004718D01*
X139726796Y-72487816D01*
X139295830Y-71922591D01*
X138924671Y-71312102D01*
X138615423Y-70659409D01*
X138370186Y-69967570D01*
X138191063Y-69239645D01*
X138080156Y-68478692D01*
X138062684Y-68019538D01*
X138456152Y-68019538D01*
X138456687Y-68218319D01*
X138458726Y-68470359D01*
X138463312Y-68668931D01*
X138471664Y-68829018D01*
X138484998Y-68965601D01*
X138504533Y-69093664D01*
X138531486Y-69228189D01*
X138567076Y-69384158D01*
X138627059Y-69626340D01*
X138760636Y-70079557D01*
X138916855Y-70498172D01*
X139105964Y-70911231D01*
X139204875Y-71102575D01*
X139578155Y-71718026D01*
X140008132Y-72281019D01*
X140491899Y-72789285D01*
X141026549Y-73240556D01*
X141609176Y-73632562D01*
X142236872Y-73963037D01*
X142906730Y-74229710D01*
X143615842Y-74430314D01*
X143690803Y-74447222D01*
X143856478Y-74481391D01*
X144009951Y-74506357D01*
X144169292Y-74523833D01*
X144352572Y-74535528D01*
X144577861Y-74543154D01*
X144863231Y-74548423D01*
X145175929Y-74551493D01*
X145441826Y-74549554D01*
X145664767Y-74540838D01*
X145862656Y-74523784D01*
X146053394Y-74496830D01*
X146254886Y-74458415D01*
X146485033Y-74406977D01*
X147160913Y-74210789D01*
X147814794Y-73942596D01*
X148433206Y-73607849D01*
X149011077Y-73210044D01*
X149543337Y-72752675D01*
X150024915Y-72239239D01*
X150450740Y-71673231D01*
X150744615Y-71195695D01*
X151025837Y-70630343D01*
X151252673Y-70032288D01*
X151432572Y-69384158D01*
X151447145Y-69321363D01*
X151479985Y-69171112D01*
X151504275Y-69037007D01*
X151521330Y-68903333D01*
X151532464Y-68754373D01*
X151538993Y-68574411D01*
X151542232Y-68347730D01*
X151543496Y-68058615D01*
X151542831Y-67842829D01*
X151533824Y-67470497D01*
X151512390Y-67147222D01*
X151475862Y-66854057D01*
X151421577Y-66572058D01*
X151346869Y-66282279D01*
X151249073Y-65965777D01*
X151029644Y-65387698D01*
X150714667Y-64755715D01*
X150337974Y-64167181D01*
X149903333Y-63625455D01*
X149414511Y-63133894D01*
X148875275Y-62695855D01*
X148289392Y-62314694D01*
X147660630Y-61993770D01*
X146992757Y-61736440D01*
X146289539Y-61546061D01*
X146167893Y-61520964D01*
X146029564Y-61497139D01*
X145888930Y-61479989D01*
X145730824Y-61468469D01*
X145540078Y-61461533D01*
X145301526Y-61458138D01*
X145000000Y-61457238D01*
X144748904Y-61457815D01*
X144499877Y-61460672D01*
X144301454Y-61466876D01*
X144138468Y-61477472D01*
X143995752Y-61493505D01*
X143858139Y-61516020D01*
X143710462Y-61546061D01*
X143269377Y-61655789D01*
X142578318Y-61889831D01*
X141927162Y-62190464D01*
X141317756Y-62556522D01*
X140751952Y-62986840D01*
X140231598Y-63480253D01*
X139758545Y-64035595D01*
X139706940Y-64103953D01*
X139324610Y-64683227D01*
X139003750Y-65310704D01*
X138744338Y-65986433D01*
X138546352Y-66710461D01*
X138541253Y-66733401D01*
X138512110Y-66873619D01*
X138490315Y-67003865D01*
X138474856Y-67138827D01*
X138464723Y-67293190D01*
X138458902Y-67481639D01*
X138456383Y-67718860D01*
X138456152Y-68019538D01*
X138062684Y-68019538D01*
X138057299Y-67878031D01*
X138102308Y-67251303D01*
X138212390Y-66613871D01*
X138384258Y-65976067D01*
X138614624Y-65348222D01*
X138900201Y-64740668D01*
X139237700Y-64163736D01*
X139623834Y-63627759D01*
X139663949Y-63578157D01*
X140110762Y-63090102D01*
X140618337Y-62640224D01*
X141176621Y-62235182D01*
X141775562Y-61881631D01*
X142405107Y-61586227D01*
X143055204Y-61355628D01*
X143178151Y-61320086D01*
X143893939Y-61158329D01*
X144606223Y-61074632D01*
X145314762Y-61068975D01*
X146019313Y-61141333D01*
X146719634Y-61291684D01*
X147415482Y-61520007D01*
X148106616Y-61826277D01*
X148317907Y-61936220D01*
X148946895Y-62317361D01*
X149517834Y-62750619D01*
X150032009Y-63237305D01*
X150490706Y-63778731D01*
X150895210Y-64376206D01*
X151246805Y-65031044D01*
X151284846Y-65111997D01*
X151527513Y-65694870D01*
X151710699Y-66275096D01*
X151840700Y-66875818D01*
X151923810Y-67520179D01*
X151944683Y-67978896D01*
X151940611Y-68058615D01*
X151913112Y-68597005D01*
G37*
%TD*%
M02*
