%TF.GenerationSoftware,KiCad,Pcbnew,9.0.6*%
%TF.CreationDate,2025-12-01T23:04:51-05:00*%
%TF.ProjectId,ESP32C6-2,45535033-3243-4362-9d32-2e6b69636164,rev?*%
%TF.SameCoordinates,Original*%
%TF.FileFunction,Copper,L1,Top*%
%TF.FilePolarity,Positive*%
%FSLAX46Y46*%
G04 Gerber Fmt 4.6, Leading zero omitted, Abs format (unit mm)*
G04 Created by KiCad (PCBNEW 9.0.6) date 2025-12-01 23:04:51*
%MOMM*%
%LPD*%
G01*
G04 APERTURE LIST*
G04 Aperture macros list*
%AMRoundRect*
0 Rectangle with rounded corners*
0 $1 Rounding radius*
0 $2 $3 $4 $5 $6 $7 $8 $9 X,Y pos of 4 corners*
0 Add a 4 corners polygon primitive as box body*
4,1,4,$2,$3,$4,$5,$6,$7,$8,$9,$2,$3,0*
0 Add four circle primitives for the rounded corners*
1,1,$1+$1,$2,$3*
1,1,$1+$1,$4,$5*
1,1,$1+$1,$6,$7*
1,1,$1+$1,$8,$9*
0 Add four rect primitives between the rounded corners*
20,1,$1+$1,$2,$3,$4,$5,0*
20,1,$1+$1,$4,$5,$6,$7,0*
20,1,$1+$1,$6,$7,$8,$9,0*
20,1,$1+$1,$8,$9,$2,$3,0*%
G04 Aperture macros list end*
%TA.AperFunction,SMDPad,CuDef*%
%ADD10R,1.219000X1.400000*%
%TD*%
%TA.AperFunction,SMDPad,CuDef*%
%ADD11RoundRect,0.155000X0.212500X0.155000X-0.212500X0.155000X-0.212500X-0.155000X0.212500X-0.155000X0*%
%TD*%
%TA.AperFunction,SMDPad,CuDef*%
%ADD12RoundRect,0.135000X0.185000X-0.135000X0.185000X0.135000X-0.185000X0.135000X-0.185000X-0.135000X0*%
%TD*%
%TA.AperFunction,SMDPad,CuDef*%
%ADD13RoundRect,0.135000X-0.135000X-0.185000X0.135000X-0.185000X0.135000X0.185000X-0.135000X0.185000X0*%
%TD*%
%TA.AperFunction,SMDPad,CuDef*%
%ADD14RoundRect,0.155000X0.155000X-0.212500X0.155000X0.212500X-0.155000X0.212500X-0.155000X-0.212500X0*%
%TD*%
%TA.AperFunction,SMDPad,CuDef*%
%ADD15RoundRect,0.249999X-0.450001X-1.850001X0.450001X-1.850001X0.450001X1.850001X-0.450001X1.850001X0*%
%TD*%
%TA.AperFunction,SMDPad,CuDef*%
%ADD16RoundRect,0.135000X-0.185000X0.135000X-0.185000X-0.135000X0.185000X-0.135000X0.185000X0.135000X0*%
%TD*%
%TA.AperFunction,SMDPad,CuDef*%
%ADD17RoundRect,0.155000X-0.155000X0.212500X-0.155000X-0.212500X0.155000X-0.212500X0.155000X0.212500X0*%
%TD*%
%TA.AperFunction,ComponentPad*%
%ADD18RoundRect,0.225000X0.525000X-1.045000X0.525000X1.045000X-0.525000X1.045000X-0.525000X-1.045000X0*%
%TD*%
%TA.AperFunction,ComponentPad*%
%ADD19RoundRect,0.750000X0.000010X-0.520000X0.000010X0.520000X-0.000010X0.520000X-0.000010X-0.520000X0*%
%TD*%
%TA.AperFunction,ComponentPad*%
%ADD20RoundRect,0.150000X0.600000X-1.120000X0.600000X1.120000X-0.600000X1.120000X-0.600000X-1.120000X0*%
%TD*%
%TA.AperFunction,SMDPad,CuDef*%
%ADD21RoundRect,0.150000X0.825000X0.150000X-0.825000X0.150000X-0.825000X-0.150000X0.825000X-0.150000X0*%
%TD*%
%TA.AperFunction,ComponentPad*%
%ADD22C,2.500000*%
%TD*%
%TA.AperFunction,ComponentPad*%
%ADD23R,2.500000X2.500000*%
%TD*%
%TA.AperFunction,ComponentPad*%
%ADD24C,4.000000*%
%TD*%
%TA.AperFunction,SMDPad,CuDef*%
%ADD25RoundRect,0.150000X-0.150000X0.512500X-0.150000X-0.512500X0.150000X-0.512500X0.150000X0.512500X0*%
%TD*%
%TA.AperFunction,ComponentPad*%
%ADD26RoundRect,0.249999X-0.850001X0.850001X-0.850001X-0.850001X0.850001X-0.850001X0.850001X0.850001X0*%
%TD*%
%TA.AperFunction,ComponentPad*%
%ADD27C,2.200000*%
%TD*%
%TA.AperFunction,SMDPad,CuDef*%
%ADD28R,0.901700X0.482600*%
%TD*%
%TA.AperFunction,ViaPad*%
%ADD29C,0.800000*%
%TD*%
%TA.AperFunction,Conductor*%
%ADD30C,0.500000*%
%TD*%
%TA.AperFunction,Conductor*%
%ADD31C,0.200000*%
%TD*%
%TA.AperFunction,Conductor*%
%ADD32C,0.250000*%
%TD*%
%TA.AperFunction,Conductor*%
%ADD33C,0.750000*%
%TD*%
%TA.AperFunction,Conductor*%
%ADD34C,0.700000*%
%TD*%
%TA.AperFunction,Conductor*%
%ADD35C,2.000000*%
%TD*%
%TA.AperFunction,Conductor*%
%ADD36C,1.000000*%
%TD*%
G04 APERTURE END LIST*
D10*
%TO.P,TVS1,2,A*%
%TO.N,Net-(J2-Pin_1)*%
X150192818Y-66807182D03*
%TO.P,TVS1,1,K*%
%TO.N,GND*%
X150192818Y-63607182D03*
%TD*%
D11*
%TO.P,C6,2*%
%TO.N,Net-(U1-3v3)*%
X148957500Y-61000000D03*
%TO.P,C6,1*%
%TO.N,GND*%
X150092500Y-61000000D03*
%TD*%
D12*
%TO.P,R2,1*%
%TO.N,Net-(U2-Rs)*%
X123985387Y-57967654D03*
%TO.P,R2,2*%
%TO.N,GND*%
X123985387Y-56947654D03*
%TD*%
D13*
%TO.P,R5,1*%
%TO.N,Net-(U1-GPIO3)*%
X117170000Y-48000000D03*
%TO.P,R5,2*%
%TO.N,Net-(J1-Pad4)*%
X118190000Y-48000000D03*
%TD*%
D14*
%TO.P,C4,1*%
%TO.N,GND*%
X116945985Y-56907291D03*
%TO.P,C4,2*%
%TO.N,Net-(U1-3v3)*%
X116945985Y-55772291D03*
%TD*%
D15*
%TO.P,L1,1,1*%
%TO.N,Net-(J2-Pin_3)*%
X144000000Y-70000000D03*
%TO.P,L1,2,2*%
%TO.N,Net-(U3-SW)*%
X147700000Y-70000000D03*
%TD*%
D16*
%TO.P,R8,1*%
%TO.N,GND*%
X143370781Y-73549833D03*
%TO.P,R8,2*%
%TO.N,Net-(U3-FB)*%
X143370781Y-74569833D03*
%TD*%
D11*
%TO.P,C5,1*%
%TO.N,Net-(J2-Pin_3)*%
X142226383Y-72000000D03*
%TO.P,C5,2*%
%TO.N,GND*%
X141091383Y-72000000D03*
%TD*%
D17*
%TO.P,C2,1*%
%TO.N,Net-(U3-SW)*%
X149302617Y-73129883D03*
%TO.P,C2,2*%
%TO.N,Net-(U3-CB)*%
X149302617Y-74264883D03*
%TD*%
D18*
%TO.P,U1,20,GPIO7*%
%TO.N,unconnected-(U1-GPIO7-Pad20)*%
X136500000Y-76000000D03*
%TO.P,U1,19,GPIO6*%
%TO.N,unconnected-(U1-GPIO6-Pad19)*%
X134000000Y-76000000D03*
D19*
%TO.P,U1,18,GPIO5*%
%TO.N,unconnected-(U1-GPIO5-Pad18)*%
X131500000Y-76000000D03*
D18*
%TO.P,U1,17,GPIO4*%
%TO.N,unconnected-(U1-GPIO4-Pad17)*%
X128920000Y-76000000D03*
%TO.P,U1,16,GPIO3*%
%TO.N,Net-(U1-GPIO3)*%
X126380000Y-76000000D03*
%TO.P,U1,15,GPIO2*%
%TO.N,unconnected-(U1-GPIO2-Pad15)*%
X123840000Y-76000000D03*
%TO.P,U1,14,GPIO1*%
%TO.N,unconnected-(U1-GPIO1-Pad14)*%
X121300000Y-76000000D03*
%TO.P,U1,13,GPIO0*%
%TO.N,unconnected-(U1-GPIO0-Pad13)*%
X118760000Y-76000000D03*
%TO.P,U1,12,RX*%
%TO.N,unconnected-(U1-RX-Pad12)*%
X116220000Y-76000000D03*
%TO.P,U1,11,TX*%
%TO.N,unconnected-(U1-TX-Pad11)*%
X113680000Y-76000000D03*
%TO.P,U1,10,GPIO8*%
%TO.N,unconnected-(U1-GPIO8-Pad10)*%
X136500000Y-60000000D03*
D20*
%TO.P,U1,9,GPIO9*%
%TO.N,unconnected-(U1-GPIO9-Pad9)*%
X133820000Y-60000000D03*
D18*
%TO.P,U1,8,GPIO14*%
%TO.N,unconnected-(U1-GPIO14-Pad8)*%
X131280000Y-60000000D03*
%TO.P,U1,7,GPIO15*%
%TO.N,unconnected-(U1-GPIO15-Pad7)*%
X128740000Y-60000000D03*
%TO.P,U1,6,GPIO18*%
%TO.N,Net-(U1-GPIO18)*%
X126200000Y-60000000D03*
%TO.P,U1,5,GPIO19*%
%TO.N,Net-(U1-GPIO19)*%
X123660000Y-60000000D03*
%TO.P,U1,4,GPIO20*%
%TO.N,Net-(U1-GPIO20)*%
X121120000Y-60000000D03*
%TO.P,U1,3,3v3*%
%TO.N,Net-(U1-3v3)*%
X118580000Y-60000000D03*
%TO.P,U1,2,GND*%
%TO.N,GND*%
X116040000Y-60000000D03*
%TO.P,U1,1,5v*%
%TO.N,Net-(J2-Pin_3)*%
X113500000Y-60000000D03*
%TD*%
D12*
%TO.P,R7,1*%
%TO.N,Net-(U3-FB)*%
X144534671Y-74536340D03*
%TO.P,R7,2*%
%TO.N,Net-(J2-Pin_3)*%
X144534671Y-73516340D03*
%TD*%
D16*
%TO.P,R6,1*%
%TO.N,Net-(U1-GPIO3)*%
X115680000Y-47490000D03*
%TO.P,R6,2*%
%TO.N,Net-(U1-3v3)*%
X115680000Y-48510000D03*
%TD*%
D14*
%TO.P,C7,1*%
%TO.N,GND*%
X117945985Y-56907291D03*
%TO.P,C7,2*%
%TO.N,Net-(U1-3v3)*%
X117945985Y-55772291D03*
%TD*%
D16*
%TO.P,R3,1*%
%TO.N,/CAN +*%
X139000000Y-55490000D03*
%TO.P,R3,2*%
%TO.N,/CAN -*%
X139000000Y-56510000D03*
%TD*%
D21*
%TO.P,U2,1,D*%
%TO.N,Net-(U1-GPIO20)*%
X147000000Y-63905000D03*
%TO.P,U2,2,GND*%
%TO.N,GND*%
X147000000Y-62635000D03*
%TO.P,U2,3,VCC*%
%TO.N,Net-(U1-3v3)*%
X147000000Y-61365000D03*
%TO.P,U2,4,R*%
%TO.N,Net-(U1-GPIO19)*%
X147000000Y-60095000D03*
%TO.P,U2,5,Vref*%
%TO.N,unconnected-(U2-Vref-Pad5)*%
X142050000Y-60095000D03*
%TO.P,U2,6,CANL*%
%TO.N,/CAN -*%
X142050000Y-61365000D03*
%TO.P,U2,7,CANH*%
%TO.N,/CAN +*%
X142050000Y-62635000D03*
%TO.P,U2,8,Rs*%
%TO.N,Net-(U2-Rs)*%
X142050000Y-63905000D03*
%TD*%
D16*
%TO.P,R1,1*%
%TO.N,Net-(U2-Rs)*%
X125985387Y-56947654D03*
%TO.P,R1,2*%
%TO.N,Net-(U1-GPIO18)*%
X125985387Y-57967654D03*
%TD*%
D22*
%TO.P,J1,9,9*%
%TO.N,unconnected-(J1-Pad9)*%
X124345000Y-50580000D03*
%TO.P,J1,8,8*%
%TO.N,unconnected-(J1-Pad8)*%
X127115000Y-50580000D03*
%TO.P,J1,7,7*%
%TO.N,/CAN +*%
X129885000Y-50580000D03*
%TO.P,J1,6,6*%
%TO.N,unconnected-(J1-Pad6)*%
X132655000Y-50580000D03*
%TO.P,J1,5,5*%
%TO.N,unconnected-(J1-Pad5)*%
X122960000Y-53420000D03*
%TO.P,J1,4,4*%
%TO.N,Net-(J1-Pad4)*%
X125730000Y-53420000D03*
%TO.P,J1,3,3*%
%TO.N,unconnected-(J1-Pad3)*%
X128500000Y-53420000D03*
%TO.P,J1,2,2*%
%TO.N,/CAN -*%
X131270000Y-53420000D03*
D23*
%TO.P,J1,1,1*%
%TO.N,unconnected-(J1-Pad1)*%
X134040000Y-53420000D03*
D24*
%TO.P,J1,0*%
%TO.N,N/C*%
X116000000Y-52000000D03*
X141000000Y-52000000D03*
%TD*%
D25*
%TO.P,U3,1,GND*%
%TO.N,GND*%
X147950000Y-73862500D03*
%TO.P,U3,2,SW*%
%TO.N,Net-(U3-SW)*%
X147000000Y-73862500D03*
%TO.P,U3,3,VIN*%
%TO.N,Net-(J2-Pin_1)*%
X146050000Y-73862500D03*
%TO.P,U3,4,FB*%
%TO.N,Net-(U3-FB)*%
X146050000Y-76137500D03*
%TO.P,U3,5,EN*%
%TO.N,Net-(J2-Pin_1)*%
X147000000Y-76137500D03*
%TO.P,U3,6,CB*%
%TO.N,Net-(U3-CB)*%
X147950000Y-76137500D03*
%TD*%
D11*
%TO.P,C3,1*%
%TO.N,Net-(J2-Pin_3)*%
X142226383Y-70000000D03*
%TO.P,C3,2*%
%TO.N,GND*%
X141091383Y-70000000D03*
%TD*%
D26*
%TO.P,J2,1,Pin_1*%
%TO.N,Net-(J2-Pin_1)*%
X149367500Y-48000000D03*
D27*
%TO.P,J2,2,Pin_2*%
%TO.N,GND*%
X149367500Y-50540000D03*
%TO.P,J2,3,Pin_3*%
%TO.N,Net-(J2-Pin_3)*%
X149367500Y-53080000D03*
%TO.P,J2,4,Pin_4*%
%TO.N,GND*%
X149367500Y-55620000D03*
%TD*%
D28*
%TO.P,CR1,1,1*%
%TO.N,/CAN +*%
X141000000Y-55099998D03*
%TO.P,CR1,2,2*%
%TO.N,/CAN -*%
X141000000Y-57000000D03*
%TO.P,CR1,3,3*%
%TO.N,GND*%
X143298700Y-56049999D03*
%TD*%
D29*
%TO.N,GND*%
X122052734Y-56907291D03*
X115981864Y-57888236D03*
X140000000Y-70000000D03*
X142000000Y-73549833D03*
X140000000Y-72000000D03*
X127000000Y-71000000D03*
X145000000Y-56049999D03*
X148484867Y-62666187D03*
%TO.N,Net-(J2-Pin_3)*%
X142000000Y-67000000D03*
%TO.N,Net-(J2-Pin_1)*%
X150249337Y-68175654D03*
%TO.N,Net-(U1-GPIO20)*%
X147000000Y-65000000D03*
%TO.N,Net-(U1-GPIO3)*%
X116660000Y-47490000D03*
%TO.N,GND*%
X151500000Y-70941215D03*
X147973852Y-74875000D03*
X117000000Y-71000000D03*
%TO.N,Net-(J2-Pin_1)*%
X147000000Y-77100000D03*
X145437349Y-73221863D03*
%TO.N,/CAN +*%
X139923587Y-55490000D03*
X140287937Y-62262632D03*
%TO.N,GND*%
X150000000Y-62000000D03*
%TD*%
D30*
%TO.N,GND*%
X123945024Y-56907291D02*
X123985387Y-56947654D01*
X122052734Y-56907291D02*
X123945024Y-56907291D01*
X122052734Y-56907291D02*
X117945985Y-56907291D01*
X116945985Y-56907291D02*
X117945985Y-56907291D01*
X115981864Y-57871412D02*
X116945985Y-56907291D01*
X115981864Y-57888236D02*
X115981864Y-57871412D01*
%TO.N,Net-(U1-3v3)*%
X116945985Y-55772291D02*
X117945985Y-55772291D01*
X114977000Y-56977000D02*
X116181709Y-55772291D01*
X116181709Y-55772291D02*
X116945985Y-55772291D01*
X114977000Y-56977000D02*
X115234443Y-56719557D01*
%TO.N,GND*%
X142000000Y-73549833D02*
X143370781Y-73549833D01*
X115981864Y-60441864D02*
X116040000Y-60500000D01*
X115981864Y-57888236D02*
X115981864Y-60441864D01*
D31*
%TO.N,/CAN +*%
X140609998Y-55490000D02*
X141000000Y-55099998D01*
X139923587Y-55490000D02*
X140609998Y-55490000D01*
X139923587Y-55490000D02*
X139000000Y-55490000D01*
D32*
%TO.N,GND*%
X145000000Y-56049999D02*
X143298700Y-56049999D01*
D31*
%TO.N,/CAN +*%
X140660305Y-62635000D02*
X142002841Y-62635000D01*
X140287937Y-62262632D02*
X140660305Y-62635000D01*
D32*
%TO.N,Net-(U1-GPIO20)*%
X147000000Y-65000000D02*
X147000000Y-63905000D01*
%TO.N,GND*%
X148484867Y-62666187D02*
X147031187Y-62666187D01*
X147031187Y-62666187D02*
X147000000Y-62635000D01*
D33*
X150000000Y-63414364D02*
X150192818Y-63607182D01*
X150000000Y-62000000D02*
X150000000Y-63414364D01*
X150092500Y-61907500D02*
X150000000Y-62000000D01*
X150092500Y-61000000D02*
X150092500Y-61907500D01*
D30*
%TO.N,Net-(J2-Pin_1)*%
X150249337Y-66863701D02*
X150192818Y-66807182D01*
X150249337Y-68175654D02*
X150249337Y-66863701D01*
X145437349Y-73249849D02*
X146050000Y-73862500D01*
X145437349Y-73221863D02*
X145437349Y-73249849D01*
X147000000Y-77100000D02*
X147000000Y-76137500D01*
D34*
%TO.N,GND*%
X147950000Y-73862500D02*
X147950000Y-74851148D01*
X147950000Y-74851148D02*
X147973852Y-74875000D01*
D30*
X140000000Y-72000000D02*
X141091383Y-72000000D01*
X140000000Y-70000000D02*
X141091383Y-70000000D01*
D35*
X117000000Y-71000000D02*
X127000000Y-71000000D01*
D32*
%TO.N,Net-(U1-3v3)*%
X115490000Y-48510000D02*
X115680000Y-48510000D01*
X113000000Y-51000000D02*
X115490000Y-48510000D01*
X113000000Y-54776000D02*
X113000000Y-51000000D01*
X113655300Y-55431300D02*
X113000000Y-54776000D01*
D33*
%TO.N,GND*%
X152301629Y-70139586D02*
X152301629Y-62255379D01*
X151500000Y-70941215D02*
X152301629Y-70139586D01*
X151046250Y-61000000D02*
X150092500Y-61000000D01*
X152301629Y-62255379D02*
X151046250Y-61000000D01*
%TO.N,Net-(J2-Pin_3)*%
X142000000Y-67000000D02*
X142381268Y-67000000D01*
X143381268Y-68000000D02*
X144000000Y-68000000D01*
X142381268Y-67000000D02*
X143381268Y-68000000D01*
X141000000Y-67000000D02*
X142000000Y-67000000D01*
D36*
X118000000Y-67000000D02*
X141000000Y-67000000D01*
X113500000Y-62500000D02*
X118000000Y-67000000D01*
X113500000Y-60500000D02*
X113500000Y-62500000D01*
D31*
%TO.N,/CAN -*%
X131270000Y-54207679D02*
X131270000Y-53420000D01*
X132471030Y-55408709D02*
X131270000Y-54207679D01*
X133258709Y-55408709D02*
X132471030Y-55408709D01*
X134034730Y-56184730D02*
G75*
G03*
X133802798Y-56184730I-115966J-115962D01*
G01*
X135534144Y-57170000D02*
G75*
G02*
X135370100Y-57006000I-44J164000D01*
G01*
X135370144Y-56014000D02*
G75*
G03*
X135206144Y-55849956I-164044J0D01*
G01*
X135780144Y-57006000D02*
G75*
G02*
X135616144Y-57170044I-164044J0D01*
G01*
X133512883Y-55894815D02*
G75*
G03*
X133512932Y-55662834I-115983J116015D01*
G01*
X133568037Y-56419488D02*
G75*
G02*
X133336135Y-56419461I-115937J115988D01*
G01*
X134960144Y-56346000D02*
G75*
G02*
X134796144Y-56510044I-164044J0D01*
G01*
X135944144Y-56510000D02*
G75*
G03*
X135780100Y-56674000I-44J-164000D01*
G01*
X135124144Y-55850000D02*
G75*
G03*
X134960100Y-56014000I-44J-164000D01*
G01*
X133278124Y-56361506D02*
G75*
G02*
X133278083Y-56129535I115976J116006D01*
G01*
X133336107Y-56419489D02*
X133278124Y-56361506D01*
X133278123Y-56129574D02*
X133512883Y-55894815D01*
X135370144Y-57006000D02*
X135370144Y-56674000D01*
X134796144Y-56510000D02*
X134714144Y-56510000D01*
X133454902Y-55604902D02*
X133258709Y-55408709D01*
X135370144Y-56674000D02*
X135370144Y-56346000D01*
X135206144Y-55850000D02*
X135124144Y-55850000D01*
X134360000Y-56510000D02*
X134034730Y-56184730D01*
X134960144Y-56014000D02*
X134960144Y-56346000D01*
X135780144Y-56674000D02*
X135780144Y-57006000D01*
X135370144Y-56346000D02*
X135370144Y-56014000D01*
X134714144Y-56510000D02*
X134360000Y-56510000D01*
X133802798Y-56184730D02*
X133568037Y-56419488D01*
X133512882Y-55662883D02*
X133454902Y-55604902D01*
X135616144Y-57170000D02*
X135534144Y-57170000D01*
D32*
%TO.N,Net-(J1-Pad4)*%
X118190000Y-50190000D02*
X118190000Y-48000000D01*
X120000000Y-55000000D02*
X120000000Y-52000000D01*
X120591487Y-55591487D02*
X120000000Y-55000000D01*
X120000000Y-52000000D02*
X118190000Y-50190000D01*
X123558513Y-55591487D02*
X120591487Y-55591487D01*
X125730000Y-53420000D02*
X123558513Y-55591487D01*
D30*
%TO.N,Net-(U1-3v3)*%
X123187000Y-65107000D02*
X118580000Y-60500000D01*
X143314909Y-65107000D02*
X123187000Y-65107000D01*
X143927000Y-63073000D02*
X143927000Y-64494910D01*
X143927000Y-64494910D02*
X143314909Y-65107000D01*
X147000000Y-61365000D02*
X145635000Y-61365000D01*
X145635000Y-61365000D02*
X143927000Y-63073000D01*
D32*
%TO.N,Net-(U1-GPIO19)*%
X143076322Y-64531000D02*
X127691000Y-64531000D01*
X127691000Y-64531000D02*
X123660000Y-60500000D01*
X143351000Y-62769001D02*
X143351000Y-64256322D01*
X143351000Y-64256322D02*
X143076322Y-64531000D01*
X147000000Y-60095000D02*
X146025001Y-60095000D01*
X146025001Y-60095000D02*
X143351000Y-62769001D01*
D31*
%TO.N,/CAN -*%
X136369646Y-56510000D02*
X135944144Y-56510000D01*
X137525162Y-56510000D02*
X139000000Y-56510000D01*
X136369646Y-56510000D02*
X137525162Y-56510000D01*
D32*
%TO.N,Net-(U1-GPIO3)*%
X116660000Y-47490000D02*
X117170000Y-48000000D01*
X115680000Y-47490000D02*
X116660000Y-47490000D01*
%TO.N,GND*%
X148937501Y-56049999D02*
X148987500Y-56000000D01*
D30*
X149367500Y-50410625D02*
X149367500Y-50540000D01*
X148987500Y-56000000D02*
X149367500Y-55620000D01*
D32*
%TO.N,Net-(U1-GPIO18)*%
X126000000Y-60300000D02*
X126200000Y-60500000D01*
X126000000Y-58190000D02*
X126000000Y-60300000D01*
D30*
%TO.N,Net-(U1-3v3)*%
X115234443Y-56719557D02*
X114943557Y-56719557D01*
X118580000Y-61420000D02*
X117000000Y-63000000D01*
X114943557Y-56719557D02*
X113655300Y-55431300D01*
X116507758Y-63000000D02*
X114764917Y-61257159D01*
X117000000Y-63000000D02*
X116507758Y-63000000D01*
X114764917Y-61257159D02*
X114764917Y-57189083D01*
X147365000Y-61000000D02*
X147000000Y-61365000D01*
X114764917Y-57189083D02*
X114977000Y-56977000D01*
X118580000Y-60500000D02*
X118580000Y-61420000D01*
X148957500Y-61000000D02*
X147365000Y-61000000D01*
D32*
%TO.N,Net-(U2-Rs)*%
X140726000Y-63726000D02*
X140699280Y-63726000D01*
X125005387Y-56947654D02*
X123985387Y-57967654D01*
X140905000Y-63905000D02*
X140726000Y-63726000D01*
X140699280Y-63726000D02*
X140274000Y-63300720D01*
X142050000Y-63905000D02*
X140905000Y-63905000D01*
X126726283Y-56947654D02*
X125985387Y-56947654D01*
X140274000Y-63274000D02*
X138275313Y-61275313D01*
X138275313Y-57651689D02*
X127430318Y-57651689D01*
X138275313Y-61275313D02*
X138275313Y-57651689D01*
X140274000Y-63300720D02*
X140274000Y-63274000D01*
X125985387Y-56947654D02*
X125005387Y-56947654D01*
X127430318Y-57651689D02*
X126726283Y-56947654D01*
%TO.N,Net-(U3-SW)*%
X147700000Y-70000000D02*
X148000000Y-70300000D01*
X147000000Y-70700000D02*
X147000000Y-73862500D01*
X148000000Y-72000000D02*
X148172734Y-72000000D01*
X148172734Y-72000000D02*
X149302617Y-73129883D01*
X148000000Y-70300000D02*
X148000000Y-72000000D01*
X147700000Y-70000000D02*
X147000000Y-70700000D01*
%TO.N,Net-(U3-CB)*%
X149302617Y-74264883D02*
X149302617Y-74784883D01*
X149302617Y-74784883D02*
X147950000Y-76137500D01*
D30*
%TO.N,Net-(U3-FB)*%
X145998331Y-76000000D02*
X146050000Y-76051669D01*
X144534671Y-75534671D02*
X144534671Y-74536340D01*
X143404274Y-74536340D02*
X143370781Y-74569833D01*
X145000000Y-76000000D02*
X145998331Y-76000000D01*
X145000000Y-76000000D02*
X144534671Y-75534671D01*
X146050000Y-76051669D02*
X146050000Y-76137500D01*
X144534671Y-74536340D02*
X143404274Y-74536340D01*
D31*
%TO.N,/CAN -*%
X142004000Y-59144909D02*
X142004000Y-59026909D01*
X139780000Y-58200909D02*
X140538000Y-58200909D01*
X140538000Y-58790909D02*
X139780000Y-58790909D01*
X140774000Y-61063999D02*
X140774000Y-60206909D01*
X140510000Y-56510000D02*
X141000000Y-57000000D01*
X141075001Y-61365000D02*
X140774000Y-61063999D01*
X140774000Y-59380909D02*
X141768000Y-59380909D01*
X139780000Y-59380909D02*
X140538000Y-59380909D01*
X140774000Y-57964909D02*
X140774000Y-57846909D01*
X140774000Y-58790909D02*
X140538000Y-58790909D01*
X139000000Y-56510000D02*
X140510000Y-56510000D01*
X140538000Y-59380909D02*
X140774000Y-59380909D01*
X140774000Y-57846909D02*
X140774000Y-57226000D01*
X142050000Y-61365000D02*
X141075001Y-61365000D01*
X140774000Y-57226000D02*
X141000000Y-57000000D01*
X139544000Y-58554909D02*
X139544000Y-58436909D01*
X140538000Y-59970909D02*
X139780000Y-59970909D01*
X141768000Y-58790909D02*
X140774000Y-58790909D01*
X139544000Y-59734909D02*
X139544000Y-59616909D01*
X142004000Y-59026909D02*
G75*
G03*
X141768000Y-58790900I-236000J9D01*
G01*
X139544000Y-59616909D02*
G75*
G02*
X139780000Y-59380900I236000J9D01*
G01*
X140538000Y-58200909D02*
G75*
G03*
X140774009Y-57964909I0J236009D01*
G01*
X140774000Y-60206909D02*
G75*
G03*
X140538000Y-59970900I-236000J9D01*
G01*
X139544000Y-58436909D02*
G75*
G02*
X139780000Y-58200900I236000J9D01*
G01*
X141768000Y-59380909D02*
G75*
G03*
X142004009Y-59144909I0J236009D01*
G01*
X139780000Y-59970909D02*
G75*
G02*
X139543991Y-59734909I0J236009D01*
G01*
X139780000Y-58790909D02*
G75*
G02*
X139543991Y-58554909I0J236009D01*
G01*
%TO.N,/CAN +*%
X129885000Y-50580000D02*
X131697547Y-48767453D01*
X134969715Y-50878046D02*
X139000000Y-54908331D01*
X131697547Y-48767453D02*
X133548453Y-48767453D01*
X133548453Y-48767453D02*
X134969715Y-50188715D01*
X134969715Y-50188715D02*
X134969715Y-50878046D01*
X139000000Y-54908331D02*
X139000000Y-55490000D01*
%TD*%
%TA.AperFunction,Conductor*%
%TO.N,Net-(J2-Pin_3)*%
G36*
X144627210Y-66019685D02*
G01*
X144672965Y-66072489D01*
X144684171Y-66123729D01*
X144697481Y-72224067D01*
X144697481Y-72224075D01*
X144743772Y-72568851D01*
X144733184Y-72637913D01*
X144723977Y-72654242D01*
X144632250Y-72791520D01*
X144632245Y-72791530D01*
X144563762Y-72956862D01*
X144563760Y-72956870D01*
X144528849Y-73132379D01*
X144528849Y-73311346D01*
X144563760Y-73486855D01*
X144563760Y-73486858D01*
X144592783Y-73556926D01*
X144596421Y-73590770D01*
X144600581Y-73624476D01*
X144600142Y-73625387D01*
X144600251Y-73626396D01*
X144585010Y-73656840D01*
X144570291Y-73687438D01*
X144569429Y-73687967D01*
X144568975Y-73688875D01*
X144539706Y-73706240D01*
X144510770Y-73724030D01*
X144509448Y-73724193D01*
X144508886Y-73724527D01*
X144475741Y-73728353D01*
X144320800Y-73725254D01*
X144254168Y-73704233D01*
X144209478Y-73650525D01*
X144199280Y-73601282D01*
X144199280Y-73349845D01*
X144196410Y-73313367D01*
X144151050Y-73157237D01*
X144068287Y-73017292D01*
X144043244Y-72992249D01*
X144009760Y-72930929D01*
X144009008Y-72927197D01*
X144000000Y-72878588D01*
X143999999Y-72878587D01*
X143828793Y-72825455D01*
X143817314Y-72821892D01*
X143813377Y-72819564D01*
X143757526Y-72803337D01*
X143756457Y-72803006D01*
X142062616Y-72277334D01*
X142004423Y-72238664D01*
X141976375Y-72174671D01*
X141975374Y-72157782D01*
X142014959Y-67791278D01*
X118155239Y-67791278D01*
X118088200Y-67771593D01*
X118042445Y-67718789D01*
X118031261Y-67669599D01*
X118002365Y-66126321D01*
X118020791Y-66058925D01*
X118072729Y-66012190D01*
X118126343Y-66000000D01*
X144560171Y-66000000D01*
X144627210Y-66019685D01*
G37*
%TD.AperFunction*%
%TD*%
M02*
