%TF.GenerationSoftware,KiCad,Pcbnew,9.0.6*%
%TF.CreationDate,2025-11-22T18:42:50-05:00*%
%TF.ProjectId,ESP32C6-2,45535033-3243-4362-9d32-2e6b69636164,rev?*%
%TF.SameCoordinates,Original*%
%TF.FileFunction,Paste,Top*%
%TF.FilePolarity,Positive*%
%FSLAX46Y46*%
G04 Gerber Fmt 4.6, Leading zero omitted, Abs format (unit mm)*
G04 Created by KiCad (PCBNEW 9.0.6) date 2025-11-22 18:42:50*
%MOMM*%
%LPD*%
G01*
G04 APERTURE LIST*
G04 Aperture macros list*
%AMRoundRect*
0 Rectangle with rounded corners*
0 $1 Rounding radius*
0 $2 $3 $4 $5 $6 $7 $8 $9 X,Y pos of 4 corners*
0 Add a 4 corners polygon primitive as box body*
4,1,4,$2,$3,$4,$5,$6,$7,$8,$9,$2,$3,0*
0 Add four circle primitives for the rounded corners*
1,1,$1+$1,$2,$3*
1,1,$1+$1,$4,$5*
1,1,$1+$1,$6,$7*
1,1,$1+$1,$8,$9*
0 Add four rect primitives between the rounded corners*
20,1,$1+$1,$2,$3,$4,$5,0*
20,1,$1+$1,$4,$5,$6,$7,0*
20,1,$1+$1,$6,$7,$8,$9,0*
20,1,$1+$1,$8,$9,$2,$3,0*%
G04 Aperture macros list end*
%ADD10RoundRect,0.135000X-0.185000X0.135000X-0.185000X-0.135000X0.185000X-0.135000X0.185000X0.135000X0*%
%ADD11RoundRect,0.155000X-0.155000X0.212500X-0.155000X-0.212500X0.155000X-0.212500X0.155000X0.212500X0*%
%ADD12RoundRect,0.135000X0.185000X-0.135000X0.185000X0.135000X-0.185000X0.135000X-0.185000X-0.135000X0*%
%ADD13RoundRect,0.135000X-0.135000X-0.185000X0.135000X-0.185000X0.135000X0.185000X-0.135000X0.185000X0*%
%ADD14R,0.901700X0.482600*%
%ADD15RoundRect,0.155000X0.155000X-0.212500X0.155000X0.212500X-0.155000X0.212500X-0.155000X-0.212500X0*%
%ADD16RoundRect,0.155000X0.212500X0.155000X-0.212500X0.155000X-0.212500X-0.155000X0.212500X-0.155000X0*%
%ADD17RoundRect,0.150000X-0.150000X0.512500X-0.150000X-0.512500X0.150000X-0.512500X0.150000X0.512500X0*%
%ADD18RoundRect,0.249999X-0.450001X-1.850001X0.450001X-1.850001X0.450001X1.850001X-0.450001X1.850001X0*%
%ADD19RoundRect,0.150000X0.825000X0.150000X-0.825000X0.150000X-0.825000X-0.150000X0.825000X-0.150000X0*%
G04 APERTURE END LIST*
D10*
%TO.C,R8*%
X141000000Y-74510000D03*
X141000000Y-73490000D03*
%TD*%
D11*
%TO.C,C2*%
X144352572Y-73968028D03*
X144352572Y-75103028D03*
%TD*%
D12*
%TO.C,R7*%
X142906730Y-74777764D03*
X142906730Y-73757764D03*
%TD*%
D10*
%TO.C,R6*%
X115680000Y-47490000D03*
X115680000Y-48510000D03*
%TD*%
D13*
%TO.C,R5*%
X117170000Y-48000000D03*
X118190000Y-48000000D03*
%TD*%
D12*
%TO.C,R4*%
X144000000Y-50510000D03*
X144000000Y-49490000D03*
%TD*%
D10*
%TO.C,R3*%
X146000000Y-49490000D03*
X146000000Y-50510000D03*
%TD*%
D12*
%TO.C,R2*%
X124000000Y-58190000D03*
X124000000Y-57170000D03*
%TD*%
D10*
%TO.C,R1*%
X126000000Y-57170000D03*
X126000000Y-58190000D03*
%TD*%
D14*
%TO.C,CR1*%
X138850650Y-55049999D03*
X138850650Y-56950001D03*
X141149350Y-56000000D03*
%TD*%
D15*
%TO.C,C4*%
X117000000Y-58000000D03*
X117000000Y-56865000D03*
%TD*%
D16*
%TO.C,C5*%
X142226383Y-72000000D03*
X141091383Y-72000000D03*
%TD*%
%TO.C,C3*%
X141091383Y-70000000D03*
X142226383Y-70000000D03*
%TD*%
D17*
%TO.C,U3*%
X147950000Y-73862500D03*
X147000000Y-73862500D03*
X146050000Y-73862500D03*
X146050000Y-76137500D03*
X147000000Y-76137500D03*
X147950000Y-76137500D03*
%TD*%
D16*
%TO.C,C6*%
X148957500Y-61000000D03*
X150092500Y-61000000D03*
%TD*%
D18*
%TO.C,L1*%
X144000000Y-70000000D03*
X147700000Y-70000000D03*
%TD*%
D15*
%TO.C,C1*%
X145000000Y-48567500D03*
X145000000Y-47432500D03*
%TD*%
D19*
%TO.C,U2*%
X147000000Y-63905000D03*
X147000000Y-62635000D03*
X147000000Y-61365000D03*
X147000000Y-60095000D03*
X142050000Y-60095000D03*
X142050000Y-61365000D03*
X142050000Y-62635000D03*
X142050000Y-63905000D03*
%TD*%
M02*
